if (_typeface_js && _typeface_js.loadFace) _typeface_js.loadFace({"glyphs":{"0":{"ha":678,"x_min":0,"x_max":0,"o":"m 293 -15 b 610 307 488 -15 572 89 l 674 668 b 422 1008 714 907 599 1008 b 101 689 257 1008 140 928 b 39 335 101 688 39 335 b 293 -15 1 117 74 -15 z m 303 151 b 221 306 239 151 200 189 l 290 700 b 410 849 308 808 346 849 b 493 699 479 849 513 813 l 424 301 b 303 151 404 189 368 151 z "},"1":{"ha":499,"x_min":0,"x_max":0,"o":"m 397 0 l 428 172 l 301 172 l 446 996 l 306 996 b 138 847 269 904 219 860 l 114 715 l 219 715 l 125 172 l -7 172 l -37 0 z "},"2":{"ha":639,"x_min":0,"x_max":0,"o":"m -26 0 l 526 0 l 556 172 l 206 172 l 210 179 b 403 386 228 272 313 326 b 650 697 507 456 621 538 l 657 740 b 408 1010 686 897 597 1010 b 113 765 244 1010 142 929 l 88 621 l 271 621 l 294 756 b 401 853 306 818 339 853 b 476 749 460 853 488 821 l 469 708 b 268 493 454 614 365 558 b 1 154 156 417 32 329 z "},"3":{"ha":649,"x_min":0,"x_max":0,"o":"m 278 -15 b 578 244 453 -15 544 63 l 590 317 b 510 513 607 411 579 479 b 642 682 588 539 628 594 l 653 746 b 403 1010 685 913 585 1010 b 111 772 242 1010 139 932 b 92 658 111 772 93 667 l 272 658 l 289 757 b 394 857 300 821 332 857 b 472 754 454 857 485 829 l 458 675 b 347 583 449 615 413 583 l 276 583 l 251 440 l 321 440 b 407 343 393 440 418 406 l 392 253 b 282 147 378 175 344 147 b 197 267 215 147 181 176 l 215 364 l 32 364 b 18 286 29 356 18 286 b 278 -15 -17 89 60 -15 z "},"4":{"ha":663,"x_min":0,"x_max":0,"o":"m 388 631 l 436 732 l 406 628 l 358 354 l 197 354 z m 601 197 l 629 354 l 525 354 l 638 996 l 481 996 l 17 331 l -7 197 l 331 197 l 296 0 l 464 0 l 499 197 z "},"5":{"ha":639,"x_min":0,"x_max":0,"o":"m 267 -17 b 569 242 436 -17 538 72 l 604 435 b 418 689 633 594 558 689 b 264 619 347 689 301 664 b 325 832 281 678 306 765 l 467 832 b 685 986 629 832 660 847 l 685 996 l 206 996 l 63 492 l 221 447 b 236 472 222 447 236 472 b 344 539 263 508 293 539 b 421 438 406 539 432 499 l 392 265 b 281 150 376 188 344 150 b 206 264 215 150 190 182 l 221 351 l 32 351 l 17 267 b 267 -17 -14 92 60 -17 z "},"6":{"ha":664,"x_min":0,"x_max":0,"o":"m 601 272 l 615 350 b 432 607 644 515 561 607 b 253 508 342 607 288 565 l 286 696 b 413 850 304 804 346 850 b 490 736 478 850 504 815 l 481 681 l 665 681 l 672 719 b 426 1008 708 913 600 1008 b 101 690 258 1008 140 925 b 36 324 101 689 36 324 b 293 -15 -1 107 75 -15 b 601 272 485 -15 568 85 z m 301 149 b 215 297 236 149 194 186 l 233 401 b 342 465 256 440 290 465 b 431 349 417 465 443 418 l 419 279 b 301 149 403 183 367 149 z "},"7":{"ha":578,"x_min":0,"x_max":0,"o":"m 226 0 b 632 846 335 343 454 581 l 658 996 l 132 996 l 101 819 l 433 819 b 18 0 281 597 138 346 z "},"8":{"ha":649,"x_min":0,"x_max":0,"o":"m 272 -17 b 581 236 465 -17 549 56 l 594 324 b 515 515 610 419 578 483 b 647 683 586 540 629 594 l 660 756 b 414 1010 692 931 596 1010 b 122 776 250 1010 151 939 l 111 710 b 175 524 97 621 119 557 b 31 342 94 497 46 431 l 18 268 b 272 -17 -15 85 47 -17 z m 356 592 b 285 688 293 592 275 626 l 297 761 b 403 851 308 828 343 851 b 481 747 465 851 497 831 l 469 683 b 365 592 456 621 428 592 z m 286 151 b 201 261 218 151 186 179 l 217 350 b 324 447 225 407 260 447 l 335 447 b 417 344 403 447 426 410 l 399 250 b 286 151 383 168 347 151 z "},"9":{"ha":663,"x_min":0,"x_max":0,"o":"m 358 538 b 272 661 288 538 260 582 l 282 719 b 399 850 299 813 335 850 b 485 699 465 850 504 810 l 468 606 b 358 538 447 564 411 538 z m 276 -17 b 596 306 463 -17 556 65 l 660 675 b 403 1010 697 889 615 1010 b 99 725 215 1010 131 911 l 86 656 b 275 399 58 486 140 399 b 449 496 365 399 417 440 l 414 296 b 289 144 396 183 363 144 b 211 264 224 144 197 185 l 225 339 l 36 339 l 25 281 b 276 -17 -11 83 74 -17 z "}," ":{"ha":285,"x_min":0,"x_max":0,"o":""}," ":{"ha":285,"x_min":0,"x_max":0,"o":""},"A":{"ha":646,"x_min":0,"x_max":0,"o":"m 354 636 l 388 771 l 376 636 l 383 304 l 233 304 z m 390 0 l 567 0 l 514 996 l 335 996 l -61 0 l 124 0 l 176 147 l 388 147 z "},"B":{"ha":649,"x_min":0,"x_max":0,"o":"m 297 0 b 578 222 481 0 550 65 b 594 318 578 221 594 318 b 517 511 613 417 589 479 b 644 676 589 535 629 585 l 658 757 b 429 996 683 906 617 996 l 168 996 l -7 0 z m 407 850 b 485 764 469 850 494 818 l 469 679 b 357 585 458 611 428 585 l 269 585 l 315 850 z m 332 435 b 417 340 408 435 428 407 l 400 253 b 286 156 388 181 361 156 l 194 156 l 243 435 z "},"C":{"ha":661,"x_min":0,"x_max":0,"o":"m 289 -15 b 600 292 481 -15 564 82 l 621 411 l 431 411 l 411 301 b 299 151 392 188 361 151 b 221 307 236 151 200 189 l 292 704 b 410 850 310 811 344 850 b 483 707 479 850 500 806 l 463 589 l 651 589 l 671 700 b 422 1010 707 901 608 1010 b 107 711 257 1010 146 935 l 36 315 b 289 -15 -1 110 71 -15 z "},"D":{"ha":671,"x_min":0,"x_max":0,"o":"m -7 0 l 258 0 b 601 296 444 0 565 90 l 664 654 b 417 996 704 871 597 996 l 168 996 z m 386 842 b 485 688 468 842 503 788 l 418 313 b 268 158 399 204 344 158 l 200 158 l 321 842 z "},"E":{"ha":572,"x_min":0,"x_max":0,"o":"m 497 168 l 200 168 l 244 422 l 497 422 l 526 586 l 274 586 l 317 833 l 604 833 l 633 996 l 168 996 l -7 0 l 468 0 z "},"F":{"ha":539,"x_min":0,"x_max":0,"o":"m 485 399 l 514 565 l 269 565 l 315 829 l 582 829 l 611 996 l 168 996 l -7 0 l 169 0 l 239 399 z "},"G":{"ha":672,"x_min":0,"x_max":0,"o":"m 419 0 l 544 0 l 638 536 l 356 536 l 329 382 l 438 382 l 424 301 b 297 151 403 189 360 151 b 219 307 229 151 199 193 l 290 704 b 406 850 308 813 342 850 b 481 706 479 850 499 807 l 468 633 l 656 633 l 667 704 b 422 1010 700 908 608 1010 b 106 711 256 1010 144 938 l 33 303 b 217 -15 -4 92 65 -15 b 422 144 319 -15 383 33 z "},"H":{"ha":676,"x_min":0,"x_max":0,"o":"m 364 0 l 543 0 l 718 996 l 539 996 l 467 585 l 275 585 l 347 996 l 168 996 l -7 0 l 172 0 l 244 414 l 436 414 z "},"I":{"ha":482,"x_min":0,"x_max":0,"o":"m 374 0 l 403 169 l 288 169 l 404 829 l 518 829 l 547 996 l 143 996 l 114 829 l 231 829 l 114 169 l -3 169 l -32 0 z "},"J":{"ha":614,"x_min":0,"x_max":0,"o":"m 243 -15 b 531 271 408 -15 494 65 l 658 996 l 472 996 l 346 272 b 254 153 331 188 308 153 b 194 258 197 153 182 189 l 218 394 l 32 394 l 14 286 b 243 -15 -19 97 44 -15 z "},"K":{"ha":676,"x_min":0,"x_max":0,"o":"m 332 457 l 394 0 l 589 0 l 489 611 l 485 636 l 749 996 l 544 996 l 276 622 l 282 644 l 343 996 l 168 996 l -7 0 l 169 0 l 239 401 l 332 528 z "},"L":{"ha":549,"x_min":0,"x_max":0,"o":"m 444 0 l 475 179 l 208 179 l 351 996 l 168 996 l -7 0 z "},"M":{"ha":789,"x_min":0,"x_max":0,"o":"m 253 529 l 269 740 l 281 611 l 356 290 l 399 290 l 585 613 l 642 739 l 582 535 l 488 0 l 656 0 l 829 996 l 667 996 l 422 567 l 421 564 l 421 565 l 329 996 l 168 996 l -7 0 l 161 0 z "},"N":{"ha":704,"x_min":0,"x_max":0,"o":"m 250 536 l 265 693 l 279 581 l 414 0 l 571 0 l 744 996 l 582 996 l 488 457 l 474 318 l 460 421 l 328 996 l 168 996 l -7 0 l 157 0 z "},"O":{"ha":678,"x_min":0,"x_max":0,"o":"m 294 -15 b 607 292 486 -15 569 86 l 675 678 b 422 1008 713 903 600 1008 b 103 701 257 1008 143 929 l 36 319 b 294 -15 1 124 76 -15 z m 303 151 b 219 303 238 151 199 189 l 290 700 b 413 849 310 808 344 849 b 494 703 481 849 511 806 l 422 297 b 303 151 403 188 368 151 z "},"P":{"ha":638,"x_min":0,"x_max":0,"o":"m 394 843 b 482 735 467 843 494 807 l 457 588 b 322 469 443 504 400 469 l 253 469 l 318 843 z m 307 313 b 629 554 507 313 600 393 l 660 719 b 428 996 688 888 617 996 l 168 996 l -7 0 l 169 0 l 225 313 z "},"Q":{"ha":678,"x_min":0,"x_max":0,"o":"m 531 -126 l 468 28 b 608 296 543 75 585 164 b 674 674 608 296 674 672 b 424 1008 715 911 600 1008 b 103 701 257 1008 143 929 b 38 324 103 700 38 324 b 293 -15 1 121 74 -15 l 326 -126 z m 303 151 b 221 306 239 151 200 189 l 290 700 b 410 849 310 808 346 849 b 493 699 479 849 513 813 l 424 301 b 303 151 404 189 368 151 z "},"R":{"ha":644,"x_min":0,"x_max":0,"o":"m 394 843 b 481 739 467 843 494 813 l 465 647 b 335 539 451 571 422 539 l 261 539 l 315 843 z m 304 381 b 385 278 379 381 397 347 l 349 75 b 357 0 343 40 343 11 l 546 0 b 529 74 528 15 524 39 l 567 279 b 490 460 583 372 568 431 b 636 625 579 482 621 533 l 654 726 b 429 996 685 901 613 996 l 168 996 l -7 0 l 167 0 l 233 381 z "},"S":{"ha":614,"x_min":0,"x_max":0,"o":"m 260 -15 b 553 236 442 -15 522 65 l 560 283 b 410 561 586 440 496 506 b 282 738 325 617 265 651 l 288 769 b 382 863 299 829 328 863 b 456 760 443 863 468 828 l 438 660 l 615 660 l 632 756 b 390 1011 658 908 575 1011 b 110 782 242 1011 136 939 l 103 742 b 253 458 75 576 168 513 b 379 275 326 411 396 369 l 372 239 b 272 144 363 183 339 144 b 193 258 210 144 179 178 l 213 375 l 28 375 l 7 264 b 260 -15 -26 89 53 -15 z "},"T":{"ha":563,"x_min":0,"x_max":0,"o":"m 611 832 l 640 996 l 132 996 l 103 832 l 268 832 l 122 0 l 301 0 l 447 832 z "},"U":{"ha":660,"x_min":0,"x_max":0,"o":"m 279 -15 b 581 285 465 -15 544 76 l 706 996 l 525 996 l 401 297 b 290 160 383 188 350 160 b 222 303 231 160 201 192 l 344 996 l 163 996 l 44 326 b 279 -15 7 111 67 -15 z "},"V":{"ha":646,"x_min":0,"x_max":0,"o":"m 346 0 l 736 996 l 551 996 l 332 401 l 297 260 l 313 401 l 297 996 l 118 996 l 165 0 z "},"W":{"ha":936,"x_min":0,"x_max":0,"o":"m 481 554 l 518 707 l 501 554 l 508 0 l 674 0 l 1022 996 l 849 996 l 665 442 l 621 254 l 635 431 l 628 996 l 508 996 l 297 431 l 249 263 l 274 442 l 294 996 l 124 996 l 106 0 l 271 0 z "},"X":{"ha":642,"x_min":0,"x_max":0,"o":"m 303 318 l 317 363 l 315 319 l 378 0 l 567 0 l 442 522 l 722 996 l 532 996 l 381 713 l 365 664 l 367 713 l 315 996 l 131 996 l 242 525 l -67 0 l 133 0 z "},"Y":{"ha":599,"x_min":0,"x_max":0,"o":"m 319 0 l 382 358 l 703 996 l 517 994 l 354 644 l 324 543 l 328 643 l 290 996 l 106 996 l 196 357 l 133 0 z "},"Z":{"ha":592,"x_min":0,"x_max":0,"o":"m 481 0 l 510 174 l 206 174 l 624 840 l 650 996 l 165 996 l 136 825 l 425 825 l -4 150 l -29 0 z "},"Á":{"ha":646,"x_min":0,"x_max":0,"o":"m 354 636 l 388 771 l 376 636 l 383 304 l 233 304 z m 390 0 l 567 0 l 514 996 l 335 996 l -61 0 l 124 0 l 176 147 l 388 147 z m 368 1065 l 497 1065 l 704 1281 l 529 1281 z "},"Ă":{"ha":646,"x_min":0,"x_max":0,"o":"m 354 636 l 388 771 l 376 636 l 383 304 l 233 304 z m 390 0 l 567 0 l 514 996 l 335 996 l -61 0 l 124 0 l 176 147 l 388 147 z m 449 1064 b 671 1278 586 1064 644 1133 l 551 1278 b 461 1176 539 1204 517 1178 b 403 1278 406 1178 389 1204 l 285 1278 b 449 1064 258 1133 308 1064 z "},"Â":{"ha":646,"x_min":0,"x_max":0,"o":"m 354 636 l 388 771 l 376 636 l 383 304 l 233 304 z m 390 0 l 567 0 l 514 996 l 335 996 l -61 0 l 124 0 l 176 147 l 388 147 z m 500 1063 l 629 1063 l 533 1292 l 419 1292 l 244 1063 l 378 1063 l 460 1178 z "},"Ä":{"ha":646,"x_min":0,"x_max":0,"o":"m 354 636 l 388 771 l 376 636 l 383 304 l 233 304 z m 390 0 l 567 0 l 514 996 l 335 996 l -61 0 l 124 0 l 176 147 l 388 147 z m 333 1060 b 429 1147 393 1060 417 1081 b 361 1239 440 1217 418 1239 b 265 1149 303 1239 278 1219 b 333 1060 254 1081 272 1060 z m 540 1060 b 636 1147 600 1060 625 1081 b 568 1239 649 1217 625 1239 b 474 1149 508 1239 486 1219 b 540 1060 461 1081 479 1060 z "},"À":{"ha":646,"x_min":0,"x_max":0,"o":"m 354 636 l 388 771 l 376 636 l 383 304 l 233 304 z m 390 0 l 567 0 l 514 996 l 335 996 l -61 0 l 124 0 l 176 147 l 388 147 z m 378 1065 l 500 1065 l 431 1281 l 257 1281 z "},"Ā":{"ha":646,"x_min":0,"x_max":0,"o":"m 354 636 l 388 771 l 376 636 l 383 304 l 233 304 z m 390 0 l 567 0 l 514 996 l 335 996 l -61 0 l 124 0 l 176 147 l 388 147 z m 285 1075 l 592 1075 l 614 1203 l 307 1203 z "},"Ʌ":{"ha":646,"x_min":0,"x_max":0,"o":"m 351 636 l 386 771 l 374 636 l 388 0 l 567 0 l 514 996 l 335 996 l -61 0 l 121 0 z "},"Ą":{"ha":646,"x_min":0,"x_max":0,"o":"m 646 -121 l 503 -121 b 444 -171 492 -154 472 -171 b 408 -135 418 -171 404 -160 b 565 0 413 -104 436 -82 l 567 0 l 514 996 l 335 996 l -61 0 l 124 0 l 176 147 l 388 147 l 390 7 b 278 -132 317 -42 289 -82 b 426 -281 261 -222 314 -281 b 646 -121 538 -281 604 -231 z m 354 636 l 388 771 l 376 636 l 383 304 l 233 304 z "},"Å":{"ha":646,"x_min":0,"x_max":0,"o":"m 354 636 l 388 771 l 376 636 l 383 304 l 233 304 z m 390 0 l 567 0 l 514 996 l 335 996 l -61 0 l 124 0 l 176 147 l 388 147 z m 442 1061 b 618 1199 535 1061 603 1107 b 475 1357 635 1289 576 1357 b 301 1218 390 1357 318 1307 b 442 1061 285 1126 342 1061 z m 453 1164 b 414 1210 424 1164 408 1183 b 465 1254 418 1238 436 1254 b 506 1207 494 1254 510 1235 b 453 1164 500 1179 482 1164 z "},"Ǻ":{"ha":646,"x_min":0,"x_max":0,"o":"m 404 1247 l 533 1247 l 740 1463 l 565 1463 z m 426 1003 b 388 1049 397 1003 382 1022 b 439 1093 392 1076 410 1093 b 479 1046 468 1093 483 1074 b 426 1003 474 1018 456 1003 z m 354 636 l 388 771 l 376 636 l 383 304 l 233 304 z m 390 0 l 567 0 l 518 925 b 592 1038 557 947 583 985 b 449 1196 608 1128 550 1196 b 275 1057 364 1196 292 1146 b 311 935 265 1006 279 963 l -61 0 l 124 0 l 176 147 l 388 147 z "},"Ã":{"ha":646,"x_min":0,"x_max":0,"o":"m 354 636 l 388 771 l 376 636 l 383 304 l 233 304 z m 390 0 l 567 0 l 514 996 l 335 996 l -61 0 l 124 0 l 176 147 l 388 147 z m 219 1064 l 329 1064 b 371 1129 338 1110 350 1129 b 529 1058 417 1129 449 1058 b 685 1256 622 1058 661 1117 l 575 1256 b 532 1193 567 1207 557 1193 b 374 1261 493 1193 453 1261 b 219 1064 281 1261 246 1201 z "},"Æ":{"ha":915,"x_min":0,"x_max":0,"o":"m 431 679 l 433 689 l 432 678 l 410 300 l 253 300 z m 392 0 l 804 0 l 833 167 l 563 167 l 575 425 l 844 425 l 874 586 l 583 586 l 596 836 l 943 836 l 971 996 l 415 996 l -71 0 l 111 0 l 182 150 l 400 150 z "},"Ǽ":{"ha":915,"x_min":0,"x_max":0,"o":"m 431 679 l 433 689 l 432 678 l 410 300 l 253 300 z m 392 0 l 804 0 l 833 167 l 563 167 l 575 425 l 844 425 l 874 586 l 583 586 l 596 836 l 943 836 l 971 996 l 415 996 l -71 0 l 111 0 l 182 150 l 400 150 z m 463 1065 l 592 1065 l 799 1281 l 624 1281 z "},"Ć":{"ha":661,"x_min":0,"x_max":0,"o":"m 289 -15 b 600 292 481 -15 564 82 l 621 411 l 431 411 l 411 301 b 299 151 392 188 361 151 b 221 307 236 151 200 189 l 292 704 b 410 850 310 811 344 850 b 483 707 479 850 500 806 l 463 589 l 651 589 l 671 700 b 422 1010 707 901 608 1010 b 107 711 257 1010 146 935 l 36 315 b 289 -15 -1 110 71 -15 z m 389 1081 l 518 1081 l 725 1296 l 550 1296 z "},"Č":{"ha":661,"x_min":0,"x_max":0,"o":"m 289 -15 b 600 292 481 -15 564 82 l 621 411 l 431 411 l 411 301 b 299 151 392 188 361 151 b 221 307 236 151 200 189 l 292 704 b 410 850 310 811 344 850 b 483 707 479 850 500 806 l 463 589 l 651 589 l 671 700 b 422 1010 707 901 608 1010 b 107 711 257 1010 146 935 l 36 315 b 289 -15 -1 110 71 -15 z m 513 1081 l 686 1310 l 554 1310 l 472 1194 l 433 1310 l 303 1310 l 397 1081 z "},"Ç":{"ha":661,"x_min":0,"x_max":0,"o":"m 219 -337 b 421 -206 336 -337 406 -292 b 307 -71 436 -121 393 -78 l 317 -14 b 600 292 489 -6 565 93 l 621 411 l 431 411 l 411 301 b 299 151 392 188 361 151 b 221 307 236 151 200 189 l 292 704 b 410 850 310 811 344 850 b 483 707 479 850 500 806 l 463 589 l 651 589 l 671 700 b 422 1010 707 901 608 1010 b 107 711 257 1010 146 935 l 36 315 b 203 -7 4 139 53 22 l 176 -153 l 242 -153 b 297 -194 285 -153 301 -168 b 229 -236 292 -219 269 -236 b 172 -187 190 -236 172 -221 l 32 -187 b 219 -337 38 -290 92 -337 z "},"Ĉ":{"ha":661,"x_min":0,"x_max":0,"o":"m 289 -15 b 600 292 481 -15 564 82 l 621 411 l 431 411 l 411 301 b 299 151 392 188 361 151 b 221 307 236 151 200 189 l 292 704 b 410 850 310 811 344 850 b 483 707 479 850 500 806 l 463 589 l 651 589 l 671 700 b 422 1010 707 901 608 1010 b 107 711 257 1010 146 935 l 36 315 b 289 -15 -1 110 71 -15 z m 521 1081 l 650 1081 l 554 1310 l 440 1310 l 265 1081 l 399 1081 l 481 1196 z "},"Ċ":{"ha":661,"x_min":0,"x_max":0,"o":"m 289 -15 b 600 292 481 -15 564 82 l 621 411 l 431 411 l 411 301 b 299 151 392 188 361 151 b 221 307 236 151 200 189 l 292 704 b 410 850 310 811 344 850 b 483 707 479 850 500 806 l 463 589 l 651 589 l 671 700 b 422 1010 707 901 608 1010 b 107 711 257 1010 146 935 l 36 315 b 289 -15 -1 110 71 -15 z m 457 1078 b 571 1179 528 1078 557 1097 b 489 1285 586 1261 554 1285 b 375 1182 414 1285 390 1264 b 457 1078 361 1104 389 1078 z "},"Ď":{"ha":671,"x_min":0,"x_max":0,"o":"m -7 0 l 258 0 b 601 296 444 0 565 90 l 664 654 b 417 996 704 871 597 996 l 168 996 z m 386 842 b 485 688 468 842 503 788 l 418 313 b 268 158 399 204 344 158 l 200 158 l 321 842 z m 506 1065 l 679 1294 l 547 1294 l 465 1179 l 426 1294 l 296 1294 l 390 1065 z "},"Đ":{"ha":685,"x_min":0,"x_max":0,"o":"m 271 0 b 614 296 458 0 579 90 l 678 654 b 431 996 718 871 610 996 l 182 996 l 108 581 l 40 581 l 11 419 l 81 419 l 7 0 z m 356 419 l 385 581 l 288 581 l 333 842 l 399 842 b 497 688 481 842 517 788 l 431 313 b 281 158 411 204 357 158 l 214 158 l 260 419 z "},"Ð":{"ha":685,"x_min":0,"x_max":0,"o":"m 271 0 b 614 296 458 0 579 90 l 678 654 b 431 996 718 871 610 996 l 182 996 l 108 581 l 40 581 l 11 419 l 81 419 l 7 0 z m 356 419 l 385 581 l 288 581 l 333 842 l 399 842 b 497 688 481 842 517 788 l 431 313 b 281 158 411 204 357 158 l 214 158 l 260 419 z "},"É":{"ha":572,"x_min":0,"x_max":0,"o":"m 497 168 l 200 168 l 244 422 l 497 422 l 526 586 l 274 586 l 317 833 l 604 833 l 633 996 l 168 996 l -7 0 l 468 0 z m 342 1065 l 471 1065 l 678 1281 l 503 1281 z "},"Ĕ":{"ha":572,"x_min":0,"x_max":0,"o":"m 497 168 l 200 168 l 244 422 l 497 422 l 526 586 l 274 586 l 317 833 l 604 833 l 633 996 l 168 996 l -7 0 l 468 0 z m 429 1064 b 651 1278 567 1064 625 1133 l 532 1278 b 442 1176 519 1204 497 1178 b 383 1278 386 1178 369 1204 l 265 1278 b 429 1064 239 1133 289 1064 z "},"Ě":{"ha":572,"x_min":0,"x_max":0,"o":"m 497 168 l 200 168 l 244 422 l 497 422 l 526 586 l 274 586 l 317 833 l 604 833 l 633 996 l 168 996 l -7 0 l 468 0 z m 475 1065 l 649 1294 l 517 1294 l 435 1179 l 396 1294 l 265 1294 l 360 1065 z "},"Ê":{"ha":572,"x_min":0,"x_max":0,"o":"m 497 168 l 200 168 l 244 422 l 497 422 l 526 586 l 274 586 l 317 833 l 604 833 l 633 996 l 168 996 l -7 0 l 468 0 z m 483 1065 l 613 1065 l 517 1294 l 403 1294 l 228 1065 l 361 1065 l 443 1181 z "},"Ë":{"ha":572,"x_min":0,"x_max":0,"o":"m 497 168 l 200 168 l 244 422 l 497 422 l 526 586 l 274 586 l 317 833 l 604 833 l 633 996 l 168 996 l -7 0 l 468 0 z m 318 1063 b 414 1150 378 1063 401 1083 b 346 1242 425 1219 403 1242 b 250 1151 288 1242 263 1222 b 318 1063 239 1083 257 1063 z m 525 1063 b 621 1150 585 1063 610 1083 b 553 1242 633 1219 610 1242 b 458 1151 493 1242 471 1222 b 525 1063 446 1083 464 1063 z "},"Ė":{"ha":572,"x_min":0,"x_max":0,"o":"m 497 168 l 200 168 l 244 422 l 497 422 l 526 586 l 274 586 l 317 833 l 604 833 l 633 996 l 168 996 l -7 0 l 468 0 z m 418 1064 b 532 1165 489 1064 518 1083 b 450 1271 547 1247 515 1271 b 336 1168 375 1271 351 1250 b 418 1064 322 1090 350 1064 z "},"È":{"ha":572,"x_min":0,"x_max":0,"o":"m 497 168 l 200 168 l 244 422 l 497 422 l 526 586 l 274 586 l 317 833 l 604 833 l 633 996 l 168 996 l -7 0 l 468 0 z m 364 1065 l 486 1065 l 417 1281 l 243 1281 z "},"Ē":{"ha":572,"x_min":0,"x_max":0,"o":"m 497 168 l 200 168 l 244 422 l 497 422 l 526 586 l 274 586 l 317 833 l 604 833 l 633 996 l 168 996 l -7 0 l 468 0 z m 271 1083 l 578 1083 l 600 1211 l 293 1211 z "},"Ę":{"ha":572,"x_min":0,"x_max":0,"o":"m 549 -121 l 406 -121 b 347 -171 394 -154 375 -171 b 311 -135 321 -171 307 -160 b 468 0 315 -104 339 -82 l 497 168 l 200 168 l 244 422 l 497 422 l 526 586 l 274 586 l 317 833 l 604 833 l 633 996 l 168 996 l -7 0 l 282 0 b 181 -132 217 -46 190 -85 b 329 -281 164 -222 217 -281 b 549 -121 440 -281 507 -231 z "},"Ğ":{"ha":672,"x_min":0,"x_max":0,"o":"m 419 0 l 544 0 l 638 536 l 356 536 l 329 382 l 438 382 l 424 301 b 297 151 403 189 360 151 b 219 307 229 151 199 193 l 290 704 b 406 850 308 813 342 850 b 481 706 479 850 499 807 l 468 633 l 656 633 l 667 704 b 422 1010 700 908 608 1010 b 106 711 256 1010 144 938 l 33 303 b 217 -15 -4 92 65 -15 b 422 144 319 -15 383 33 z m 472 1079 b 694 1293 610 1079 668 1149 l 575 1293 b 485 1192 563 1219 540 1193 b 426 1293 429 1193 413 1219 l 308 1293 b 472 1079 282 1149 332 1079 z "},"Ĝ":{"ha":672,"x_min":0,"x_max":0,"o":"m 419 0 l 544 0 l 638 536 l 356 536 l 329 382 l 438 382 l 424 301 b 297 151 403 189 360 151 b 219 307 229 151 199 193 l 290 704 b 406 850 308 813 342 850 b 481 706 479 850 499 807 l 468 633 l 656 633 l 667 704 b 422 1010 700 908 608 1010 b 106 711 256 1010 144 938 l 33 303 b 217 -15 -4 92 65 -15 b 422 144 319 -15 383 33 z m 526 1081 l 656 1081 l 560 1310 l 446 1310 l 271 1081 l 404 1081 l 486 1196 z "},"Ģ":{"ha":672,"x_min":0,"x_max":0,"o":"m 419 0 l 544 0 l 638 536 l 356 536 l 329 382 l 438 382 l 424 301 b 297 151 403 189 360 151 b 219 307 229 151 199 193 l 290 704 b 406 850 308 813 342 850 b 481 706 479 850 499 807 l 468 633 l 656 633 l 667 704 b 422 1010 700 908 608 1010 b 106 711 256 1010 144 938 l 33 303 b 217 -15 -4 92 65 -15 b 422 144 319 -15 383 33 z m 132 -390 b 326 -192 243 -383 306 -308 b 260 -72 343 -100 326 -72 b 157 -161 196 -72 168 -96 b 214 -244 144 -232 164 -244 b 226 -243 218 -244 222 -244 b 146 -311 214 -286 190 -307 z "},"Ġ":{"ha":672,"x_min":0,"x_max":0,"o":"m 419 0 l 544 0 l 638 536 l 356 536 l 329 382 l 438 382 l 424 301 b 297 151 403 189 360 151 b 219 307 229 151 199 193 l 290 704 b 406 850 308 813 342 850 b 481 706 479 850 499 807 l 468 633 l 656 633 l 667 704 b 422 1010 700 908 608 1010 b 106 711 256 1010 144 938 l 33 303 b 217 -15 -4 92 65 -15 b 422 144 319 -15 383 33 z m 465 1078 b 579 1179 536 1078 565 1097 b 497 1285 594 1261 563 1285 b 383 1182 422 1285 399 1264 b 465 1078 369 1104 397 1078 z "},"Ħ":{"ha":710,"x_min":0,"x_max":0,"o":"m 478 536 l 283 536 l 310 690 l 506 690 z m 385 0 l 564 0 l 685 690 l 753 690 l 779 835 l 710 835 l 738 996 l 558 996 l 531 835 l 336 835 l 364 996 l 183 996 l 156 835 l 85 835 l 60 690 l 131 690 l 10 0 l 189 0 l 257 386 l 451 386 z "},"Ĥ":{"ha":676,"x_min":0,"x_max":0,"o":"m 364 0 l 543 0 l 718 996 l 539 996 l 467 585 l 275 585 l 347 996 l 168 996 l -7 0 l 172 0 l 244 414 l 436 414 z m 519 1060 l 649 1060 l 553 1289 l 439 1289 l 264 1060 l 397 1060 l 479 1175 z "},"Í":{"ha":482,"x_min":0,"x_max":0,"o":"m 374 0 l 403 169 l 288 169 l 404 829 l 518 829 l 547 996 l 143 996 l 114 829 l 231 829 l 114 169 l -3 169 l -32 0 z m 289 1065 l 418 1065 l 625 1281 l 450 1281 z "},"Ĭ":{"ha":482,"x_min":0,"x_max":0,"o":"m 374 0 l 403 169 l 288 169 l 404 829 l 518 829 l 547 996 l 143 996 l 114 829 l 231 829 l 114 169 l -3 169 l -32 0 z m 368 1064 b 590 1278 506 1064 564 1133 l 471 1278 b 381 1176 458 1204 436 1178 b 322 1278 325 1178 308 1204 l 204 1278 b 368 1064 178 1133 228 1064 z "},"Î":{"ha":482,"x_min":0,"x_max":0,"o":"m 374 0 l 403 169 l 288 169 l 404 829 l 518 829 l 547 996 l 143 996 l 114 829 l 231 829 l 114 169 l -3 169 l -32 0 z m 424 1065 l 553 1065 l 457 1294 l 343 1294 l 168 1065 l 301 1065 l 383 1181 z "},"Ï":{"ha":482,"x_min":0,"x_max":0,"o":"m 374 0 l 403 169 l 288 169 l 404 829 l 518 829 l 547 996 l 143 996 l 114 829 l 231 829 l 114 169 l -3 169 l -32 0 z m 257 1063 b 353 1150 317 1063 340 1083 b 285 1242 364 1219 342 1242 b 189 1151 226 1242 201 1222 b 257 1063 178 1083 196 1063 z m 464 1063 b 560 1150 524 1063 549 1083 b 492 1242 572 1219 549 1242 b 397 1151 432 1242 410 1222 b 464 1063 385 1083 403 1063 z "},"İ":{"ha":482,"x_min":0,"x_max":0,"o":"m 374 0 l 403 169 l 288 169 l 404 829 l 518 829 l 547 996 l 143 996 l 114 829 l 231 829 l 114 169 l -3 169 l -32 0 z m 361 1063 b 475 1164 432 1063 461 1082 b 393 1269 490 1246 458 1269 b 279 1167 318 1269 294 1249 b 361 1063 265 1089 293 1063 z "},"Ì":{"ha":482,"x_min":0,"x_max":0,"o":"m 374 0 l 403 169 l 288 169 l 404 829 l 518 829 l 547 996 l 143 996 l 114 829 l 231 829 l 114 169 l -3 169 l -32 0 z m 299 1065 l 421 1065 l 351 1281 l 178 1281 z "},"Ī":{"ha":482,"x_min":0,"x_max":0,"o":"m 374 0 l 403 169 l 288 169 l 404 829 l 518 829 l 547 996 l 143 996 l 114 829 l 231 829 l 114 169 l -3 169 l -32 0 z m 211 1082 l 518 1082 l 540 1210 l 233 1210 z "},"Į":{"ha":482,"x_min":0,"x_max":0,"o":"m 454 -121 l 311 -121 b 253 -171 300 -154 281 -171 b 217 -135 226 -171 213 -160 b 374 0 221 -104 244 -82 l 403 169 l 288 169 l 404 829 l 518 829 l 547 996 l 143 996 l 114 829 l 231 829 l 114 169 l -3 169 l -32 0 l 188 0 b 86 -132 122 -46 96 -85 b 235 -281 69 -222 122 -281 b 454 -121 346 -281 413 -231 z "},"Ĩ":{"ha":482,"x_min":0,"x_max":0,"o":"m 374 0 l 403 169 l 288 169 l 404 829 l 518 829 l 547 996 l 143 996 l 114 829 l 231 829 l 114 169 l -3 169 l -32 0 z m 143 1067 l 253 1067 b 294 1132 261 1113 274 1132 b 453 1061 340 1132 372 1061 b 608 1258 546 1061 585 1119 l 499 1258 b 456 1196 490 1210 481 1196 b 297 1264 417 1196 376 1264 b 143 1067 204 1264 169 1204 z "},"Ĵ":{"ha":614,"x_min":0,"x_max":0,"o":"m 243 -15 b 531 271 408 -15 494 65 l 658 996 l 472 996 l 346 272 b 254 153 331 188 308 153 b 194 258 197 153 182 189 l 218 394 l 32 394 l 14 286 b 243 -15 -19 97 44 -15 z m 640 1065 l 769 1065 l 674 1294 l 560 1294 l 385 1065 l 518 1065 l 600 1181 z "},"Ķ":{"ha":676,"x_min":0,"x_max":0,"o":"m 332 457 l 394 0 l 589 0 l 489 611 l 485 636 l 749 996 l 544 996 l 276 622 l 282 644 l 343 996 l 168 996 l -7 0 l 169 0 l 239 401 l 332 528 z m 139 -369 b 333 -171 250 -362 313 -287 b 267 -51 350 -79 333 -51 b 164 -140 203 -51 175 -75 b 221 -224 151 -211 171 -224 b 233 -222 225 -224 229 -224 b 153 -290 221 -265 197 -286 z "},"Ĺ":{"ha":549,"x_min":0,"x_max":0,"o":"m 444 0 l 475 179 l 208 179 l 351 996 l 168 996 l -7 0 z m 203 1065 l 332 1065 l 539 1281 l 364 1281 z "},"Ľ":{"ha":549,"x_min":0,"x_max":0,"o":"m 444 0 l 475 179 l 208 179 l 351 996 l 168 996 l -7 0 z m 444 888 l 553 888 l 682 1100 l 536 1100 z "},"Ļ":{"ha":549,"x_min":0,"x_max":0,"o":"m 444 0 l 475 179 l 208 179 l 351 996 l 168 996 l -7 0 z m 86 -375 b 281 -176 197 -368 260 -293 b 214 -57 297 -85 281 -57 b 111 -146 150 -57 122 -81 b 168 -229 99 -217 118 -229 b 181 -228 172 -229 176 -229 b 100 -296 168 -271 144 -292 z "},"Ŀ":{"ha":576,"x_min":0,"x_max":0,"o":"m 472 0 l 503 179 l 208 179 l 351 996 l 168 996 l -7 0 z m 449 363 b 563 465 519 363 549 383 b 481 571 578 546 546 571 b 367 468 406 571 382 549 b 449 363 353 390 381 363 z "},"Ł":{"ha":564,"x_min":0,"x_max":0,"o":"m 458 0 l 489 179 l 224 179 l 275 475 l 422 508 l 419 647 l 300 619 l 367 996 l 183 996 l 110 576 l 13 554 l 17 415 l 83 431 l 8 0 z "},"Ń":{"ha":704,"x_min":0,"x_max":0,"o":"m 250 536 l 265 693 l 279 581 l 414 0 l 571 0 l 744 996 l 582 996 l 488 457 l 474 318 l 460 421 l 328 996 l 168 996 l -7 0 l 157 0 z m 399 1056 l 528 1056 l 735 1271 l 560 1271 z "},"Ň":{"ha":704,"x_min":0,"x_max":0,"o":"m 250 536 l 265 693 l 279 581 l 414 0 l 571 0 l 744 996 l 582 996 l 488 457 l 474 318 l 460 421 l 328 996 l 168 996 l -7 0 l 157 0 z m 522 1056 l 696 1285 l 564 1285 l 482 1169 l 443 1285 l 313 1285 l 407 1056 z "},"Ņ":{"ha":704,"x_min":0,"x_max":0,"o":"m 250 536 l 265 693 l 279 581 l 414 0 l 571 0 l 744 996 l 582 996 l 488 457 l 474 318 l 460 421 l 328 996 l 168 996 l -7 0 l 157 0 z m 142 -367 b 336 -168 253 -360 315 -285 b 269 -49 353 -76 336 -49 b 167 -137 206 -49 178 -72 b 224 -221 154 -208 174 -221 b 236 -219 228 -221 232 -221 b 156 -287 224 -262 200 -283 z "},"Ñ":{"ha":704,"x_min":0,"x_max":0,"o":"m 250 536 l 265 693 l 279 581 l 414 0 l 571 0 l 744 996 l 582 996 l 488 457 l 474 318 l 460 421 l 328 996 l 168 996 l -7 0 l 157 0 z m 260 1065 l 369 1065 b 411 1131 378 1111 390 1131 b 569 1060 457 1131 489 1060 b 725 1257 663 1060 701 1118 l 615 1257 b 572 1194 607 1208 597 1194 b 414 1263 533 1194 493 1263 b 260 1065 321 1263 286 1203 z "},"Ŋ":{"ha":704,"x_min":0,"x_max":0,"o":"m 313 -267 b 561 -51 488 -267 531 -225 l 744 996 l 581 996 l 489 472 l 474 324 l 461 419 l 328 996 l 168 996 l -7 0 l 157 0 l 250 538 l 265 688 l 278 581 l 410 18 l 401 -31 b 321 -104 390 -94 375 -104 l 271 -104 l 243 -267 z "},"Ó":{"ha":678,"x_min":0,"x_max":0,"o":"m 294 -15 b 607 292 486 -15 569 86 l 675 678 b 422 1008 713 903 600 1008 b 103 701 257 1008 143 929 l 36 319 b 294 -15 1 124 76 -15 z m 303 151 b 219 303 238 151 199 189 l 290 700 b 413 849 310 808 344 849 b 494 703 481 849 511 806 l 422 297 b 303 151 403 188 368 151 z m 376 1082 l 506 1082 l 713 1297 l 538 1297 z "},"Ŏ":{"ha":678,"x_min":0,"x_max":0,"o":"m 294 -15 b 607 292 486 -15 569 86 l 675 678 b 422 1008 713 903 600 1008 b 103 701 257 1008 143 929 l 36 319 b 294 -15 1 124 76 -15 z m 303 151 b 219 303 238 151 199 189 l 290 700 b 413 849 310 808 344 849 b 494 703 481 849 511 806 l 422 297 b 303 151 403 188 368 151 z m 472 1079 b 694 1293 610 1079 668 1149 l 575 1293 b 485 1192 563 1219 540 1193 b 426 1293 429 1193 413 1219 l 308 1293 b 472 1079 282 1149 332 1079 z "},"Ô":{"ha":678,"x_min":0,"x_max":0,"o":"m 294 -15 b 607 292 486 -15 569 86 l 675 678 b 422 1008 713 903 600 1008 b 103 701 257 1008 143 929 l 36 319 b 294 -15 1 124 76 -15 z m 303 151 b 219 303 238 151 199 189 l 290 700 b 413 849 310 808 344 849 b 494 703 481 849 511 806 l 422 297 b 303 151 403 188 368 151 z m 526 1081 l 656 1081 l 560 1310 l 446 1310 l 271 1081 l 404 1081 l 486 1196 z "},"Ö":{"ha":678,"x_min":0,"x_max":0,"o":"m 294 -15 b 607 292 486 -15 569 86 l 675 678 b 422 1008 713 903 600 1008 b 103 701 257 1008 143 929 l 36 319 b 294 -15 1 124 76 -15 z m 303 151 b 219 303 238 151 199 189 l 290 700 b 413 849 310 808 344 849 b 494 703 481 849 511 806 l 422 297 b 303 151 403 188 368 151 z m 358 1071 b 454 1158 418 1071 442 1092 b 386 1250 465 1228 443 1250 b 290 1160 328 1250 303 1231 b 358 1071 279 1092 297 1071 z m 565 1071 b 661 1158 625 1071 650 1092 b 593 1250 674 1228 650 1250 b 499 1160 533 1250 511 1231 b 565 1071 486 1092 504 1071 z "},"Ò":{"ha":678,"x_min":0,"x_max":0,"o":"m 294 -15 b 607 292 486 -15 569 86 l 675 678 b 422 1008 713 903 600 1008 b 103 701 257 1008 143 929 l 36 319 b 294 -15 1 124 76 -15 z m 303 151 b 219 303 238 151 199 189 l 290 700 b 413 849 310 808 344 849 b 494 703 481 849 511 806 l 422 297 b 303 151 403 188 368 151 z m 403 1081 l 525 1081 l 456 1296 l 282 1296 z "},"Ő":{"ha":678,"x_min":0,"x_max":0,"o":"m 294 -15 b 607 292 486 -15 569 86 l 675 678 b 422 1008 713 903 600 1008 b 103 701 257 1008 143 929 l 36 319 b 294 -15 1 124 76 -15 z m 303 151 b 219 303 238 151 199 189 l 290 700 b 413 849 310 808 344 849 b 494 703 481 849 511 806 l 422 297 b 303 151 403 188 368 151 z m 590 1296 l 443 1296 l 315 1081 l 419 1081 z m 788 1296 l 638 1296 l 499 1081 l 604 1081 z "},"Ō":{"ha":678,"x_min":0,"x_max":0,"o":"m 294 -15 b 607 292 486 -15 569 86 l 675 678 b 422 1008 713 903 600 1008 b 103 701 257 1008 143 929 l 36 319 b 294 -15 1 124 76 -15 z m 303 151 b 219 303 238 151 199 189 l 290 700 b 413 849 310 808 344 849 b 494 703 481 849 511 806 l 422 297 b 303 151 403 188 368 151 z m 308 1090 l 615 1090 l 638 1218 l 331 1218 z "},"Ø":{"ha":683,"x_min":0,"x_max":0,"o":"m 306 151 b 219 306 242 151 199 189 l 289 700 b 413 849 308 808 349 849 b 500 699 482 849 519 813 l 431 301 b 306 151 411 189 371 151 z m 296 -15 b 614 296 490 -15 576 85 b 681 674 614 296 681 672 b 615 950 704 808 676 897 l 690 1113 l 544 1113 l 496 1003 b 426 1008 474 1007 451 1008 b 103 701 260 1008 143 929 b 38 324 103 700 38 324 b 113 36 14 194 36 93 l 33 -136 l 183 -136 l 238 -11 b 296 -15 256 -14 275 -15 z "},"Ǿ":{"ha":683,"x_min":0,"x_max":0,"o":"m 306 151 b 219 306 242 151 199 189 l 289 700 b 413 849 308 808 349 849 b 500 699 482 849 519 813 l 431 301 b 306 151 411 189 371 151 z m 296 -15 b 614 296 490 -15 576 85 b 681 674 614 296 681 672 b 615 950 704 808 676 897 l 690 1113 l 544 1113 l 496 1003 b 426 1008 474 1007 451 1008 b 103 701 260 1008 143 929 b 38 324 103 700 38 324 b 113 36 14 194 36 93 l 33 -136 l 183 -136 l 238 -11 b 296 -15 256 -14 275 -15 z m 392 1135 l 521 1135 l 728 1350 l 553 1350 z "},"Õ":{"ha":678,"x_min":0,"x_max":0,"o":"m 294 -15 b 607 292 486 -15 569 86 l 675 678 b 422 1008 713 903 600 1008 b 103 701 257 1008 143 929 l 36 319 b 294 -15 1 124 76 -15 z m 303 151 b 219 303 238 151 199 189 l 290 700 b 413 849 310 808 344 849 b 494 703 481 849 511 806 l 422 297 b 303 151 403 188 368 151 z m 244 1082 l 354 1082 b 396 1147 363 1128 375 1147 b 554 1076 442 1147 474 1076 b 710 1274 647 1076 686 1135 l 600 1274 b 557 1211 592 1225 582 1211 b 399 1279 518 1211 478 1279 b 244 1082 306 1279 271 1219 z "},"Œ":{"ha":935,"x_min":0,"x_max":0,"o":"m 301 151 b 219 308 236 151 199 190 l 289 699 b 410 849 307 806 346 849 b 492 697 479 849 511 811 l 422 303 b 301 151 403 190 367 151 z m 365 0 l 831 0 l 858 167 l 569 167 l 615 425 l 871 425 l 900 586 l 644 586 l 689 836 l 968 836 l 996 996 l 539 996 l 528 936 b 389 1008 508 986 463 1008 b 104 704 242 1008 142 922 b 35 307 104 703 35 307 b 233 -14 -3 99 54 -14 b 375 58 300 -14 343 13 z "},"Ŕ":{"ha":644,"x_min":0,"x_max":0,"o":"m 394 843 b 481 739 467 843 494 813 l 465 647 b 335 539 451 571 422 539 l 261 539 l 315 843 z m 304 381 b 385 278 379 381 397 347 l 349 75 b 357 0 343 40 343 11 l 546 0 b 529 74 528 15 524 39 l 567 279 b 490 460 583 372 568 431 b 636 625 579 482 621 533 l 654 726 b 429 996 685 901 613 996 l 168 996 l -7 0 l 167 0 l 233 381 z m 368 1065 l 497 1065 l 704 1281 l 529 1281 z "},"Ř":{"ha":644,"x_min":0,"x_max":0,"o":"m 394 843 b 481 739 467 843 494 813 l 465 647 b 335 539 451 571 422 539 l 261 539 l 315 843 z m 304 381 b 385 278 379 381 397 347 l 349 75 b 357 0 343 40 343 11 l 546 0 b 529 74 528 15 524 39 l 567 279 b 490 460 583 372 568 431 b 636 625 579 482 621 533 l 654 726 b 429 996 685 901 613 996 l 168 996 l -7 0 l 167 0 l 233 381 z m 492 1065 l 665 1294 l 533 1294 l 451 1179 l 413 1294 l 282 1294 l 376 1065 z "},"Ŗ":{"ha":644,"x_min":0,"x_max":0,"o":"m 394 843 b 481 739 467 843 494 813 l 465 647 b 335 539 451 571 422 539 l 261 539 l 315 843 z m 304 381 b 385 278 379 381 397 347 l 349 75 b 357 0 343 40 343 11 l 546 0 b 529 74 528 15 524 39 l 567 279 b 490 460 583 372 568 431 b 636 625 579 482 621 533 l 654 726 b 429 996 685 901 613 996 l 168 996 l -7 0 l 167 0 l 233 381 z m 124 -371 b 318 -172 235 -364 297 -289 b 251 -53 335 -81 318 -53 b 149 -142 188 -53 160 -76 b 206 -225 136 -212 156 -225 b 218 -224 210 -225 214 -225 b 138 -292 206 -267 182 -287 z "},"Ś":{"ha":614,"x_min":0,"x_max":0,"o":"m 260 -15 b 553 236 442 -15 522 65 l 560 283 b 410 561 586 440 496 506 b 282 738 325 617 265 651 l 288 769 b 382 863 299 829 328 863 b 456 760 443 863 468 828 l 438 660 l 615 660 l 632 756 b 390 1011 658 908 575 1011 b 110 782 242 1011 136 939 l 103 742 b 253 458 75 576 168 513 b 379 275 326 411 396 369 l 372 239 b 272 144 363 183 339 144 b 193 258 210 144 179 178 l 213 375 l 28 375 l 7 264 b 260 -15 -26 89 53 -15 z m 356 1082 l 485 1082 l 692 1297 l 517 1297 z "},"Š":{"ha":614,"x_min":0,"x_max":0,"o":"m 260 -15 b 553 236 442 -15 522 65 l 560 283 b 410 561 586 440 496 506 b 282 738 325 617 265 651 l 288 769 b 382 863 299 829 328 863 b 456 760 443 863 468 828 l 438 660 l 615 660 l 632 756 b 390 1011 658 908 575 1011 b 110 782 242 1011 136 939 l 103 742 b 253 458 75 576 168 513 b 379 275 326 411 396 369 l 372 239 b 272 144 363 183 339 144 b 193 258 210 144 179 178 l 213 375 l 28 375 l 7 264 b 260 -15 -26 89 53 -15 z m 485 1082 l 658 1311 l 526 1311 l 444 1196 l 406 1311 l 275 1311 l 369 1082 z "},"Ş":{"ha":614,"x_min":0,"x_max":0,"o":"m 192 -337 b 393 -206 308 -337 378 -292 b 279 -71 408 -121 365 -78 l 289 -14 b 553 236 450 -6 524 75 l 560 283 b 410 561 586 440 496 506 b 282 738 325 617 265 651 l 288 769 b 382 863 299 829 328 863 b 456 760 443 863 468 828 l 438 660 l 615 660 l 632 756 b 390 1011 658 908 575 1011 b 110 782 242 1011 136 939 l 103 742 b 253 458 75 576 168 513 b 379 275 326 411 396 369 l 372 239 b 272 144 363 183 339 144 b 193 258 210 144 179 178 l 213 375 l 28 375 l 7 264 b 175 -8 -21 115 32 18 l 149 -153 l 214 -153 b 269 -194 257 -153 274 -168 b 201 -236 264 -219 242 -236 b 144 -187 163 -236 144 -221 l 4 -187 b 192 -337 10 -290 64 -337 z "},"Ŝ":{"ha":614,"x_min":0,"x_max":0,"o":"m 260 -15 b 553 236 442 -15 522 65 l 560 283 b 410 561 586 440 496 506 b 282 738 325 617 265 651 l 288 769 b 382 863 299 829 328 863 b 456 760 443 863 468 828 l 438 660 l 615 660 l 632 756 b 390 1011 658 908 575 1011 b 110 782 242 1011 136 939 l 103 742 b 253 458 75 576 168 513 b 379 275 326 411 396 369 l 372 239 b 272 144 363 183 339 144 b 193 258 210 144 179 178 l 213 375 l 28 375 l 7 264 b 260 -15 -26 89 53 -15 z m 493 1081 l 622 1081 l 526 1310 l 413 1310 l 238 1081 l 371 1081 l 453 1196 z "},"Ș":{"ha":614,"x_min":0,"x_max":0,"o":"m 260 -15 b 553 236 442 -15 522 65 l 560 283 b 410 561 586 440 496 506 b 282 738 325 617 265 651 l 288 769 b 382 863 299 829 328 863 b 456 760 443 863 468 828 l 438 660 l 615 660 l 632 756 b 390 1011 658 908 575 1011 b 110 782 242 1011 136 939 l 103 742 b 253 458 75 576 168 513 b 379 275 326 411 396 369 l 372 239 b 272 144 363 183 339 144 b 193 258 210 144 179 178 l 213 375 l 28 375 l 7 264 b 260 -15 -26 89 53 -15 z m 97 -396 b 292 -197 208 -389 271 -314 b 225 -78 308 -106 292 -78 b 122 -167 161 -78 133 -101 b 179 -250 110 -237 129 -250 b 192 -249 183 -250 188 -250 b 111 -317 179 -292 156 -312 z "},"Ŧ":{"ha":563,"x_min":0,"x_max":0,"o":"m 467 404 l 493 554 l 399 554 l 447 832 l 611 832 l 640 996 l 132 996 l 103 832 l 268 832 l 219 554 l 121 554 l 93 404 l 193 404 l 122 0 l 301 0 l 372 404 z "},"Ť":{"ha":563,"x_min":0,"x_max":0,"o":"m 611 832 l 640 996 l 132 996 l 103 832 l 268 832 l 122 0 l 301 0 l 447 832 z m 457 1065 l 631 1294 l 499 1294 l 417 1179 l 378 1294 l 247 1294 l 342 1065 z "},"Ţ":{"ha":563,"x_min":0,"x_max":0,"o":"m 611 832 l 640 996 l 132 996 l 103 832 l 268 832 l 122 0 l 301 0 l 447 832 z m 76 -382 b 271 -183 188 -375 250 -300 b 204 -64 288 -92 271 -64 b 101 -153 140 -64 113 -87 b 158 -236 89 -224 108 -236 b 171 -235 163 -236 167 -236 b 90 -303 158 -278 135 -299 z "},"Ú":{"ha":660,"x_min":0,"x_max":0,"o":"m 279 -15 b 581 285 465 -15 544 76 l 706 996 l 525 996 l 401 297 b 290 160 383 188 350 160 b 222 303 231 160 201 192 l 344 996 l 163 996 l 44 326 b 279 -15 7 111 67 -15 z m 379 1063 l 508 1063 l 715 1278 l 540 1278 z "},"Ŭ":{"ha":660,"x_min":0,"x_max":0,"o":"m 279 -15 b 581 285 465 -15 544 76 l 706 996 l 525 996 l 401 297 b 290 160 383 188 350 160 b 222 303 231 160 201 192 l 344 996 l 163 996 l 44 326 b 279 -15 7 111 67 -15 z m 454 1061 b 676 1275 592 1061 650 1131 l 557 1275 b 467 1174 544 1201 522 1175 b 408 1275 411 1175 394 1201 l 290 1275 b 454 1061 264 1131 314 1061 z "},"Û":{"ha":660,"x_min":0,"x_max":0,"o":"m 279 -15 b 581 285 465 -15 544 76 l 706 996 l 525 996 l 401 297 b 290 160 383 188 350 160 b 222 303 231 160 201 192 l 344 996 l 163 996 l 44 326 b 279 -15 7 111 67 -15 z m 511 1063 l 640 1063 l 544 1292 l 431 1292 l 256 1063 l 389 1063 l 471 1178 z "},"Ü":{"ha":660,"x_min":0,"x_max":0,"o":"m 279 -15 b 581 285 465 -15 544 76 l 706 996 l 525 996 l 401 297 b 290 160 383 188 350 160 b 222 303 231 160 201 192 l 344 996 l 163 996 l 44 326 b 279 -15 7 111 67 -15 z m 344 1060 b 440 1147 404 1060 428 1081 b 372 1239 451 1217 429 1239 b 276 1149 314 1239 289 1219 b 344 1060 265 1081 283 1060 z m 551 1060 b 647 1147 611 1060 636 1081 b 579 1239 660 1217 636 1239 b 485 1149 519 1239 497 1219 b 551 1060 472 1081 490 1060 z "},"Ù":{"ha":660,"x_min":0,"x_max":0,"o":"m 279 -15 b 581 285 465 -15 544 76 l 706 996 l 525 996 l 401 297 b 290 160 383 188 350 160 b 222 303 231 160 201 192 l 344 996 l 163 996 l 44 326 b 279 -15 7 111 67 -15 z m 388 1063 l 510 1063 l 440 1278 l 267 1278 z "},"Ű":{"ha":660,"x_min":0,"x_max":0,"o":"m 279 -15 b 581 285 465 -15 544 76 l 706 996 l 525 996 l 401 297 b 290 160 383 188 350 160 b 222 303 231 160 201 192 l 344 996 l 163 996 l 44 326 b 279 -15 7 111 67 -15 z m 572 1278 l 425 1278 l 297 1063 l 401 1063 z m 769 1278 l 619 1278 l 481 1063 l 586 1063 z "},"Ū":{"ha":660,"x_min":0,"x_max":0,"o":"m 279 -15 b 581 285 465 -15 544 76 l 706 996 l 525 996 l 401 297 b 290 160 383 188 350 160 b 222 303 231 160 201 192 l 344 996 l 163 996 l 44 326 b 279 -15 7 111 67 -15 z m 294 1072 l 601 1072 l 624 1200 l 317 1200 z "},"Ų":{"ha":660,"x_min":0,"x_max":0,"o":"m 261 -267 b 481 -107 372 -267 439 -217 l 338 -107 b 279 -157 326 -140 307 -157 b 243 -121 253 -157 239 -146 b 368 -7 247 -93 267 -72 b 581 285 492 21 551 113 l 706 996 l 525 996 l 401 297 b 290 160 383 188 350 160 b 222 303 231 160 201 192 l 344 996 l 163 996 l 44 326 b 188 -6 13 146 50 28 b 113 -118 142 -43 121 -78 b 261 -267 96 -208 149 -267 z "},"Ů":{"ha":660,"x_min":0,"x_max":0,"o":"m 279 -15 b 581 285 465 -15 544 76 l 706 996 l 525 996 l 401 297 b 290 160 383 188 350 160 b 222 303 231 160 201 192 l 344 996 l 163 996 l 44 326 b 279 -15 7 111 67 -15 z m 453 1047 b 629 1185 546 1047 614 1093 b 486 1343 646 1275 588 1343 b 313 1204 401 1343 329 1293 b 453 1047 296 1113 353 1047 z m 464 1150 b 425 1196 435 1150 419 1169 b 476 1240 429 1224 447 1240 b 517 1193 506 1240 521 1221 b 464 1150 511 1165 493 1150 z "},"Ũ":{"ha":660,"x_min":0,"x_max":0,"o":"m 279 -15 b 581 285 465 -15 544 76 l 706 996 l 525 996 l 401 297 b 290 160 383 188 350 160 b 222 303 231 160 201 192 l 344 996 l 163 996 l 44 326 b 279 -15 7 111 67 -15 z m 231 1064 l 340 1064 b 382 1129 349 1110 361 1129 b 540 1058 428 1129 460 1058 b 696 1256 633 1058 672 1117 l 586 1256 b 543 1193 578 1207 568 1193 b 385 1261 504 1193 464 1261 b 231 1064 292 1261 257 1201 z "},"Ẃ":{"ha":936,"x_min":0,"x_max":0,"o":"m 481 554 l 518 707 l 501 554 l 508 0 l 674 0 l 1022 996 l 849 996 l 665 442 l 621 254 l 635 431 l 628 996 l 508 996 l 297 431 l 249 263 l 274 442 l 294 996 l 124 996 l 106 0 l 271 0 z m 515 1065 l 644 1065 l 851 1281 l 676 1281 z "},"Ŵ":{"ha":936,"x_min":0,"x_max":0,"o":"m 481 554 l 518 707 l 501 554 l 508 0 l 674 0 l 1022 996 l 849 996 l 665 442 l 621 254 l 635 431 l 628 996 l 508 996 l 297 431 l 249 263 l 274 442 l 294 996 l 124 996 l 106 0 l 271 0 z m 647 1065 l 776 1065 l 681 1294 l 567 1294 l 392 1065 l 525 1065 l 607 1181 z "},"Ẅ":{"ha":936,"x_min":0,"x_max":0,"o":"m 481 554 l 518 707 l 501 554 l 508 0 l 674 0 l 1022 996 l 849 996 l 665 442 l 621 254 l 635 431 l 628 996 l 508 996 l 297 431 l 249 263 l 274 442 l 294 996 l 124 996 l 106 0 l 271 0 z m 481 1063 b 576 1150 540 1063 564 1083 b 508 1242 588 1219 565 1242 b 413 1151 450 1242 425 1222 b 481 1063 401 1083 419 1063 z m 688 1063 b 783 1150 747 1063 772 1083 b 715 1242 796 1219 772 1242 b 621 1151 656 1242 633 1222 b 688 1063 608 1083 626 1063 z "},"Ẁ":{"ha":936,"x_min":0,"x_max":0,"o":"m 481 554 l 518 707 l 501 554 l 508 0 l 674 0 l 1022 996 l 849 996 l 665 442 l 621 254 l 635 431 l 628 996 l 508 996 l 297 431 l 249 263 l 274 442 l 294 996 l 124 996 l 106 0 l 271 0 z m 524 1065 l 646 1065 l 576 1281 l 403 1281 z "},"Ý":{"ha":599,"x_min":0,"x_max":0,"o":"m 319 0 l 382 358 l 703 996 l 517 994 l 354 644 l 324 543 l 328 643 l 290 996 l 106 996 l 196 357 l 133 0 z m 351 1061 l 481 1061 l 688 1276 l 513 1276 z "},"Ŷ":{"ha":599,"x_min":0,"x_max":0,"o":"m 319 0 l 382 358 l 703 996 l 517 994 l 354 644 l 324 543 l 328 643 l 290 996 l 106 996 l 196 357 l 133 0 z m 483 1061 l 613 1061 l 517 1290 l 403 1290 l 228 1061 l 361 1061 l 443 1176 z "},"Ÿ":{"ha":599,"x_min":0,"x_max":0,"o":"m 319 0 l 382 358 l 703 996 l 517 994 l 354 644 l 324 543 l 328 643 l 290 996 l 106 996 l 196 357 l 133 0 z m 317 1058 b 413 1146 376 1058 400 1079 b 344 1238 424 1215 401 1238 b 249 1147 286 1238 261 1218 b 317 1058 238 1079 256 1058 z m 524 1058 b 619 1146 583 1058 608 1079 b 551 1238 632 1215 608 1238 b 457 1147 492 1238 469 1218 b 524 1058 444 1079 463 1058 z "},"Ỳ":{"ha":599,"x_min":0,"x_max":0,"o":"m 319 0 l 382 358 l 703 996 l 517 994 l 354 644 l 324 543 l 328 643 l 290 996 l 106 996 l 196 357 l 133 0 z m 361 1061 l 483 1061 l 414 1276 l 240 1276 z "},"Ĳ":{"ha":824,"x_min":0,"x_max":0,"o":"m 425 0 l 483 0 b 736 247 667 0 699 33 l 868 997 l 683 997 l 551 253 b 475 169 539 181 532 169 l 454 169 z m 368 0 l 397 169 l 288 169 l 404 829 l 517 829 l 546 996 l 143 996 l 114 829 l 231 829 l 114 169 l -3 169 l -32 0 z "},"Ź":{"ha":592,"x_min":0,"x_max":0,"o":"m 481 0 l 510 174 l 206 174 l 624 840 l 650 996 l 165 996 l 136 825 l 425 825 l -4 150 l -29 0 z m 350 1065 l 479 1065 l 686 1281 l 511 1281 z "},"Ž":{"ha":592,"x_min":0,"x_max":0,"o":"m 481 0 l 510 174 l 206 174 l 624 840 l 650 996 l 165 996 l 136 825 l 425 825 l -4 150 l -29 0 z m 474 1065 l 647 1294 l 515 1294 l 433 1179 l 394 1294 l 264 1294 l 358 1065 z "},"Ż":{"ha":592,"x_min":0,"x_max":0,"o":"m 481 0 l 510 174 l 206 174 l 624 840 l 650 996 l 165 996 l 136 825 l 425 825 l -4 150 l -29 0 z m 418 1063 b 532 1164 489 1063 518 1082 b 450 1269 547 1246 515 1269 b 336 1167 375 1269 351 1249 b 418 1063 322 1089 350 1063 z "},"Þ":{"ha":640,"x_min":0,"x_max":0,"o":"m 369 682 b 458 583 439 682 471 653 l 432 433 b 300 326 418 354 374 326 l 228 326 l 290 682 z m 286 169 b 603 403 478 169 574 238 l 632 567 b 403 836 660 735 589 836 l 318 836 l 346 996 l 169 996 l -6 0 l 171 0 l 200 169 z "},"a":{"ha":636,"x_min":0,"x_max":0,"o":"m 253 126 b 189 221 201 126 176 160 l 192 240 b 242 335 200 288 214 313 b 331 376 261 350 290 363 b 401 415 372 389 392 399 l 374 260 b 253 126 360 179 317 126 z m 483 0 l 554 0 l 582 158 l 569 158 b 533 215 529 158 525 168 l 592 549 b 368 817 625 735 542 817 b 83 583 203 817 110 731 l 71 515 l 247 515 l 257 574 b 358 676 269 649 300 676 b 431 585 417 676 439 644 l 428 572 b 285 467 419 519 388 499 b 111 399 208 442 161 428 b 8 233 58 367 24 319 l 4 214 b 163 -12 -24 67 29 -12 b 354 94 247 -12 313 21 b 483 0 356 25 392 0 z "},"b":{"ha":643,"x_min":0,"x_max":0,"o":"m 333 -11 b 571 268 454 -11 535 71 l 615 522 b 453 818 651 721 575 818 b 289 707 376 818 324 779 l 347 1042 l 172 1042 l -11 0 l 139 0 l 178 126 b 333 -11 186 36 235 -11 z m 289 143 b 211 276 222 143 196 190 l 258 539 b 364 665 272 621 304 665 b 438 519 426 665 456 622 l 394 274 b 289 143 378 185 346 143 z "},"c":{"ha":625,"x_min":0,"x_max":0,"o":"m 264 -14 b 550 226 429 -14 524 74 l 574 354 l 392 354 l 375 260 b 275 143 363 182 338 143 b 203 268 210 143 188 186 l 250 542 b 356 665 265 631 296 665 b 424 538 418 665 440 631 l 411 465 l 594 465 l 603 518 b 364 818 635 706 556 818 b 79 574 211 818 107 728 l 29 290 b 264 -14 -1 111 58 -14 z "},"d":{"ha":642,"x_min":0,"x_max":0,"o":"m 279 142 b 204 282 219 142 186 181 l 247 529 b 357 665 264 621 297 665 b 432 529 422 665 449 621 l 385 263 b 279 142 371 185 338 142 z m 365 0 l 513 0 l 694 1042 l 521 1042 l 461 710 b 307 817 444 779 392 817 b 72 538 188 815 106 729 l 29 293 b 200 -11 -10 75 68 -11 b 367 101 279 -11 333 29 z "},"e":{"ha":628,"x_min":0,"x_max":0,"o":"m 244 536 b 357 668 260 625 290 668 b 436 532 425 668 454 626 l 425 475 l 233 475 z m 551 222 l 563 279 l 385 279 l 381 254 b 276 140 368 179 343 140 b 199 275 206 140 182 182 l 213 353 l 576 353 l 606 522 b 364 818 639 708 550 818 b 78 567 208 818 106 725 l 29 290 b 267 -14 -1 111 61 -14 b 551 222 433 -14 519 61 z "},"f":{"ha":414,"x_min":0,"x_max":0,"o":"m 439 647 l 468 807 l 353 807 l 360 850 b 440 931 371 913 385 931 l 489 931 l 517 1085 l 440 1085 b 189 865 292 1085 217 1025 l 179 807 l 88 807 l 58 647 l 151 647 l 38 0 l 210 0 l 324 647 z "},"g":{"ha":642,"x_min":0,"x_max":0,"o":"m 283 163 b 208 303 222 163 190 201 l 247 529 b 357 665 264 621 297 665 b 432 529 422 665 449 621 l 388 283 b 283 163 374 206 342 163 z m 217 -275 b 506 -29 392 -275 478 -192 l 653 807 l 507 807 l 468 693 b 307 817 454 775 401 817 b 74 538 186 817 106 729 l 33 314 b 203 10 -6 96 71 10 b 357 119 278 10 326 51 l 336 -8 b 228 -128 321 -93 290 -128 b 156 -54 169 -128 156 -101 l 157 -50 l -19 -50 l -21 -54 b 217 -275 -32 -187 38 -275 z "},"h":{"ha":638,"x_min":0,"x_max":0,"o":"m 260 536 b 365 661 274 614 304 661 b 429 546 428 661 440 617 l 333 0 l 513 0 l 613 572 b 460 817 642 736 582 817 b 288 690 382 817 324 774 l 349 1042 l 172 1042 l -11 0 l 165 0 z "},"i":{"ha":301,"x_min":0,"x_max":0,"o":"m 236 853 b 354 954 310 853 340 875 b 265 1058 368 1032 339 1058 b 146 957 190 1058 160 1036 b 236 853 132 881 157 853 z m -11 0 l 171 0 l 313 804 b 221 792 301 797 251 792 b 131 804 192 792 140 796 z "},"j":{"ha":306,"x_min":0,"x_max":0,"o":"m 239 853 b 357 954 313 853 343 875 b 268 1058 371 1032 342 1058 b 149 957 193 1058 163 1036 b 239 853 135 881 160 853 z m -168 -275 l -87 -275 b 164 -60 75 -275 135 -224 l 315 804 b 225 792 304 797 256 792 b 135 804 196 792 144 796 l -12 -31 b -89 -106 -24 -93 -37 -106 l -139 -106 z "},"k":{"ha":621,"x_min":0,"x_max":0,"o":"m 299 379 l 367 0 l 549 0 l 447 501 l 685 807 l 485 807 l 271 529 l 247 490 l 256 528 l 346 1042 l 172 1042 l -11 0 l 163 0 l 214 293 l 300 415 z "},"l":{"ha":297,"x_min":0,"x_max":0,"o":"m -11 0 l 167 0 l 350 1042 l 172 1042 z "},"m":{"ha":951,"x_min":0,"x_max":0,"o":"m 260 536 b 357 665 274 615 297 665 b 414 546 421 665 426 617 l 319 0 l 496 0 l 590 539 b 688 661 604 618 628 661 b 744 546 751 661 757 617 l 650 0 l 828 0 b 928 572 828 0 921 536 b 776 817 956 736 896 817 b 601 696 699 817 640 774 b 446 821 592 776 538 821 b 274 696 371 821 313 776 l 275 807 l 131 807 l -11 0 l 165 0 z "},"n":{"ha":639,"x_min":0,"x_max":0,"o":"m 263 536 b 367 661 276 614 306 661 b 431 546 429 661 442 617 l 335 0 l 514 0 l 614 572 b 456 817 643 736 576 817 b 276 693 374 817 314 772 l 278 807 l 131 807 l -11 0 l 168 0 z "},"o":{"ha":631,"x_min":0,"x_max":0,"o":"m 264 -14 b 551 229 428 -14 525 74 l 601 517 b 363 818 633 701 551 818 b 79 572 208 818 106 726 l 29 290 b 264 -14 -1 114 65 -14 z m 278 143 b 201 265 215 143 188 185 l 253 556 b 354 665 265 632 299 665 b 429 542 415 665 444 628 l 381 258 b 278 143 368 182 336 143 z "},"p":{"ha":642,"x_min":0,"x_max":0,"o":"m 288 143 b 211 276 221 143 194 190 l 257 539 b 364 665 272 621 304 665 b 436 519 425 665 456 622 l 393 274 b 288 143 376 185 344 143 z m 333 -11 b 569 268 453 -11 535 71 l 614 522 b 450 818 651 721 575 818 b 276 696 364 818 308 771 l 276 807 l 131 807 l -57 -258 l 117 -258 l 182 115 b 333 -11 192 31 240 -11 z "},"q":{"ha":642,"x_min":0,"x_max":0,"o":"m 467 -258 l 654 807 l 507 807 l 468 693 b 307 817 454 775 401 817 b 72 538 186 817 104 729 l 29 293 b 200 -11 -11 75 68 -11 b 353 96 274 -11 322 29 l 292 -258 z m 279 142 b 204 282 219 142 186 181 l 247 529 b 357 665 264 621 297 665 b 432 529 422 665 449 621 l 385 263 b 279 142 371 185 338 142 z "},"r":{"ha":426,"x_min":0,"x_max":0,"o":"m 164 0 l 246 469 b 396 615 265 579 293 615 l 444 615 l 479 815 l 453 815 b 261 660 340 815 292 778 l 260 807 l 131 807 l -11 0 z "},"s":{"ha":581,"x_min":0,"x_max":0,"o":"m 243 -14 b 524 211 408 -14 499 60 l 525 221 b 372 472 553 374 458 428 b 247 610 301 508 235 538 l 249 614 b 336 679 256 653 282 679 b 406 586 392 679 417 649 l 399 543 l 568 543 l 574 578 b 342 821 599 735 521 821 b 78 626 186 821 100 742 l 76 617 b 225 364 47 463 139 408 b 349 224 296 326 363 297 l 349 218 b 256 138 340 168 314 138 b 178 231 194 138 167 168 l 189 296 l 10 296 l -1 238 b 243 -14 -32 76 44 -14 z "},"t":{"ha":426,"x_min":0,"x_max":0,"o":"m 358 171 l 329 171 b 258 281 260 171 240 182 l 321 636 l 442 636 l 471 807 l 351 807 l 378 958 l 250 958 b 219 868 240 921 233 896 b 164 811 204 839 189 824 b 86 796 142 800 113 797 l 58 636 l 153 636 l 83 242 b 258 0 50 51 93 0 l 329 0 z "},"u":{"ha":629,"x_min":0,"x_max":0,"o":"m 356 0 l 500 0 l 642 807 l 464 807 l 369 275 b 269 146 354 189 322 146 b 213 265 208 146 200 193 l 307 807 l 128 807 l 29 247 b 183 -11 -1 75 51 -11 b 356 111 263 -11 319 32 z "},"v":{"ha":592,"x_min":0,"x_max":0,"o":"m 313 0 l 654 807 l 475 807 l 299 350 l 257 192 l 269 350 l 257 807 l 81 807 l 138 0 z "},"w":{"ha":861,"x_min":0,"x_max":0,"o":"m 415 421 l 449 543 l 436 422 l 454 0 l 621 0 l 929 807 l 758 807 l 593 344 l 560 199 l 569 347 l 553 807 l 442 807 l 257 347 l 210 206 l 233 347 l 246 807 l 76 807 l 75 0 l 246 0 z "},"x":{"ha":610,"x_min":0,"x_max":0,"o":"m 271 240 l 288 293 l 288 240 l 347 0 l 532 0 l 411 425 l 656 807 l 468 807 l 343 588 l 329 540 l 329 589 l 283 807 l 99 807 l 210 425 l -62 0 l 129 0 z "},"y":{"ha":600,"x_min":0,"x_max":0,"o":"m 14 -249 b 296 -46 178 -249 224 -214 l 663 807 l 485 807 l 313 375 l 272 222 l 288 372 l 261 807 l 83 807 l 161 36 l 143 -8 b 25 -82 117 -71 94 -82 l -43 -82 l -72 -249 z "},"z":{"ha":535,"x_min":0,"x_max":0,"o":"m -36 -1 l 431 0 l 460 160 l 203 160 l 544 661 l 571 807 l 121 807 l 93 651 l 347 651 l -11 139 z "},"á":{"ha":635,"x_min":0,"x_max":0,"o":"m 251 126 b 188 221 200 126 175 160 l 190 240 b 240 335 199 288 213 313 b 329 376 260 350 289 363 b 400 415 371 389 390 399 l 372 260 b 251 126 358 179 315 126 z m 482 0 l 553 0 l 581 158 l 568 158 b 532 215 528 158 524 168 l 590 549 b 367 817 624 735 540 817 b 82 583 201 817 108 731 l 69 515 l 246 515 l 256 574 b 357 676 268 649 299 676 b 429 585 415 676 438 644 l 426 572 b 283 467 418 519 386 499 b 110 399 207 442 160 428 b 7 233 57 367 22 319 l 3 214 b 161 -12 -25 67 28 -12 b 353 94 246 -12 311 21 b 482 0 354 25 390 0 z m 326 886 l 456 886 l 663 1101 l 488 1101 z "},"ă":{"ha":635,"x_min":0,"x_max":0,"o":"m 251 126 b 188 221 200 126 175 160 l 190 240 b 240 335 199 288 213 313 b 329 376 260 350 289 363 b 400 415 371 389 390 399 l 372 260 b 251 126 358 179 315 126 z m 482 0 l 553 0 l 581 158 l 568 158 b 532 215 528 158 524 168 l 590 549 b 367 817 624 735 540 817 b 82 583 201 817 108 731 l 69 515 l 246 515 l 256 574 b 357 676 268 649 299 676 b 429 585 415 676 438 644 l 426 572 b 283 467 418 519 386 499 b 110 399 207 442 160 428 b 7 233 57 367 22 319 l 3 214 b 161 -12 -25 67 28 -12 b 353 94 246 -12 311 21 b 482 0 354 25 390 0 z m 411 885 b 633 1099 549 885 607 954 l 514 1099 b 424 997 501 1025 479 999 b 365 1099 368 999 351 1025 l 247 1099 b 411 885 221 954 271 885 z "},"â":{"ha":635,"x_min":0,"x_max":0,"o":"m 251 126 b 188 221 200 126 175 160 l 190 240 b 240 335 199 288 213 313 b 329 376 260 350 289 363 b 400 415 371 389 390 399 l 372 260 b 251 126 358 179 315 126 z m 482 0 l 553 0 l 581 158 l 568 158 b 532 215 528 158 524 168 l 590 549 b 367 817 624 735 540 817 b 82 583 201 817 108 731 l 69 515 l 246 515 l 256 574 b 357 676 268 649 299 676 b 429 585 415 676 438 644 l 426 572 b 283 467 418 519 386 499 b 110 399 207 442 160 428 b 7 233 57 367 22 319 l 3 214 b 161 -12 -25 67 28 -12 b 353 94 246 -12 311 21 b 482 0 354 25 390 0 z m 468 886 l 597 886 l 501 1115 l 388 1115 l 213 886 l 346 886 l 428 1001 z "},"ä":{"ha":635,"x_min":0,"x_max":0,"o":"m 251 126 b 188 221 200 126 175 160 l 190 240 b 240 335 199 288 213 313 b 329 376 260 350 289 363 b 400 415 371 389 390 399 l 372 260 b 251 126 358 179 315 126 z m 482 0 l 553 0 l 581 158 l 568 158 b 532 215 528 158 524 168 l 590 549 b 367 817 624 735 540 817 b 82 583 201 817 108 731 l 69 515 l 246 515 l 256 574 b 357 676 268 649 299 676 b 429 585 415 676 438 644 l 426 572 b 283 467 418 519 386 499 b 110 399 207 442 160 428 b 7 233 57 367 22 319 l 3 214 b 161 -12 -25 67 28 -12 b 353 94 246 -12 311 21 b 482 0 354 25 390 0 z m 301 883 b 397 971 361 883 385 904 b 329 1063 408 1040 386 1063 b 233 972 271 1063 246 1043 b 301 883 222 904 240 883 z m 508 883 b 604 971 568 883 593 904 b 536 1063 617 1040 593 1063 b 442 972 476 1063 454 1043 b 508 883 429 904 447 883 z "},"à":{"ha":635,"x_min":0,"x_max":0,"o":"m 251 126 b 188 221 200 126 175 160 l 190 240 b 240 335 199 288 213 313 b 329 376 260 350 289 363 b 400 415 371 389 390 399 l 372 260 b 251 126 358 179 315 126 z m 482 0 l 553 0 l 581 158 l 568 158 b 532 215 528 158 524 168 l 590 549 b 367 817 624 735 540 817 b 82 583 201 817 108 731 l 69 515 l 246 515 l 256 574 b 357 676 268 649 299 676 b 429 585 415 676 438 644 l 426 572 b 283 467 418 519 386 499 b 110 399 207 442 160 428 b 7 233 57 367 22 319 l 3 214 b 161 -12 -25 67 28 -12 b 353 94 246 -12 311 21 b 482 0 354 25 390 0 z m 344 886 l 467 886 l 397 1101 l 224 1101 z "},"ā":{"ha":635,"x_min":0,"x_max":0,"o":"m 251 126 b 188 221 200 126 175 160 l 190 240 b 240 335 199 288 213 313 b 329 376 260 350 289 363 b 400 415 371 389 390 399 l 372 260 b 251 126 358 179 315 126 z m 482 0 l 553 0 l 581 158 l 568 158 b 532 215 528 158 524 168 l 590 549 b 367 817 624 735 540 817 b 82 583 201 817 108 731 l 69 515 l 246 515 l 256 574 b 357 676 268 649 299 676 b 429 585 415 676 438 644 l 426 572 b 283 467 418 519 386 499 b 110 399 207 442 160 428 b 7 233 57 367 22 319 l 3 214 b 161 -12 -25 67 28 -12 b 353 94 246 -12 311 21 b 482 0 354 25 390 0 z m 251 896 l 558 896 l 581 1024 l 274 1024 z "},"ą":{"ha":635,"x_min":0,"x_max":0,"o":"m 417 -281 b 636 -121 528 -281 594 -231 l 493 -121 b 435 -171 482 -154 463 -171 b 399 -135 408 -171 394 -160 b 556 0 403 -104 426 -82 l 553 1 l 581 158 l 568 158 b 532 215 528 158 524 168 l 590 549 b 367 817 624 735 540 817 b 82 583 201 817 108 731 l 69 515 l 246 515 l 256 574 b 357 676 268 649 299 676 b 429 585 415 676 438 644 l 426 572 b 283 467 418 519 386 499 b 110 399 207 442 160 428 b 7 233 57 367 22 319 l 3 214 b 161 -12 -25 67 28 -12 b 353 94 246 -12 311 21 b 393 15 354 54 365 29 b 268 -132 310 -36 279 -79 b 417 -281 251 -222 304 -281 z m 251 126 b 188 221 200 126 175 160 l 190 240 b 240 335 199 288 213 313 b 329 376 260 350 289 363 b 400 415 371 389 390 399 l 372 260 b 251 126 358 179 315 126 z "},"å":{"ha":635,"x_min":0,"x_max":0,"o":"m 251 126 b 188 221 200 126 175 160 l 190 240 b 240 335 199 288 213 313 b 329 376 260 350 289 363 b 400 415 371 389 390 399 l 372 260 b 251 126 358 179 315 126 z m 482 0 l 553 0 l 581 158 l 568 158 b 532 215 528 158 524 168 l 590 549 b 367 817 624 735 540 817 b 82 583 201 817 108 731 l 69 515 l 246 515 l 256 574 b 357 676 268 649 299 676 b 429 585 415 676 438 644 l 426 572 b 283 467 418 519 386 499 b 110 399 207 442 160 428 b 7 233 57 367 22 319 l 3 214 b 161 -12 -25 67 28 -12 b 353 94 246 -12 311 21 b 482 0 354 25 390 0 z m 410 888 b 586 1025 503 888 571 933 b 443 1183 603 1115 544 1183 b 269 1044 358 1183 286 1133 b 410 888 253 953 310 888 z m 421 990 b 382 1036 392 990 376 1010 b 433 1081 386 1064 404 1081 b 474 1033 463 1081 478 1061 b 421 990 468 1006 450 990 z "},"ǻ":{"ha":635,"x_min":0,"x_max":0,"o":"m 251 126 b 188 221 200 126 175 160 l 190 240 b 240 335 199 288 213 313 b 329 376 260 350 289 363 b 400 415 371 389 390 399 l 372 260 b 251 126 358 179 315 126 z m 482 0 l 553 0 l 581 158 l 568 158 b 532 215 528 158 524 168 l 590 549 b 367 817 624 735 540 817 b 82 583 201 817 108 731 l 69 515 l 246 515 l 256 574 b 357 676 268 649 299 676 b 429 585 415 676 438 644 l 426 572 b 283 467 418 519 386 499 b 110 399 207 442 160 428 b 7 233 57 367 22 319 l 3 214 b 161 -12 -25 67 28 -12 b 353 94 246 -12 311 21 b 482 0 354 25 390 0 z m 410 868 b 586 1006 503 868 571 914 b 443 1164 603 1096 544 1164 b 269 1025 358 1164 286 1114 b 410 868 253 933 310 868 z m 421 971 b 382 1017 392 971 376 990 b 433 1061 386 1044 404 1061 b 474 1014 463 1061 478 1042 b 421 971 468 986 450 971 z m 397 1204 l 526 1204 l 733 1419 l 558 1419 z "},"ã":{"ha":635,"x_min":0,"x_max":0,"o":"m 251 126 b 188 221 200 126 175 160 l 190 240 b 240 335 199 288 213 313 b 329 376 260 350 289 363 b 400 415 371 389 390 399 l 372 260 b 251 126 358 179 315 126 z m 482 0 l 553 0 l 581 158 l 568 158 b 532 215 528 158 524 168 l 590 549 b 367 817 624 735 540 817 b 82 583 201 817 108 731 l 69 515 l 246 515 l 256 574 b 357 676 268 649 299 676 b 429 585 415 676 438 644 l 426 572 b 283 467 418 519 386 499 b 110 399 207 442 160 428 b 7 233 57 367 22 319 l 3 214 b 161 -12 -25 67 28 -12 b 353 94 246 -12 311 21 b 482 0 354 25 390 0 z m 188 888 l 297 888 b 339 953 306 933 318 953 b 497 882 385 953 417 882 b 653 1079 590 882 629 940 l 543 1079 b 500 1017 535 1031 525 1017 b 342 1085 461 1017 421 1085 b 188 888 249 1085 214 1025 z "},"æ":{"ha":972,"x_min":0,"x_max":0,"o":"m 592 536 b 704 668 607 625 638 668 b 783 532 772 668 801 626 l 772 475 l 581 475 z m 253 126 b 189 221 201 126 176 160 l 192 240 b 238 332 200 288 213 311 b 326 375 256 349 285 363 b 403 419 369 389 392 401 l 374 260 b 253 126 360 179 317 126 z m 899 222 l 910 279 l 732 279 l 728 254 b 624 140 715 179 690 140 b 546 275 553 140 529 182 l 560 353 l 924 353 l 953 522 b 718 818 986 708 897 818 b 542 750 644 818 586 793 b 368 817 508 794 451 817 b 83 583 203 817 110 731 l 69 507 l 246 507 l 257 574 b 358 676 269 649 300 676 b 431 585 417 676 439 644 l 428 572 b 286 467 419 519 389 497 b 94 389 199 440 146 425 b 8 233 51 358 22 311 l 4 214 b 163 -12 -24 67 29 -12 b 388 117 263 -12 343 26 b 614 -14 408 32 476 -14 b 899 222 781 -14 867 61 z "},"ǽ":{"ha":972,"x_min":0,"x_max":0,"o":"m 592 536 b 704 668 607 625 638 668 b 783 532 772 668 801 626 l 772 475 l 581 475 z m 253 126 b 189 221 201 126 176 160 l 192 240 b 238 332 200 288 213 311 b 326 375 256 349 285 363 b 403 419 369 389 392 401 l 374 260 b 253 126 360 179 317 126 z m 899 222 l 910 279 l 732 279 l 728 254 b 624 140 715 179 690 140 b 546 275 553 140 529 182 l 560 353 l 924 353 l 953 522 b 718 818 986 708 897 818 b 542 750 644 818 586 793 b 368 817 508 794 451 817 b 83 583 203 817 110 731 l 69 507 l 246 507 l 257 574 b 358 676 269 649 300 676 b 431 585 417 676 439 644 l 428 572 b 286 467 419 519 389 497 b 94 389 199 440 146 425 b 8 233 51 358 22 311 l 4 214 b 163 -12 -24 67 29 -12 b 388 117 263 -12 343 26 b 614 -14 408 32 476 -14 b 899 222 781 -14 867 61 z m 483 863 l 613 863 l 819 1078 l 644 1078 z "},"ć":{"ha":625,"x_min":0,"x_max":0,"o":"m 264 -14 b 550 226 429 -14 524 74 l 574 354 l 392 354 l 375 260 b 275 143 363 182 338 143 b 203 268 210 143 188 186 l 250 542 b 356 665 265 631 296 665 b 424 538 418 665 440 631 l 411 465 l 594 465 l 603 518 b 364 818 635 706 556 818 b 79 574 211 818 107 728 l 29 290 b 264 -14 -1 111 58 -14 z m 338 888 l 467 888 l 674 1103 l 499 1103 z "},"č":{"ha":625,"x_min":0,"x_max":0,"o":"m 264 -14 b 550 226 429 -14 524 74 l 574 354 l 392 354 l 375 260 b 275 143 363 182 338 143 b 203 268 210 143 188 186 l 250 542 b 356 665 265 631 296 665 b 424 538 418 665 440 631 l 411 465 l 594 465 l 603 518 b 364 818 635 706 556 818 b 79 574 211 818 107 728 l 29 290 b 264 -14 -1 111 58 -14 z m 461 888 l 635 1117 l 503 1117 l 421 1001 l 382 1117 l 251 1117 l 346 888 z "},"ç":{"ha":625,"x_min":0,"x_max":0,"o":"m 201 -337 b 403 -206 318 -337 388 -292 b 289 -71 418 -121 375 -78 l 300 -12 b 550 226 443 0 525 85 l 574 354 l 392 354 l 375 260 b 275 143 363 182 338 143 b 203 268 210 143 188 186 l 250 542 b 356 665 265 631 296 665 b 424 538 418 665 440 631 l 411 465 l 594 465 l 603 518 b 364 818 635 706 556 818 b 79 574 211 818 107 728 l 29 290 b 185 -7 3 136 43 22 l 158 -153 l 224 -153 b 279 -194 267 -153 283 -168 b 211 -236 274 -219 251 -236 b 154 -187 172 -236 154 -221 l 14 -187 b 201 -337 19 -290 74 -337 z "},"ĉ":{"ha":625,"x_min":0,"x_max":0,"o":"m 264 -14 b 550 226 429 -14 524 74 l 574 354 l 392 354 l 375 260 b 275 143 363 182 338 143 b 203 268 210 143 188 186 l 250 542 b 356 665 265 631 296 665 b 424 538 418 665 440 631 l 411 465 l 594 465 l 603 518 b 364 818 635 706 556 818 b 79 574 211 818 107 728 l 29 290 b 264 -14 -1 111 58 -14 z m 469 888 l 599 888 l 503 1117 l 389 1117 l 214 888 l 347 888 l 429 1003 z "},"ċ":{"ha":625,"x_min":0,"x_max":0,"o":"m 264 -14 b 550 226 429 -14 524 74 l 574 354 l 392 354 l 375 260 b 275 143 363 182 338 143 b 203 268 210 143 188 186 l 250 542 b 356 665 265 631 296 665 b 424 538 418 665 440 631 l 411 465 l 594 465 l 603 518 b 364 818 635 706 556 818 b 79 574 211 818 107 728 l 29 290 b 264 -14 -1 111 58 -14 z m 404 885 b 518 986 475 885 504 904 b 436 1092 533 1068 501 1092 b 322 989 361 1092 338 1071 b 404 885 308 911 336 885 z "},"ď":{"ha":642,"x_min":0,"x_max":0,"o":"m 279 142 b 204 282 219 142 186 181 l 247 529 b 357 665 264 621 297 665 b 432 529 422 665 449 621 l 385 263 b 279 142 371 185 338 142 z m 365 0 l 513 0 l 694 1042 l 521 1042 l 461 710 b 307 817 444 779 392 817 b 72 538 188 815 106 729 l 29 293 b 200 -11 -10 75 68 -11 b 367 101 279 -11 333 29 z m 726 911 l 835 911 l 964 1124 l 818 1124 z "},"đ":{"ha":642,"x_min":0,"x_max":0,"o":"m 279 142 b 204 282 219 142 186 181 l 247 529 b 357 665 264 621 297 665 b 432 529 422 665 449 621 l 385 263 b 279 142 371 185 338 142 z m 365 0 l 513 0 l 663 860 l 711 860 l 731 965 l 681 965 l 694 1042 l 521 1042 l 507 965 l 425 965 l 406 860 l 489 860 l 461 710 b 307 817 444 779 392 817 b 72 538 188 815 106 729 l 29 293 b 200 -11 -10 75 68 -11 b 367 101 279 -11 333 29 z "},"ð":{"ha":632,"x_min":0,"x_max":0,"o":"m 265 -14 b 556 229 428 -14 528 74 l 611 542 b 521 961 647 713 607 853 l 678 1058 l 524 1058 l 465 1022 b 421 1058 451 1035 436 1047 l 178 1058 b 331 939 239 1015 290 976 l 168 838 l 324 838 l 389 878 b 468 696 438 819 463 761 b 322 792 449 757 400 792 b 69 539 179 792 99 703 l 26 290 b 265 -14 -6 114 68 -14 z m 278 143 b 199 265 215 143 185 185 l 244 528 b 350 639 257 606 293 639 b 429 518 411 639 444 603 l 385 258 b 278 143 372 182 339 143 z "},"é":{"ha":628,"x_min":0,"x_max":0,"o":"m 244 536 b 357 668 260 625 290 668 b 436 532 425 668 454 626 l 425 475 l 233 475 z m 551 222 l 563 279 l 385 279 l 381 254 b 276 140 368 179 343 140 b 199 275 206 140 182 182 l 213 353 l 576 353 l 606 522 b 364 818 639 708 550 818 b 78 567 208 818 106 725 l 29 290 b 267 -14 -1 111 61 -14 b 551 222 433 -14 519 61 z m 336 886 l 465 886 l 672 1101 l 497 1101 z "},"ĕ":{"ha":628,"x_min":0,"x_max":0,"o":"m 244 536 b 357 668 260 625 290 668 b 436 532 425 668 454 626 l 425 475 l 233 475 z m 551 222 l 563 279 l 385 279 l 381 254 b 276 140 368 179 343 140 b 199 275 206 140 182 182 l 213 353 l 576 353 l 606 522 b 364 818 639 708 550 818 b 78 567 208 818 106 725 l 29 290 b 267 -14 -1 111 61 -14 b 551 222 433 -14 519 61 z m 421 885 b 643 1099 558 885 617 954 l 524 1099 b 433 997 511 1025 489 999 b 375 1099 378 999 361 1025 l 257 1099 b 421 885 231 954 281 885 z "},"ě":{"ha":628,"x_min":0,"x_max":0,"o":"m 244 536 b 357 668 260 625 290 668 b 436 532 425 668 454 626 l 425 475 l 233 475 z m 551 222 l 563 279 l 385 279 l 381 254 b 276 140 368 179 343 140 b 199 275 206 140 182 182 l 213 353 l 576 353 l 606 522 b 364 818 639 708 550 818 b 78 567 208 818 106 725 l 29 290 b 267 -14 -1 111 61 -14 b 551 222 433 -14 519 61 z m 467 886 l 640 1115 l 508 1115 l 426 1000 l 388 1115 l 257 1115 l 351 886 z "},"ê":{"ha":628,"x_min":0,"x_max":0,"o":"m 244 536 b 357 668 260 625 290 668 b 436 532 425 668 454 626 l 425 475 l 233 475 z m 551 222 l 563 279 l 385 279 l 381 254 b 276 140 368 179 343 140 b 199 275 206 140 182 182 l 213 353 l 576 353 l 606 522 b 364 818 639 708 550 818 b 78 567 208 818 106 725 l 29 290 b 267 -14 -1 111 61 -14 b 551 222 433 -14 519 61 z m 469 886 l 599 886 l 503 1115 l 389 1115 l 214 886 l 347 886 l 429 1001 z "},"ë":{"ha":628,"x_min":0,"x_max":0,"o":"m 244 536 b 357 668 260 625 290 668 b 436 532 425 668 454 626 l 425 475 l 233 475 z m 551 222 l 563 279 l 385 279 l 381 254 b 276 140 368 179 343 140 b 199 275 206 140 182 182 l 213 353 l 576 353 l 606 522 b 364 818 639 708 550 818 b 78 567 208 818 106 725 l 29 290 b 267 -14 -1 111 61 -14 b 551 222 433 -14 519 61 z m 301 883 b 397 971 361 883 385 904 b 329 1063 408 1040 386 1063 b 233 972 271 1063 246 1043 b 301 883 222 904 240 883 z m 508 883 b 604 971 568 883 593 904 b 536 1063 617 1040 593 1063 b 442 972 476 1063 454 1043 b 508 883 429 904 447 883 z "},"ė":{"ha":628,"x_min":0,"x_max":0,"o":"m 244 536 b 357 668 260 625 290 668 b 436 532 425 668 454 626 l 425 475 l 233 475 z m 551 222 l 563 279 l 385 279 l 381 254 b 276 140 368 179 343 140 b 199 275 206 140 182 182 l 213 353 l 576 353 l 606 522 b 364 818 639 708 550 818 b 78 567 208 818 106 725 l 29 290 b 267 -14 -1 111 61 -14 b 551 222 433 -14 519 61 z m 408 883 b 522 985 479 883 508 903 b 440 1090 538 1067 506 1090 b 326 988 365 1090 342 1069 b 408 883 313 910 340 883 z "},"è":{"ha":628,"x_min":0,"x_max":0,"o":"m 244 536 b 357 668 260 625 290 668 b 436 532 425 668 454 626 l 425 475 l 233 475 z m 551 222 l 563 279 l 385 279 l 381 254 b 276 140 368 179 343 140 b 199 275 206 140 182 182 l 213 353 l 576 353 l 606 522 b 364 818 639 708 550 818 b 78 567 208 818 106 725 l 29 290 b 267 -14 -1 111 61 -14 b 551 222 433 -14 519 61 z m 351 886 l 474 886 l 404 1101 l 231 1101 z "},"ē":{"ha":628,"x_min":0,"x_max":0,"o":"m 244 536 b 357 668 260 625 290 668 b 436 532 425 668 454 626 l 425 475 l 233 475 z m 551 222 l 563 279 l 385 279 l 381 254 b 276 140 368 179 343 140 b 199 275 206 140 182 182 l 213 353 l 576 353 l 606 522 b 364 818 639 708 550 818 b 78 567 208 818 106 725 l 29 290 b 267 -14 -1 111 61 -14 b 551 222 433 -14 519 61 z m 258 896 l 565 896 l 588 1024 l 281 1024 z "},"ę":{"ha":628,"x_min":0,"x_max":0,"o":"m 489 -101 l 346 -101 b 288 -151 335 -135 315 -151 b 251 -115 261 -151 247 -140 b 381 1 256 -87 275 -67 b 551 222 474 31 528 103 l 563 279 l 385 279 l 381 254 b 276 140 368 179 343 140 b 199 275 206 140 182 182 l 213 353 l 576 353 l 606 522 b 364 818 639 708 550 818 b 78 567 208 818 106 725 l 29 290 b 188 -7 3 136 46 22 b 121 -112 147 -42 129 -74 b 269 -261 104 -203 157 -261 b 489 -101 381 -261 447 -211 z m 244 536 b 357 668 260 625 290 668 b 436 532 425 668 454 626 l 425 475 l 233 475 z "},"ğ":{"ha":642,"x_min":0,"x_max":0,"o":"m 283 163 b 208 303 222 163 190 201 l 247 529 b 357 665 264 621 297 665 b 432 529 422 665 449 621 l 388 283 b 283 163 374 206 342 163 z m 217 -275 b 506 -29 392 -275 478 -192 l 653 807 l 507 807 l 468 693 b 307 817 454 775 401 817 b 74 538 186 817 106 729 l 33 314 b 203 10 -6 96 71 10 b 357 119 278 10 326 51 l 336 -8 b 228 -128 321 -93 290 -128 b 156 -54 169 -128 156 -101 l 157 -50 l -19 -50 l -21 -54 b 217 -275 -32 -187 38 -275 z m 426 878 b 649 1092 564 878 622 947 l 529 1092 b 439 990 517 1018 494 992 b 381 1092 383 992 367 1018 l 263 1092 b 426 878 236 947 286 878 z "},"ĝ":{"ha":642,"x_min":0,"x_max":0,"o":"m 283 163 b 208 303 222 163 190 201 l 247 529 b 357 665 264 621 297 665 b 432 529 422 665 449 621 l 388 283 b 283 163 374 206 342 163 z m 217 -275 b 506 -29 392 -275 478 -192 l 653 807 l 507 807 l 468 693 b 307 817 454 775 401 817 b 74 538 186 817 106 729 l 33 314 b 203 10 -6 96 71 10 b 357 119 278 10 326 51 l 336 -8 b 228 -128 321 -93 290 -128 b 156 -54 169 -128 156 -101 l 157 -50 l -19 -50 l -21 -54 b 217 -275 -32 -187 38 -275 z m 482 888 l 611 888 l 515 1117 l 401 1117 l 226 888 l 360 888 l 442 1003 z "},"ģ":{"ha":642,"x_min":0,"x_max":0,"o":"m 283 163 b 208 303 222 163 190 201 l 247 529 b 357 665 264 621 297 665 b 432 529 422 665 449 621 l 388 283 b 283 163 374 206 342 163 z m 217 -275 b 506 -29 392 -275 478 -192 l 653 807 l 507 807 l 468 693 b 307 817 454 775 401 817 b 74 538 186 817 106 729 l 33 314 b 203 10 -6 96 71 10 b 357 119 278 10 326 51 l 336 -8 b 228 -128 321 -93 290 -128 b 156 -54 169 -128 156 -101 l 157 -50 l -19 -50 l -21 -54 b 217 -275 -32 -187 38 -275 z m 408 886 b 511 976 471 886 499 910 b 453 1060 522 1046 503 1060 b 440 1058 449 1060 444 1060 b 521 1125 453 1100 476 1121 l 535 1206 b 340 1006 424 1199 361 1124 b 408 886 324 917 340 886 z "},"ġ":{"ha":642,"x_min":0,"x_max":0,"o":"m 283 163 b 208 303 222 163 190 201 l 247 529 b 357 665 264 621 297 665 b 432 529 422 665 449 621 l 388 283 b 283 163 374 206 342 163 z m 217 -275 b 506 -29 392 -275 478 -192 l 653 807 l 507 807 l 468 693 b 307 817 454 775 401 817 b 74 538 186 817 106 729 l 33 314 b 203 10 -6 96 71 10 b 357 119 278 10 326 51 l 336 -8 b 228 -128 321 -93 290 -128 b 156 -54 169 -128 156 -101 l 157 -50 l -19 -50 l -21 -54 b 217 -275 -32 -187 38 -275 z m 422 876 b 536 978 493 876 522 896 b 454 1083 551 1060 519 1083 b 340 981 379 1083 356 1063 b 422 876 326 903 354 876 z "},"ß":{"ha":651,"x_min":0,"x_max":0,"o":"m 310 810 b 411 901 319 867 349 901 b 486 811 472 901 497 869 l 469 715 b 368 622 457 649 425 622 l 351 622 l 325 472 l 344 472 b 418 369 408 472 431 438 l 397 251 b 293 160 385 181 358 160 l 269 160 l 242 0 l 319 0 b 575 225 507 0 544 63 l 603 378 b 524 550 619 476 592 528 b 642 714 596 575 625 629 l 658 810 b 425 1057 686 964 603 1057 b 135 821 249 1057 160 968 l -11 0 l 167 0 z "},"ħ":{"ha":638,"x_min":0,"x_max":0,"o":"m 260 536 b 365 661 274 614 304 661 b 429 546 428 661 440 617 l 333 0 l 513 0 l 613 572 b 460 817 642 736 582 817 b 288 690 382 817 324 774 l 317 861 l 388 861 l 406 965 l 335 965 l 349 1042 l 172 1042 l 158 965 l 96 965 l 78 861 l 140 861 l -11 0 l 165 0 z "},"ĥ":{"ha":638,"x_min":0,"x_max":0,"o":"m 260 536 b 365 661 274 614 304 661 b 429 546 428 661 440 617 l 333 0 l 513 0 l 613 572 b 460 817 642 736 582 817 b 288 690 382 817 324 774 l 349 1042 l 172 1042 l -11 0 l 165 0 z m 339 1110 l 468 1110 l 372 1339 l 258 1339 l 83 1110 l 217 1110 l 299 1225 z "},"í":{"ha":301,"x_min":0,"x_max":0,"o":"m -11 0 l 171 0 l 313 807 l 132 807 z m 169 876 l 299 876 l 506 1092 l 331 1092 z "},"ĭ":{"ha":301,"x_min":0,"x_max":0,"o":"m -11 0 l 171 0 l 313 807 l 132 807 z m 242 875 b 464 1089 379 875 438 944 l 344 1089 b 254 988 332 1015 310 989 b 196 1089 199 989 182 1015 l 78 1089 b 242 875 51 944 101 875 z "},"î":{"ha":301,"x_min":0,"x_max":0,"o":"m -11 0 l 171 0 l 313 807 l 132 807 z m 296 876 l 425 876 l 329 1106 l 215 1106 l 40 876 l 174 876 l 256 992 z "},"ï":{"ha":301,"x_min":0,"x_max":0,"o":"m -11 0 l 171 0 l 313 807 l 132 807 z m 129 874 b 225 961 189 874 213 894 b 157 1053 236 1031 214 1053 b 61 963 99 1053 74 1033 b 129 874 50 894 68 874 z m 336 874 b 432 961 396 874 421 894 b 364 1053 444 1031 421 1053 b 269 963 304 1053 282 1033 b 336 874 257 894 275 874 z "},"ì":{"ha":301,"x_min":0,"x_max":0,"o":"m -11 0 l 171 0 l 313 807 l 132 807 z m 175 876 l 297 876 l 228 1092 l 54 1092 z "},"ī":{"ha":301,"x_min":0,"x_max":0,"o":"m -11 0 l 171 0 l 313 807 l 132 807 z m 82 886 l 389 886 l 411 1014 l 104 1014 z "},"į":{"ha":301,"x_min":0,"x_max":0,"o":"m 236 853 b 354 954 310 853 340 875 b 265 1058 368 1032 339 1058 b 146 957 190 1058 160 1036 b 236 853 132 881 157 853 z m 33 -281 b 253 -121 144 -281 211 -231 l 110 -121 b 51 -171 99 -154 79 -171 b 15 -135 25 -171 11 -160 b 172 0 19 -104 43 -82 l 171 0 l 313 804 b 221 792 301 797 251 792 b 131 804 192 792 140 796 l -11 1 b -115 -132 -79 -44 -106 -83 b 33 -281 -132 -222 -79 -281 z "},"ĩ":{"ha":301,"x_min":0,"x_max":0,"o":"m -11 0 l 171 0 l 313 807 l 132 807 z m 21 878 l 131 878 b 172 943 139 924 151 943 b 331 872 218 943 250 872 b 486 1069 424 872 463 931 l 376 1069 b 333 1007 368 1021 358 1007 b 175 1075 294 1007 254 1075 b 21 878 82 1075 47 1015 z "},"ı":{"ha":301,"x_min":0,"x_max":0,"o":"m -11 0 l 171 0 l 313 807 l 132 807 z "},"ĵ":{"ha":306,"x_min":0,"x_max":0,"o":"m -87 -275 b 164 -60 75 -275 135 -224 l 317 807 l 136 807 l -12 -31 b -89 -106 -24 -93 -37 -106 l -139 -106 l -168 -275 z m 301 876 l 431 876 l 335 1106 l 221 1106 l 46 876 l 179 876 l 261 992 z "},"ȷ":{"ha":306,"x_min":0,"x_max":0,"o":"m -87 -275 b 164 -60 75 -275 135 -224 l 317 807 l 136 807 l -12 -31 b -89 -106 -24 -93 -37 -106 l -139 -106 l -168 -275 z "},"ķ":{"ha":621,"x_min":0,"x_max":0,"o":"m 299 379 l 367 0 l 549 0 l 447 501 l 685 807 l 485 807 l 271 529 l 247 490 l 256 528 l 346 1042 l 172 1042 l -11 0 l 163 0 l 214 293 l 300 415 z m 125 -368 b 319 -169 236 -361 299 -286 b 253 -50 336 -78 319 -50 b 150 -139 189 -50 161 -74 b 207 -222 138 -210 157 -222 b 219 -221 211 -222 215 -222 b 139 -289 207 -264 183 -285 z "},"ĸ":{"ha":621,"x_min":0,"x_max":0,"o":"m 299 379 l 367 0 l 549 0 l 447 501 l 685 807 l 485 807 l 271 529 l 247 490 l 256 528 l 304 807 l 132 807 l -11 0 l 163 0 l 214 293 l 300 415 z "},"ĺ":{"ha":297,"x_min":0,"x_max":0,"o":"m -11 0 l 167 0 l 350 1042 l 172 1042 z m 206 1111 l 335 1111 l 542 1326 l 367 1326 z "},"ľ":{"ha":297,"x_min":0,"x_max":0,"o":"m -11 0 l 167 0 l 350 1042 l 172 1042 z m 379 910 l 488 910 l 617 1122 l 471 1122 z "},"ļ":{"ha":297,"x_min":0,"x_max":0,"o":"m -11 0 l 167 0 l 350 1042 l 172 1042 z m -57 -382 b 138 -183 54 -375 117 -300 b 71 -64 154 -92 138 -64 b -32 -153 7 -64 -21 -87 b 25 -236 -44 -224 -25 -236 b 38 -235 29 -236 33 -236 b -43 -303 25 -278 1 -299 z "},"ŀ":{"ha":481,"x_min":0,"x_max":0,"o":"m -11 0 l 167 0 l 350 1042 l 172 1042 z m 368 286 b 482 388 439 286 468 306 b 400 493 497 469 465 493 b 286 390 325 493 301 472 b 368 286 272 313 300 286 z "},"ł":{"ha":325,"x_min":0,"x_max":0,"o":"m 182 0 l 251 394 l 339 417 l 332 533 l 272 518 l 364 1042 l 188 1042 l 88 472 l -1 450 l 7 333 l 65 349 l 4 0 z "},"ń":{"ha":639,"x_min":0,"x_max":0,"o":"m 263 536 b 367 661 276 614 306 661 b 431 546 429 661 442 617 l 335 0 l 514 0 l 614 572 b 456 817 643 736 576 817 b 276 693 374 817 314 772 l 278 807 l 131 807 l -11 0 l 168 0 z m 344 878 l 474 878 l 681 1093 l 506 1093 z "},"ň":{"ha":639,"x_min":0,"x_max":0,"o":"m 263 536 b 367 661 276 614 306 661 b 431 546 429 661 442 617 l 335 0 l 514 0 l 614 572 b 456 817 643 736 576 817 b 276 693 374 817 314 772 l 278 807 l 131 807 l -11 0 l 168 0 z m 468 878 l 642 1107 l 510 1107 l 428 992 l 389 1107 l 258 1107 l 353 878 z "},"ņ":{"ha":639,"x_min":0,"x_max":0,"o":"m 263 536 b 367 661 276 614 306 661 b 431 546 429 661 442 617 l 335 0 l 514 0 l 614 572 b 456 817 643 736 576 817 b 276 693 374 817 314 772 l 278 807 l 131 807 l -11 0 l 168 0 z m 113 -372 b 307 -174 224 -365 286 -290 b 240 -54 324 -82 307 -54 b 138 -143 176 -54 149 -78 b 194 -226 125 -214 144 -226 b 207 -225 199 -226 203 -226 b 126 -293 194 -268 171 -289 z "},"ñ":{"ha":639,"x_min":0,"x_max":0,"o":"m 263 536 b 367 661 276 614 306 661 b 431 546 429 661 442 617 l 335 0 l 514 0 l 614 572 b 456 817 643 736 576 817 b 276 693 374 817 314 772 l 278 807 l 131 807 l -11 0 l 168 0 z m 203 879 l 313 879 b 354 944 321 925 333 944 b 513 874 400 944 432 874 b 668 1071 606 874 644 932 l 558 1071 b 515 1008 550 1022 540 1008 b 357 1076 476 1008 436 1076 b 203 879 264 1076 229 1017 z "},"ŋ":{"ha":639,"x_min":0,"x_max":0,"o":"m 253 -275 b 503 -61 417 -275 474 -228 b 614 572 503 -61 610 549 b 456 817 643 736 576 817 b 276 693 374 817 314 772 l 278 807 l 131 807 l -11 0 l 168 0 l 263 536 b 367 661 276 614 306 661 b 431 546 429 661 442 617 l 329 -31 b 251 -106 318 -93 304 -106 l 203 -106 l 174 -275 z "},"ó":{"ha":631,"x_min":0,"x_max":0,"o":"m 264 -14 b 551 229 428 -14 525 74 l 601 517 b 363 818 633 701 551 818 b 79 572 208 818 106 726 l 29 290 b 264 -14 -1 114 65 -14 z m 278 143 b 201 265 215 143 188 185 l 253 556 b 354 665 265 632 299 665 b 429 542 415 665 444 628 l 381 258 b 278 143 368 182 336 143 z m 335 886 l 464 886 l 671 1101 l 496 1101 z "},"ŏ":{"ha":631,"x_min":0,"x_max":0,"o":"m 264 -14 b 551 229 428 -14 525 74 l 601 517 b 363 818 633 701 551 818 b 79 572 208 818 106 726 l 29 290 b 264 -14 -1 114 65 -14 z m 278 143 b 201 265 215 143 188 185 l 253 556 b 354 665 265 632 299 665 b 429 542 415 665 444 628 l 381 258 b 278 143 368 182 336 143 z m 411 885 b 633 1099 549 885 607 954 l 514 1099 b 424 997 501 1025 479 999 b 365 1099 368 999 351 1025 l 247 1099 b 411 885 221 954 271 885 z "},"ô":{"ha":631,"x_min":0,"x_max":0,"o":"m 264 -14 b 551 229 428 -14 525 74 l 601 517 b 363 818 633 701 551 818 b 79 572 208 818 106 726 l 29 290 b 264 -14 -1 114 65 -14 z m 278 143 b 201 265 215 143 188 185 l 253 556 b 354 665 265 632 299 665 b 429 542 415 665 444 628 l 381 258 b 278 143 368 182 336 143 z m 467 886 l 596 886 l 500 1115 l 386 1115 l 211 886 l 344 886 l 426 1001 z "},"ö":{"ha":631,"x_min":0,"x_max":0,"o":"m 264 -14 b 551 229 428 -14 525 74 l 601 517 b 363 818 633 701 551 818 b 79 572 208 818 106 726 l 29 290 b 264 -14 -1 114 65 -14 z m 278 143 b 201 265 215 143 188 185 l 253 556 b 354 665 265 632 299 665 b 429 542 415 665 444 628 l 381 258 b 278 143 368 182 336 143 z m 300 883 b 396 971 360 883 383 904 b 328 1063 407 1040 385 1063 b 232 972 269 1063 244 1043 b 300 883 221 904 239 883 z m 507 883 b 603 971 567 883 592 904 b 535 1063 615 1040 592 1063 b 440 972 475 1063 453 1043 b 507 883 428 904 446 883 z "},"œ":{"ha":982,"x_min":0,"x_max":0,"o":"m 600 536 b 713 668 617 625 646 668 b 792 532 781 668 811 626 l 782 475 l 589 475 z m 278 143 b 201 265 215 143 188 185 l 253 556 b 354 665 265 632 299 665 b 429 542 415 665 444 628 l 381 258 b 278 143 368 182 336 143 z m 907 222 l 918 279 l 742 279 l 738 254 b 633 140 724 179 700 140 b 554 275 563 140 539 182 l 568 353 l 932 353 l 963 522 b 738 818 994 708 907 818 b 539 736 647 818 583 788 b 356 818 504 788 444 818 b 79 572 206 818 106 726 l 29 290 b 256 -14 -1 114 65 -14 b 442 61 340 -14 400 14 b 629 -14 474 14 533 -14 b 907 222 789 -14 876 61 z "},"ò":{"ha":631,"x_min":0,"x_max":0,"o":"m 264 -14 b 551 229 428 -14 525 74 l 601 517 b 363 818 633 701 551 818 b 79 572 208 818 106 726 l 29 290 b 264 -14 -1 114 65 -14 z m 278 143 b 201 265 215 143 188 185 l 253 556 b 354 665 265 632 299 665 b 429 542 415 665 444 628 l 381 258 b 278 143 368 182 336 143 z m 344 886 l 467 886 l 397 1101 l 224 1101 z "},"ő":{"ha":631,"x_min":0,"x_max":0,"o":"m 264 -14 b 551 229 428 -14 525 74 l 601 517 b 363 818 633 701 551 818 b 79 572 208 818 106 726 l 29 290 b 264 -14 -1 114 65 -14 z m 278 143 b 201 265 215 143 188 185 l 253 556 b 354 665 265 632 299 665 b 429 542 415 665 444 628 l 381 258 b 278 143 368 182 336 143 z m 529 1101 l 382 1101 l 254 886 l 358 886 z m 726 1101 l 576 1101 l 438 886 l 543 886 z "},"ō":{"ha":631,"x_min":0,"x_max":0,"o":"m 264 -14 b 551 229 428 -14 525 74 l 601 517 b 363 818 633 701 551 818 b 79 572 208 818 106 726 l 29 290 b 264 -14 -1 114 65 -14 z m 278 143 b 201 265 215 143 188 185 l 253 556 b 354 665 265 632 299 665 b 429 542 415 665 444 628 l 381 258 b 278 143 368 182 336 143 z m 251 896 l 558 896 l 581 1024 l 274 1024 z "},"ø":{"ha":631,"x_min":0,"x_max":0,"o":"m 278 143 b 201 265 215 143 188 185 l 253 556 b 354 665 265 632 299 665 b 429 542 415 665 444 628 l 381 258 b 278 143 368 182 336 143 z m 264 -14 b 551 229 428 -14 525 74 l 601 517 b 542 760 619 622 599 707 l 613 917 l 457 917 l 411 815 b 363 818 396 817 379 818 b 79 572 208 818 106 726 l 29 290 b 83 46 11 188 28 100 l 6 -126 l 163 -126 l 214 -11 b 264 -14 229 -12 246 -14 z "},"ǿ":{"ha":631,"x_min":0,"x_max":0,"o":"m 278 143 b 201 265 215 143 188 185 l 253 556 b 354 665 265 632 299 665 b 429 542 415 665 444 628 l 381 258 b 278 143 368 182 336 143 z m 264 -14 b 551 229 428 -14 525 74 l 601 517 b 542 760 619 622 599 707 l 613 917 l 457 917 l 411 815 b 363 818 396 817 379 818 b 79 572 208 818 106 726 l 29 290 b 83 46 11 188 28 100 l 6 -126 l 163 -126 l 214 -11 b 264 -14 229 -12 246 -14 z m 357 949 l 486 949 l 693 1164 l 518 1164 z "},"õ":{"ha":631,"x_min":0,"x_max":0,"o":"m 264 -14 b 551 229 428 -14 525 74 l 601 517 b 363 818 633 701 551 818 b 79 572 208 818 106 726 l 29 290 b 264 -14 -1 114 65 -14 z m 278 143 b 201 265 215 143 188 185 l 253 556 b 354 665 265 632 299 665 b 429 542 415 665 444 628 l 381 258 b 278 143 368 182 336 143 z m 186 888 l 296 888 b 338 953 304 933 317 953 b 496 882 383 953 415 882 b 651 1079 589 882 628 940 l 542 1079 b 499 1017 533 1031 524 1017 b 340 1085 460 1017 419 1085 b 186 888 247 1085 213 1025 z "},"ŕ":{"ha":426,"x_min":0,"x_max":0,"o":"m 164 0 l 246 469 b 396 615 265 579 293 615 l 444 615 l 479 815 l 453 815 b 261 660 340 815 292 778 l 260 807 l 131 807 l -11 0 z m 253 871 l 382 871 l 589 1086 l 414 1086 z "},"ř":{"ha":426,"x_min":0,"x_max":0,"o":"m 164 0 l 246 469 b 396 615 265 579 293 615 l 444 615 l 479 815 l 453 815 b 261 660 340 815 292 778 l 260 807 l 131 807 l -11 0 z m 376 871 l 550 1100 l 418 1100 l 336 985 l 297 1100 l 167 1100 l 261 871 z "},"ŗ":{"ha":426,"x_min":0,"x_max":0,"o":"m 164 0 l 246 469 b 396 615 265 579 293 615 l 444 615 l 479 815 l 453 815 b 261 660 340 815 292 778 l 260 807 l 131 807 l -11 0 z m -62 -382 b 132 -183 49 -375 111 -300 b 65 -64 149 -92 132 -64 b -37 -153 1 -64 -26 -87 b 19 -236 -50 -224 -31 -236 b 32 -235 24 -236 28 -236 b -49 -303 19 -278 -4 -299 z "},"ś":{"ha":581,"x_min":0,"x_max":0,"o":"m 243 -14 b 524 211 408 -14 499 60 l 525 221 b 372 472 553 374 458 428 b 247 610 301 508 235 538 l 249 614 b 336 679 256 653 282 679 b 406 586 392 679 417 649 l 399 543 l 568 543 l 574 578 b 342 821 599 735 521 821 b 78 626 186 821 100 742 l 76 617 b 225 364 47 463 139 408 b 349 224 296 326 363 297 l 349 218 b 256 138 340 168 314 138 b 178 231 194 138 167 168 l 189 296 l 10 296 l -1 238 b 243 -14 -32 76 44 -14 z m 319 888 l 449 888 l 656 1103 l 481 1103 z "},"š":{"ha":581,"x_min":0,"x_max":0,"o":"m 243 -14 b 524 211 408 -14 499 60 l 525 221 b 372 472 553 374 458 428 b 247 610 301 508 235 538 l 249 614 b 336 679 256 653 282 679 b 406 586 392 679 417 649 l 399 543 l 568 543 l 574 578 b 342 821 599 735 521 821 b 78 626 186 821 100 742 l 76 617 b 225 364 47 463 139 408 b 349 224 296 326 363 297 l 349 218 b 256 138 340 168 314 138 b 178 231 194 138 167 168 l 189 296 l 10 296 l -1 238 b 243 -14 -32 76 44 -14 z m 436 888 l 610 1117 l 478 1117 l 396 1001 l 357 1117 l 226 1117 l 321 888 z "},"ş":{"ha":581,"x_min":0,"x_max":0,"o":"m 172 -337 b 374 -206 289 -337 358 -292 b 260 -71 389 -121 346 -78 l 269 -12 b 524 211 418 -6 500 68 l 525 221 b 372 472 553 374 458 428 b 247 610 301 508 235 538 l 249 614 b 336 679 256 653 282 679 b 406 586 392 679 417 649 l 399 543 l 568 543 l 574 578 b 342 821 599 735 521 821 b 78 626 186 821 100 742 l 76 617 b 225 364 47 463 139 408 b 349 224 296 326 363 297 l 349 218 b 256 138 340 168 314 138 b 178 231 194 138 167 168 l 189 296 l 10 296 l -1 238 b 156 -7 -26 103 22 17 l 129 -153 l 194 -153 b 250 -194 238 -153 254 -168 b 182 -236 244 -219 222 -236 b 125 -187 143 -236 125 -221 l -15 -187 b 172 -337 -10 -290 44 -337 z "},"ŝ":{"ha":581,"x_min":0,"x_max":0,"o":"m 243 -14 b 524 211 408 -14 499 60 l 525 221 b 372 472 553 374 458 428 b 247 610 301 508 235 538 l 249 614 b 336 679 256 653 282 679 b 406 586 392 679 417 649 l 399 543 l 568 543 l 574 578 b 342 821 599 735 521 821 b 78 626 186 821 100 742 l 76 617 b 225 364 47 463 139 408 b 349 224 296 326 363 297 l 349 218 b 256 138 340 168 314 138 b 178 231 194 138 167 168 l 189 296 l 10 296 l -1 238 b 243 -14 -32 76 44 -14 z m 439 888 l 568 888 l 472 1117 l 358 1117 l 183 888 l 317 888 l 399 1003 z "},"ș":{"ha":581,"x_min":0,"x_max":0,"o":"m 243 -14 b 524 211 408 -14 499 60 l 525 221 b 372 472 553 374 458 428 b 247 610 301 508 235 538 l 249 614 b 336 679 256 653 282 679 b 406 586 392 679 417 649 l 399 543 l 568 543 l 574 578 b 342 821 599 735 521 821 b 78 626 186 821 100 742 l 76 617 b 225 364 47 463 139 408 b 349 224 296 326 363 297 l 349 218 b 256 138 340 168 314 138 b 178 231 194 138 167 168 l 189 296 l 10 296 l -1 238 b 243 -14 -32 76 44 -14 z m 85 -393 b 279 -194 196 -386 258 -311 b 213 -75 296 -103 279 -75 b 110 -164 149 -75 121 -99 b 167 -247 97 -235 117 -247 b 179 -246 171 -247 175 -247 b 99 -314 167 -289 143 -310 z "},"ŧ":{"ha":426,"x_min":0,"x_max":0,"o":"m 358 171 l 329 171 b 258 281 260 171 240 182 l 272 356 l 361 356 l 381 468 l 292 468 l 321 636 l 442 636 l 471 807 l 351 807 l 378 958 l 250 958 b 219 868 240 921 233 896 b 164 811 204 839 189 824 b 86 796 142 800 113 797 l 58 636 l 153 636 l 124 468 l 54 468 l 35 356 l 104 356 l 83 242 b 258 0 50 51 93 0 l 329 0 z "},"ť":{"ha":426,"x_min":0,"x_max":0,"o":"m 358 171 l 329 171 b 258 281 260 171 240 182 l 321 636 l 442 636 l 471 807 l 351 807 l 378 958 l 250 958 b 219 868 240 921 233 896 b 164 811 204 839 189 824 b 86 796 142 800 113 797 l 58 636 l 153 636 l 83 242 b 258 0 50 51 93 0 l 329 0 z m 431 896 l 539 896 l 668 1108 l 522 1108 z "},"ţ":{"ha":426,"x_min":0,"x_max":0,"o":"m 358 171 l 329 171 b 258 281 260 171 240 182 l 321 636 l 442 636 l 471 807 l 351 807 l 378 958 l 250 958 b 219 868 240 921 233 896 b 164 811 204 839 189 824 b 86 796 142 800 113 797 l 58 636 l 153 636 l 83 242 b 258 0 50 51 93 0 l 329 0 z m 57 -381 b 251 -182 168 -374 231 -299 b 185 -62 268 -90 251 -62 b 82 -151 121 -62 93 -86 b 139 -235 69 -222 89 -235 b 151 -233 143 -235 147 -235 b 71 -301 139 -276 115 -297 z "},"ú":{"ha":631,"x_min":0,"x_max":0,"o":"m 357 0 l 501 0 l 643 807 l 465 807 l 371 275 b 271 146 356 189 324 146 b 214 265 210 146 201 193 l 308 807 l 129 807 l 31 247 b 185 -11 0 75 53 -11 b 357 111 264 -11 321 32 z m 326 872 l 456 872 l 663 1088 l 488 1088 z "},"ŭ":{"ha":631,"x_min":0,"x_max":0,"o":"m 357 0 l 501 0 l 643 807 l 465 807 l 371 275 b 271 146 356 189 324 146 b 214 265 210 146 201 193 l 308 807 l 129 807 l 31 247 b 185 -11 0 75 53 -11 b 357 111 264 -11 321 32 z m 404 871 b 626 1085 542 871 600 940 l 507 1085 b 417 983 494 1011 472 985 b 358 1085 361 985 344 1011 l 240 1085 b 404 871 214 940 264 871 z "},"û":{"ha":631,"x_min":0,"x_max":0,"o":"m 357 0 l 501 0 l 643 807 l 465 807 l 371 275 b 271 146 356 189 324 146 b 214 265 210 146 201 193 l 308 807 l 129 807 l 31 247 b 185 -11 0 75 53 -11 b 357 111 264 -11 321 32 z m 460 872 l 589 872 l 493 1101 l 379 1101 l 204 872 l 338 872 l 419 988 z "},"ü":{"ha":631,"x_min":0,"x_max":0,"o":"m 357 0 l 501 0 l 643 807 l 465 807 l 371 275 b 271 146 356 189 324 146 b 214 265 210 146 201 193 l 308 807 l 129 807 l 31 247 b 185 -11 0 75 53 -11 b 357 111 264 -11 321 32 z m 292 869 b 388 957 351 869 375 890 b 319 1049 399 1026 376 1049 b 224 958 261 1049 236 1029 b 292 869 213 890 231 869 z m 499 869 b 594 957 558 869 583 890 b 526 1049 607 1026 583 1049 b 432 958 467 1049 444 1029 b 499 869 419 890 438 869 z "},"ù":{"ha":631,"x_min":0,"x_max":0,"o":"m 357 0 l 501 0 l 643 807 l 465 807 l 371 275 b 271 146 356 189 324 146 b 214 265 210 146 201 193 l 308 807 l 129 807 l 31 247 b 185 -11 0 75 53 -11 b 357 111 264 -11 321 32 z m 335 872 l 457 872 l 388 1088 l 214 1088 z "},"ű":{"ha":631,"x_min":0,"x_max":0,"o":"m 357 0 l 501 0 l 643 807 l 465 807 l 371 275 b 271 146 356 189 324 146 b 214 265 210 146 201 193 l 308 807 l 129 807 l 31 247 b 185 -11 0 75 53 -11 b 357 111 264 -11 321 32 z m 519 1088 l 372 1088 l 244 872 l 349 872 z m 717 1088 l 567 1088 l 428 872 l 533 872 z "},"ū":{"ha":631,"x_min":0,"x_max":0,"o":"m 357 0 l 501 0 l 643 807 l 465 807 l 371 275 b 271 146 356 189 324 146 b 214 265 210 146 201 193 l 308 807 l 129 807 l 31 247 b 185 -11 0 75 53 -11 b 357 111 264 -11 321 32 z m 242 882 l 549 882 l 571 1010 l 264 1010 z "},"ų":{"ha":631,"x_min":0,"x_max":0,"o":"m 582 -121 l 439 -121 b 381 -171 428 -154 408 -171 b 344 -135 354 -171 340 -160 b 501 0 349 -104 372 -82 l 643 807 l 465 807 l 371 275 b 271 146 356 189 324 146 b 214 265 210 146 201 193 l 308 807 l 129 807 l 31 247 b 185 -11 0 75 53 -11 b 357 111 264 -11 321 32 l 357 26 b 214 -132 260 -31 226 -75 b 363 -281 197 -222 250 -281 b 582 -121 474 -281 540 -231 z "},"ů":{"ha":631,"x_min":0,"x_max":0,"o":"m 357 0 l 501 0 l 643 807 l 465 807 l 371 275 b 271 146 356 189 324 146 b 214 265 210 146 201 193 l 308 807 l 129 807 l 31 247 b 185 -11 0 75 53 -11 b 357 111 264 -11 321 32 z m 404 872 b 581 1010 497 872 565 918 b 438 1168 597 1100 539 1168 b 264 1029 353 1168 281 1118 b 404 872 247 938 304 872 z m 415 975 b 376 1021 386 975 371 994 b 428 1065 381 1049 399 1065 b 468 1018 457 1065 472 1046 b 415 975 463 990 444 975 z "},"ũ":{"ha":631,"x_min":0,"x_max":0,"o":"m 357 0 l 501 0 l 643 807 l 465 807 l 371 275 b 271 146 356 189 324 146 b 214 265 210 146 201 193 l 308 807 l 129 807 l 31 247 b 185 -11 0 75 53 -11 b 357 111 264 -11 321 32 z m 189 876 l 299 876 b 340 942 307 922 319 942 b 499 871 386 942 418 871 b 654 1068 592 871 631 929 l 544 1068 b 501 1006 536 1019 526 1006 b 343 1074 463 1006 422 1074 b 189 876 250 1074 215 1014 z "},"ẃ":{"ha":861,"x_min":0,"x_max":0,"o":"m 415 421 l 449 543 l 436 422 l 454 0 l 621 0 l 929 807 l 758 807 l 593 344 l 560 199 l 569 347 l 553 807 l 442 807 l 257 347 l 210 206 l 233 347 l 246 807 l 76 807 l 75 0 l 246 0 z m 439 876 l 568 876 l 775 1092 l 600 1092 z "},"ŵ":{"ha":861,"x_min":0,"x_max":0,"o":"m 415 421 l 449 543 l 436 422 l 454 0 l 621 0 l 929 807 l 758 807 l 593 344 l 560 199 l 569 347 l 553 807 l 442 807 l 257 347 l 210 206 l 233 347 l 246 807 l 76 807 l 75 0 l 246 0 z m 571 876 l 700 876 l 604 1106 l 490 1106 l 315 876 l 449 876 l 531 992 z "},"ẅ":{"ha":861,"x_min":0,"x_max":0,"o":"m 415 421 l 449 543 l 436 422 l 454 0 l 621 0 l 929 807 l 758 807 l 593 344 l 560 199 l 569 347 l 553 807 l 442 807 l 257 347 l 210 206 l 233 347 l 246 807 l 76 807 l 75 0 l 246 0 z m 404 874 b 500 961 464 874 488 894 b 432 1053 511 1031 489 1053 b 336 963 374 1053 349 1033 b 404 874 325 894 343 874 z m 611 874 b 707 961 671 874 696 894 b 639 1053 719 1031 696 1053 b 544 963 579 1053 557 1033 b 611 874 532 894 550 874 z "},"ẁ":{"ha":861,"x_min":0,"x_max":0,"o":"m 415 421 l 449 543 l 436 422 l 454 0 l 621 0 l 929 807 l 758 807 l 593 344 l 560 199 l 569 347 l 553 807 l 442 807 l 257 347 l 210 206 l 233 347 l 246 807 l 76 807 l 75 0 l 246 0 z m 449 876 l 571 876 l 501 1092 l 328 1092 z "},"ý":{"ha":600,"x_min":0,"x_max":0,"o":"m 14 -249 b 296 -46 178 -249 224 -214 l 663 807 l 485 807 l 313 375 l 272 222 l 288 372 l 261 807 l 83 807 l 161 36 l 143 -8 b 25 -82 117 -71 94 -82 l -43 -82 l -72 -249 z m 311 869 l 440 869 l 647 1085 l 472 1085 z "},"ŷ":{"ha":600,"x_min":0,"x_max":0,"o":"m 14 -249 b 296 -46 178 -249 224 -214 l 663 807 l 485 807 l 313 375 l 272 222 l 288 372 l 261 807 l 83 807 l 161 36 l 143 -8 b 25 -82 117 -71 94 -82 l -43 -82 l -72 -249 z m 449 872 l 578 872 l 482 1101 l 368 1101 l 193 872 l 326 872 l 408 988 z "},"ÿ":{"ha":600,"x_min":0,"x_max":0,"o":"m 14 -249 b 296 -46 178 -249 224 -214 l 663 807 l 485 807 l 313 375 l 272 222 l 288 372 l 261 807 l 83 807 l 161 36 l 143 -8 b 25 -82 117 -71 94 -82 l -43 -82 l -72 -249 z m 282 869 b 378 957 342 869 365 890 b 310 1049 389 1026 367 1049 b 214 958 251 1049 226 1029 b 282 869 203 890 221 869 z m 489 869 b 585 957 549 869 574 890 b 517 1049 597 1026 574 1049 b 422 958 457 1049 435 1029 b 489 869 410 890 428 869 z "},"ỳ":{"ha":600,"x_min":0,"x_max":0,"o":"m 14 -249 b 296 -46 178 -249 224 -214 l 663 807 l 485 807 l 313 375 l 272 222 l 288 372 l 261 807 l 83 807 l 161 36 l 143 -8 b 25 -82 117 -71 94 -82 l -43 -82 l -72 -249 z m 322 872 l 444 872 l 375 1088 l 201 1088 z "},"ĳ":{"ha":600,"x_min":0,"x_max":0,"o":"m 533 846 b 653 947 606 846 639 868 b 565 1051 667 1026 640 1051 b 446 950 492 1051 460 1029 b 533 846 432 869 456 846 z m 233 846 b 353 947 306 846 339 868 b 265 1051 367 1026 340 1051 b 144 950 190 1051 158 1029 b 233 846 131 869 154 846 z m -58 -254 l 208 -254 b 461 -47 372 -254 432 -211 l 611 806 b 518 793 599 797 549 793 b 429 804 489 793 439 797 l 285 -18 b 208 -93 274 -81 260 -93 l -31 -93 z m -11 0 l 171 0 l 313 804 b 219 792 301 797 250 792 b 131 804 190 792 139 796 z "},"ź":{"ha":535,"x_min":0,"x_max":0,"o":"m -36 -1 l 431 0 l 460 160 l 203 160 l 544 661 l 571 807 l 121 807 l 93 651 l 347 651 l -11 139 z m 289 876 l 418 876 l 625 1092 l 450 1092 z "},"ž":{"ha":535,"x_min":0,"x_max":0,"o":"m -36 -1 l 431 0 l 460 160 l 203 160 l 544 661 l 571 807 l 121 807 l 93 651 l 347 651 l -11 139 z m 421 876 l 594 1106 l 463 1106 l 381 990 l 342 1106 l 211 1106 l 306 876 z "},"ż":{"ha":535,"x_min":0,"x_max":0,"o":"m -36 -1 l 431 0 l 460 160 l 203 160 l 544 661 l 571 807 l 121 807 l 93 651 l 347 651 l -11 139 z m 363 874 b 476 975 433 874 463 893 b 394 1081 492 1057 460 1081 b 281 978 319 1081 296 1060 b 363 874 267 900 294 874 z "},"þ":{"ha":639,"x_min":0,"x_max":0,"o":"m 315 186 b 226 229 261 154 232 176 b 231 404 208 229 224 372 b 328 621 239 451 285 621 b 415 568 378 656 411 638 b 414 408 433 568 419 443 b 315 186 403 351 357 186 z m 329 -11 b 567 268 450 -11 531 71 l 611 522 b 447 818 647 721 571 818 b 290 726 375 818 324 782 l 346 1042 l 172 1042 l -57 -258 l 118 -258 l 181 101 b 329 -11 193 26 242 -11 z "},"ª":{"ha":475,"x_min":0,"x_max":0,"o":"m 258 542 b 218 596 226 542 213 561 l 222 618 b 244 664 226 639 233 653 b 293 686 256 674 271 679 b 346 708 318 693 335 700 l 329 617 b 258 542 322 574 296 542 z m 436 446 l 483 446 l 507 579 l 499 579 b 467 619 467 579 460 585 l 503 822 b 335 1008 525 950 463 1008 b 119 854 210 1008 139 953 l 108 790 l 256 790 l 264 840 b 325 894 272 881 289 894 b 369 846 360 894 375 878 l 367 832 b 265 763 360 796 336 779 b 126 711 206 747 160 733 b 67 615 96 690 75 661 l 63 589 b 175 438 43 497 88 438 b 325 508 239 438 292 457 b 436 446 336 463 375 446 z "},"º":{"ha":472,"x_min":0,"x_max":0,"o":"m 257 439 b 467 604 371 439 449 499 l 501 801 b 324 1008 524 926 454 1008 b 117 840 217 1008 135 946 l 82 647 b 257 439 61 526 119 439 z m 269 567 b 222 643 232 567 214 593 l 251 818 b 317 886 260 865 281 886 b 364 808 354 886 374 863 l 335 639 b 269 567 326 590 307 567 z "},"&":{"ha":811,"x_min":0,"x_max":0,"o":"m 404 774 l 406 781 b 485 879 417 846 440 879 b 536 804 525 879 544 853 b 397 629 521 722 475 679 b 404 774 393 682 396 729 z m 299 136 b 181 264 206 136 167 190 l 181 268 b 281 414 193 331 225 372 b 311 310 289 379 300 344 b 381 150 332 249 356 194 b 299 136 354 140 326 136 z m 601 -14 b 721 22 658 -14 693 0 l 747 171 b 650 136 721 149 692 136 b 604 146 635 136 619 139 b 804 581 700 249 774 396 l 811 615 l 658 617 l 654 594 b 511 242 628 439 576 319 b 453 374 490 278 471 321 b 418 493 439 415 426 456 b 683 786 574 579 658 657 l 683 790 b 494 1011 708 929 631 1011 b 251 778 360 1011 278 925 l 250 767 b 253 554 240 707 242 633 b 8 278 125 481 33 406 l 8 275 b 265 -15 -26 101 69 -15 b 468 39 333 -15 403 3 b 601 -14 507 4 551 -14 z "},"´":{"ha":543,"x_min":0,"x_max":0,"o":"m 238 883 l 367 883 l 574 1099 l 399 1099 z "},"˘":{"ha":543,"x_min":0,"x_max":0,"o":"m 364 882 b 586 1096 501 882 560 951 l 467 1096 b 376 994 454 1022 432 996 b 318 1096 321 996 304 1022 l 200 1096 b 364 882 174 951 224 882 z "},"ˇ":{"ha":543,"x_min":0,"x_max":0,"o":"m 414 883 l 588 1113 l 456 1113 l 374 997 l 335 1113 l 204 1113 l 299 883 z "},"¸":{"ha":543,"x_min":0,"x_max":0,"o":"m 156 -321 b 357 -189 272 -321 342 -275 b 243 -54 372 -104 329 -61 l 256 15 l 140 15 l 113 -136 l 178 -136 b 233 -178 221 -136 238 -151 b 165 -219 228 -203 206 -219 b 108 -171 126 -219 108 -204 l -32 -171 b 156 -321 -26 -274 28 -321 z "},"ˆ":{"ha":543,"x_min":0,"x_max":0,"o":"m 419 883 l 549 883 l 453 1113 l 339 1113 l 164 883 l 297 883 l 379 999 z "},"¨":{"ha":546,"x_min":0,"x_max":0,"o":"m 256 881 b 351 968 315 881 339 901 b 283 1060 363 1038 340 1060 b 188 969 225 1060 200 1040 b 256 881 176 901 194 881 z m 463 881 b 558 968 522 881 547 901 b 490 1060 571 1038 547 1060 b 396 969 431 1060 408 1040 b 463 881 383 901 401 881 z "},"˙":{"ha":544,"x_min":0,"x_max":0,"o":"m 353 881 b 467 982 424 881 453 900 b 385 1088 482 1064 450 1088 b 271 985 310 1088 286 1067 b 353 881 257 907 285 881 z "},"`":{"ha":543,"x_min":0,"x_max":0,"o":"m 347 883 l 469 883 l 400 1099 l 226 1099 z "},"˝":{"ha":543,"x_min":0,"x_max":0,"o":"m 429 1099 l 282 1099 l 154 883 l 258 883 z m 626 1099 l 476 1099 l 338 883 l 443 883 z "},"¯":{"ha":543,"x_min":0,"x_max":0,"o":"m 206 893 l 513 893 l 535 1021 l 228 1021 z "},"˛":{"ha":543,"x_min":0,"x_max":0,"o":"m 151 -281 b 371 -121 263 -281 329 -231 l 228 -121 b 169 -171 217 -154 197 -171 b 133 -135 143 -171 129 -160 b 290 0 138 -104 161 -82 l 193 53 b 3 -132 60 -18 17 -67 b 151 -281 -14 -222 39 -281 z "},"˚":{"ha":543,"x_min":0,"x_max":0,"o":"m 365 885 b 542 1022 458 885 526 931 b 399 1181 558 1113 500 1181 b 225 1042 314 1181 242 1131 b 365 885 208 950 265 885 z m 376 988 b 338 1033 347 988 332 1007 b 389 1078 342 1061 360 1078 b 429 1031 418 1078 433 1058 b 376 988 424 1003 406 988 z "},"˜":{"ha":543,"x_min":0,"x_max":0,"o":"m 144 885 l 254 885 b 296 950 263 931 275 950 b 454 879 342 950 374 879 b 610 1076 547 879 586 938 l 500 1076 b 457 1014 492 1028 482 1014 b 299 1082 418 1014 378 1082 b 144 885 206 1082 171 1022 z "},".":{"ha":346,"x_min":0,"x_max":0,"o":"m 104 -12 b 228 101 183 -12 211 11 b 140 228 246 197 215 228 b 15 113 60 228 32 201 b 104 -12 -1 21 26 -12 z "},",":{"ha":346,"x_min":0,"x_max":0,"o":"m -21 -179 b 224 71 118 -168 196 -81 b 136 218 246 185 213 218 b 15 103 61 218 32 189 b 88 -10 -1 14 29 -10 b 100 -8 92 -10 96 -10 b -6 -90 83 -58 50 -85 z "},":":{"ha":347,"x_min":0,"x_max":0,"o":"m 201 535 b 325 647 281 535 308 558 b 238 774 343 743 313 774 b 113 660 157 774 129 749 b 201 535 96 567 124 535 z m 108 11 b 232 124 188 11 217 35 b 144 250 250 219 221 250 b 21 136 65 250 36 225 b 108 11 4 43 31 11 z "},";":{"ha":349,"x_min":0,"x_max":0,"o":"m 201 535 b 325 647 281 535 308 558 b 238 774 343 743 313 774 b 113 660 157 774 129 749 b 201 535 96 567 124 535 z m -19 -179 b 225 71 119 -168 197 -81 b 138 218 247 185 214 218 b 17 103 63 218 33 189 b 89 -10 1 14 31 -10 b 101 -8 93 -10 97 -10 b -4 -90 85 -58 51 -85 z "},"…":{"ha":883,"x_min":0,"x_max":0,"o":"m 647 -12 b 765 101 722 -12 749 11 b 683 228 783 197 757 228 b 565 113 608 228 582 201 b 647 -12 549 21 572 -12 z m 374 -12 b 492 101 449 -12 475 11 b 410 228 510 197 483 228 b 292 113 335 228 308 201 b 374 -12 275 21 299 -12 z m 97 -12 b 215 101 172 -12 199 11 b 133 228 233 197 207 228 b 15 113 58 228 32 201 b 97 -12 -1 21 22 -12 z "},"!":{"ha":351,"x_min":0,"x_max":0,"o":"m 88 264 b 153 271 100 268 125 271 b 217 264 181 271 203 268 b 329 731 229 288 294 532 l 375 996 l 185 996 l 139 731 b 88 264 104 531 82 288 z m 106 -12 b 229 97 185 -12 213 10 b 142 221 246 189 218 221 b 17 110 61 221 33 196 b 106 -12 0 17 28 -12 z "},"¡":{"ha":351,"x_min":0,"x_max":0,"o":"m 211 592 b 335 703 290 592 318 615 b 247 824 351 793 325 824 b 122 715 167 824 139 801 b 211 592 106 621 135 592 z m -25 -185 l 167 -185 l 213 82 b 264 547 247 281 269 525 b 199 540 251 543 226 540 b 135 547 171 540 149 543 b 22 82 122 525 57 279 z "},"?":{"ha":629,"x_min":0,"x_max":0,"o":"m 356 251 l 372 325 b 486 446 386 385 435 413 b 632 651 546 486 613 533 l 650 746 b 410 1008 676 908 592 1008 b 110 781 236 1008 136 928 l 78 606 l 263 606 l 290 761 b 392 853 300 819 326 853 b 467 756 454 853 476 813 l 449 653 b 346 542 439 597 394 572 b 201 351 288 504 222 461 b 194 311 201 347 194 317 b 186 251 192 299 188 257 b 275 267 201 260 229 267 b 356 251 321 267 343 260 z m 229 -12 b 353 94 308 -12 336 6 b 265 213 369 186 342 213 b 139 106 185 213 156 193 b 229 -12 122 13 150 -12 z "},"¿":{"ha":629,"x_min":0,"x_max":0,"o":"m 403 822 b 279 717 324 822 296 804 b 367 597 263 624 290 597 b 493 704 447 597 476 617 b 403 822 510 797 482 822 z m 276 560 l 260 486 b 146 364 246 425 197 397 b -1 160 86 325 19 278 l -18 64 b 222 -199 -44 -99 40 -199 b 522 29 396 -199 496 -118 l 554 206 l 369 206 l 342 50 b 240 -43 332 -10 306 -43 b 165 54 178 -43 156 -3 l 183 158 b 286 269 193 213 238 239 b 431 458 344 307 410 350 b 438 500 431 463 438 494 b 446 560 440 511 444 554 b 357 544 431 551 403 544 b 276 560 311 544 289 551 z "},"‽":{"ha":672,"x_min":0,"x_max":0,"o":"m 457 713 l 483 865 b 528 757 525 849 536 813 l 511 663 b 436 543 499 594 469 581 b 419 525 431 538 425 532 b 457 713 433 590 447 657 z m 315 265 b 374 257 343 265 360 263 l 388 315 b 518 457 403 385 460 418 b 672 663 583 501 653 551 l 688 749 b 431 1010 714 915 621 1010 b 107 763 236 1010 135 915 l 78 604 l 240 604 l 265 750 b 347 867 276 811 301 849 l 321 713 b 260 335 294 561 271 414 b 253 256 254 292 253 269 b 315 265 267 263 286 265 z m 271 -12 b 394 94 350 -12 378 6 b 307 213 411 186 383 213 b 181 106 226 213 197 193 b 271 -12 164 13 192 -12 z "},"⸘":{"ha":672,"x_min":0,"x_max":0,"o":"m 403 818 b 279 713 322 818 294 801 b 367 594 261 621 289 594 b 492 701 447 594 476 614 b 403 818 508 794 481 818 z m 243 -204 b 567 44 438 -204 539 -110 l 594 203 l 433 203 l 407 57 b 325 -61 396 -6 371 -44 l 351 94 b 413 472 378 246 401 393 b 419 551 419 515 421 538 b 357 542 406 544 386 542 b 300 550 329 542 313 544 l 286 492 b 154 350 269 422 214 389 b 1 144 89 306 21 256 l -15 58 b 243 -204 -42 -108 53 -204 z m 144 50 l 163 144 b 238 264 174 213 203 226 b 254 282 243 269 249 275 b 215 94 239 217 225 150 l 189 -60 b 144 50 149 -42 138 -7 z "},"‘":{"ha":318,"x_min":0,"x_max":0,"o":"m 206 646 b 317 751 275 646 303 672 b 251 854 331 833 304 854 b 240 853 247 854 243 854 b 336 929 254 900 286 924 l 350 1010 b 126 781 224 1000 151 921 b 206 646 106 676 136 646 z "},"’":{"ha":318,"x_min":0,"x_max":0,"o":"m 117 642 b 342 871 244 653 315 732 b 261 1007 361 976 331 1007 b 150 900 192 1007 165 979 b 215 799 136 818 164 799 b 228 800 219 799 224 799 b 131 724 213 753 181 729 z "},"“":{"ha":575,"x_min":0,"x_max":0,"o":"m 465 646 b 576 751 535 646 561 672 b 511 854 590 833 563 854 b 499 853 507 854 503 854 b 596 929 514 900 546 924 l 610 1010 b 385 781 482 1000 411 921 b 465 646 365 676 396 646 z m 208 646 b 319 751 278 646 304 672 b 254 854 333 833 306 854 b 242 853 250 854 246 854 b 339 929 257 900 289 924 l 353 1010 b 128 781 225 1000 154 921 b 208 646 108 676 139 646 z "},"”":{"ha":575,"x_min":0,"x_max":0,"o":"m 115 642 b 339 871 242 653 314 732 b 260 1007 360 976 329 1007 b 149 900 190 1007 163 979 b 214 799 135 818 161 799 b 225 800 218 799 222 799 b 129 724 211 753 179 729 z m 372 642 b 596 871 499 653 571 732 b 517 1007 617 976 586 1007 b 406 900 447 1007 419 979 b 471 799 392 818 418 799 b 482 800 475 799 479 799 b 386 724 468 753 436 729 z "},"‚":{"ha":325,"x_min":0,"x_max":0,"o":"m -24 -162 b 201 68 104 -151 175 -72 b 121 203 221 172 190 203 b 10 97 51 203 25 176 b 75 -6 -4 15 24 -6 b 88 -4 79 -6 83 -6 b -10 -81 72 -51 40 -75 z "},"„":{"ha":575,"x_min":0,"x_max":0,"o":"m 231 -162 b 456 68 358 -151 429 -72 b 375 203 475 172 444 203 b 264 97 306 203 279 176 b 329 -6 250 15 278 -6 b 342 -4 333 -6 338 -6 b 244 -81 326 -51 294 -75 z m -26 -162 b 199 68 101 -151 172 -72 b 118 203 218 172 188 203 b 7 97 49 203 22 176 b 72 -6 -7 15 21 -6 b 85 -4 76 -6 81 -6 b -12 -81 69 -51 38 -75 z "},"‛":{"ha":318,"x_min":0,"x_max":0,"o":"m 299 722 b 231 801 246 726 226 750 b 247 800 236 800 242 800 b 343 893 301 800 329 815 b 267 1007 358 975 335 1007 b 146 868 193 1007 165 972 b 285 642 121 732 165 646 z "},"‟":{"ha":575,"x_min":0,"x_max":0,"o":"m 556 722 b 488 801 503 726 483 750 b 506 800 493 800 499 800 b 601 893 560 800 586 815 b 524 1007 617 975 593 1007 b 403 868 451 1007 422 972 b 542 642 379 732 422 646 z m 299 722 b 231 801 246 726 226 750 b 247 800 236 800 242 800 b 343 893 301 800 329 815 b 267 1007 358 975 335 1007 b 146 868 193 1007 165 972 b 285 642 121 732 165 646 z "},"‹":{"ha":432,"x_min":0,"x_max":0,"o":"m 344 154 l 218 407 l 443 686 l 269 686 l 63 422 l 60 408 l 181 154 z "},"›":{"ha":432,"x_min":0,"x_max":0,"o":"m 168 154 l 376 414 l 379 426 l 261 686 l 103 686 l 222 436 l -11 154 z "},"«":{"ha":678,"x_min":0,"x_max":0,"o":"m 579 154 l 458 401 l 694 686 l 536 686 l 318 419 l 314 403 l 433 154 z m 329 154 l 204 418 l 425 686 l 267 686 l 61 432 l 58 421 l 182 154 z "},"»":{"ha":678,"x_min":0,"x_max":0,"o":"m 147 154 l 365 421 l 369 439 l 250 686 l 104 686 l 224 443 l -15 154 z m 417 154 l 622 408 l 625 421 l 501 686 l 354 686 l 478 425 l 254 154 z "},"/":{"ha":440,"x_min":0,"x_max":0,"o":"m -57 0 l 135 0 l 531 996 l 342 996 z "},"\\":{"ha":440,"x_min":0,"x_max":0,"o":"m 124 996 l 164 0 l 351 0 l 311 996 z "},"|":{"ha":315,"x_min":0,"x_max":0,"o":"m 163 -78 l 364 1069 l 186 1069 l -15 -78 z "},"‖":{"ha":581,"x_min":0,"x_max":0,"o":"m 258 -69 l 429 -69 l 629 1069 l 458 1069 z m -14 -69 l 157 -69 l 357 1069 l 186 1069 z "},"¦":{"ha":315,"x_min":0,"x_max":0,"o":"m 96 551 l 274 551 l 364 1069 l 186 1069 z m 81 464 l -15 -78 l 163 -78 l 258 464 z "},"•":{"ha":424,"x_min":0,"x_max":0,"o":"m 193 274 b 343 399 282 274 325 299 b 233 542 363 507 318 542 b 83 413 143 542 101 513 b 193 274 64 310 106 274 z "},"·":{"ha":346,"x_min":0,"x_max":0,"o":"m 157 296 b 281 408 236 296 264 318 b 193 535 299 504 268 535 b 68 419 113 535 85 508 b 157 296 51 328 79 296 z "},"-":{"ha":524,"x_min":0,"x_max":0,"o":"m 39 331 l 461 331 l 490 503 l 68 503 z "},"­":{"ha":524,"x_min":0,"x_max":0,"o":"m 39 331 l 461 331 l 490 503 l 68 503 z "},"–":{"ha":492,"x_min":0,"x_max":0,"o":"m 39 331 l 429 331 l 458 503 l 68 503 z "},"—":{"ha":672,"x_min":0,"x_max":0,"o":"m 39 331 l 610 331 l 639 503 l 68 503 z "},"‒":{"ha":693,"x_min":0,"x_max":0,"o":"m 39 331 l 631 331 l 660 503 l 68 503 z "},"―":{"ha":867,"x_min":0,"x_max":0,"o":"m 39 331 l 804 331 l 833 503 l 68 503 z "},"(":{"ha":429,"x_min":0,"x_max":0,"o":"m 292 -219 l 322 -47 b 206 185 214 -43 176 21 l 283 619 b 481 850 313 785 369 844 l 510 1018 b 101 647 272 1014 150 924 l 24 204 b 292 -219 -29 -85 56 -215 z "},")":{"ha":429,"x_min":0,"x_max":0,"o":"m -82 -221 b 328 151 163 -215 279 -126 l 406 594 b 136 1018 457 888 368 1014 l 107 849 b 222 617 215 844 251 781 l 146 182 b -51 -49 117 17 60 -43 z "},"[":{"ha":421,"x_min":0,"x_max":0,"o":"m 307 -68 l 164 -68 l 329 864 l 471 864 l 497 1015 l 176 1015 l -40 -219 l 281 -219 z "},"]":{"ha":421,"x_min":0,"x_max":0,"o":"m 243 -219 l 460 1015 l 139 1015 l 113 864 l 257 864 l 92 -68 l -51 -68 l -78 -219 z "},"{":{"ha":451,"x_min":0,"x_max":0,"o":"m 313 -219 l 338 -76 l 286 -76 b 213 1 224 -76 204 -51 b 329 263 225 72 313 171 b 217 396 343 342 308 396 l 219 413 b 376 542 314 414 363 458 b 353 801 393 635 340 732 b 453 874 361 853 393 874 l 506 874 l 531 1017 l 386 1017 b 179 844 253 1017 196 942 b 201 567 160 736 214 639 b 106 488 190 510 163 488 l 53 488 l 22 319 l 82 319 b 149 238 138 319 160 297 b 25 -26 136 167 43 83 b 172 -219 4 -132 42 -219 z "},"}":{"ha":451,"x_min":0,"x_max":0,"o":"m -81 -219 l 64 -219 b 272 -47 197 -219 254 -144 b 246 231 292 63 233 158 b 344 310 257 288 286 310 l 399 310 l 428 478 l 371 478 b 304 560 315 478 293 501 b 426 824 317 632 407 715 b 279 1017 446 929 410 1017 l 138 1017 l 114 874 l 165 874 b 238 797 226 874 247 849 b 122 535 225 725 138 628 b 233 401 108 456 142 403 l 231 386 b 74 257 136 385 89 339 b 99 -4 57 164 111 67 b -3 -76 89 -56 58 -76 l -56 -76 z "},"〈":{"ha":413,"x_min":0,"x_max":0,"o":"m 293 -219 l 215 392 l 515 1015 l 326 1015 l 36 406 l 111 -219 z "},"〉":{"ha":413,"x_min":0,"x_max":0,"o":"m 89 -219 l 379 401 l 300 1015 l 119 1015 l 200 417 l -103 -219 z "},"*":{"ha":531,"x_min":0,"x_max":0,"o":"m 465 667 l 560 792 l 389 839 l 576 886 l 525 1010 l 375 881 l 454 1056 l 308 1056 l 326 879 l 219 1008 l 126 883 l 296 838 l 110 790 l 160 667 l 311 796 l 232 619 l 376 619 l 360 796 z "},"†":{"ha":599,"x_min":0,"x_max":0,"o":"m 590 619 l 622 799 l 458 799 l 511 1100 l 335 1100 l 282 799 l 117 799 l 85 619 l 250 619 l 122 -104 l 299 -104 l 426 619 z "},"‡":{"ha":599,"x_min":0,"x_max":0,"o":"m 518 211 l 549 388 l 385 388 l 429 632 l 592 632 l 624 807 l 460 807 l 511 1100 l 335 1100 l 283 807 l 118 807 l 88 632 l 253 632 l 208 388 l 44 388 l 13 211 l 178 211 l 122 -104 l 299 -104 l 354 211 z "},"§":{"ha":685,"x_min":0,"x_max":0,"o":"m 371 439 b 225 568 276 486 217 519 l 225 572 b 272 626 232 603 246 621 b 363 575 300 607 332 590 b 500 442 439 536 511 504 l 500 438 b 468 382 496 411 486 393 b 371 439 439 403 406 422 z m 286 -50 b 558 157 444 -50 533 18 l 560 167 b 524 328 572 233 556 286 b 676 450 593 332 663 369 l 678 454 b 500 700 697 576 621 643 b 347 835 421 739 336 771 l 349 839 b 432 900 356 879 382 900 b 503 804 488 900 514 868 l 497 768 l 668 768 l 674 796 b 439 1039 699 949 615 1039 b 178 847 288 1039 199 963 l 175 838 b 214 678 163 768 181 718 b 49 558 138 683 63 636 l 47 551 b 232 313 24 424 115 372 b 386 171 328 267 397 238 l 386 167 b 296 97 378 118 353 97 b 218 196 235 97 207 132 l 226 246 l 46 246 l 38 207 b 286 -50 7 32 107 -50 z "},"¶":{"ha":829,"x_min":0,"x_max":0,"o":"m 456 0 l 603 846 l 683 846 l 533 0 l 694 0 l 869 996 l 443 996 b 92 713 242 996 125 903 b 351 390 57 525 157 389 l 363 390 l 294 0 z m 374 546 b 267 694 294 546 249 593 b 419 846 285 804 338 846 l 443 846 l 390 546 z "},"^":{"ha":610,"x_min":0,"x_max":0,"o":"m 433 614 l 579 614 l 474 993 l 342 993 l 107 614 l 263 614 l 386 838 z "},"~":{"ha":588,"x_min":0,"x_max":0,"o":"m 138 742 l 247 742 b 289 807 256 788 267 807 b 446 736 335 807 365 736 b 603 933 539 736 579 794 l 493 933 b 449 871 485 885 474 871 b 292 939 410 871 371 939 b 138 742 197 939 163 879 z "},"_":{"ha":642,"x_min":0,"x_max":0,"o":"m -74 -224 l 496 -224 l 522 -69 l -47 -69 z "},"'":{"ha":258,"x_min":0,"x_max":0,"o":"m 119 663 l 229 663 b 308 971 249 715 286 846 l 313 996 l 154 996 l 150 971 b 119 663 128 846 117 714 z "},"\"":{"ha":482,"x_min":0,"x_max":0,"o":"m 344 663 l 453 663 b 533 971 474 715 511 846 l 538 996 l 379 996 l 375 971 b 344 663 353 846 342 714 z m 119 663 l 229 663 b 308 971 249 715 286 846 l 313 996 l 154 996 l 150 971 b 119 663 128 846 117 714 z "},"‴":{"ha":707,"x_min":0,"x_max":0,"o":"m 568 663 l 678 663 b 758 971 699 715 736 846 l 763 996 l 604 996 l 600 971 b 568 663 578 846 565 714 z m 344 663 l 454 663 b 533 971 474 715 511 846 l 538 996 l 379 996 l 375 971 b 344 663 353 846 342 714 z m 119 663 l 229 663 b 308 971 250 715 286 846 l 313 996 l 154 996 l 150 971 b 119 663 128 846 117 714 z "},"@":{"ha":839,"x_min":0,"x_max":0,"o":"m 338 -153 b 665 10 481 -153 588 -101 l 518 31 b 347 -39 476 -15 435 -39 b 140 258 179 -39 104 57 b 199 592 140 258 194 565 b 490 871 232 778 332 871 b 713 604 674 871 742 775 l 661 313 b 593 172 642 201 622 172 b 571 253 564 172 560 192 b 660 760 571 258 660 760 l 575 760 l 542 696 b 442 768 532 736 500 768 b 269 576 357 768 293 714 l 214 263 b 332 63 189 121 238 63 b 451 138 396 63 432 96 b 581 65 468 92 513 65 b 778 306 697 65 749 140 l 829 593 b 500 985 874 838 735 985 b 82 604 288 985 126 854 l 22 258 b 338 -153 -28 -26 108 -153 z m 378 172 b 342 264 338 172 331 197 l 394 564 b 464 660 407 632 425 660 b 499 563 503 660 510 631 l 446 264 b 378 172 433 199 417 172 z "},"©":{"ha":857,"x_min":0,"x_max":0,"o":"m 383 -15 b 806 381 611 -15 754 99 l 840 581 b 507 1007 892 876 719 1007 b 85 610 301 1007 135 904 l 49 407 b 383 -15 -1 121 157 -15 z m 394 108 b 172 399 239 108 138 203 l 210 608 b 494 883 244 808 356 883 b 718 594 642 883 756 801 l 681 381 b 394 108 646 185 551 108 z m 403 167 b 618 376 532 167 596 238 l 629 440 l 497 440 l 486 371 b 418 289 474 306 454 289 b 369 381 375 289 357 311 l 413 625 b 485 713 425 692 446 713 b 532 638 526 713 542 688 l 519 564 l 651 564 l 661 624 b 494 831 683 763 615 831 b 279 624 381 831 306 765 b 239 389 279 622 239 389 b 403 167 217 256 265 167 z "},"®":{"ha":560,"x_min":0,"x_max":0,"o":"m 313 522 b 569 749 447 522 543 599 l 572 763 b 375 1008 600 919 503 1008 b 117 778 250 1008 144 936 l 115 764 b 313 522 88 610 175 522 z m 319 596 b 189 763 217 596 171 660 l 189 771 b 368 933 208 883 272 933 b 497 767 465 933 517 876 l 496 758 b 319 596 478 650 419 596 z m 360 835 b 388 807 383 835 392 824 b 350 781 385 789 372 781 l 322 781 l 331 835 z m 335 725 b 361 694 358 725 365 718 b 354 657 360 693 356 661 b 358 643 353 651 354 644 l 428 643 b 424 656 424 644 422 650 l 431 696 b 413 751 436 726 429 743 b 457 804 436 761 451 776 b 374 890 465 858 433 890 l 274 890 l 231 643 l 299 643 l 313 725 z "},"℗":{"ha":857,"x_min":0,"x_max":0,"o":"m 382 -15 b 806 381 610 -15 754 99 l 840 581 b 507 1007 892 876 719 1007 b 85 610 301 1007 135 904 l 49 407 b 382 -15 -1 121 156 -15 z m 393 108 b 172 399 235 108 138 199 l 210 608 b 494 883 244 814 343 883 b 718 594 642 883 756 801 l 681 381 b 393 108 646 185 550 108 z m 486 710 b 535 654 528 710 542 694 l 513 528 b 444 469 506 486 488 469 l 408 469 l 451 710 z m 436 364 b 632 514 558 364 615 419 l 657 653 b 513 813 675 753 633 813 l 350 813 l 239 178 l 358 178 l 390 364 z "},"™":{"ha":676,"x_min":0,"x_max":0,"o":"m 353 901 l 369 996 l 133 996 l 117 901 l 185 901 l 128 574 l 226 574 l 283 901 z m 458 774 l 461 806 l 463 800 l 503 672 l 515 672 l 601 800 l 594 774 l 560 574 l 650 574 l 724 996 l 639 996 l 538 824 l 493 996 l 408 996 l 335 574 l 424 574 z "},"℠":{"ha":697,"x_min":0,"x_max":0,"o":"m 486 774 l 489 800 l 531 672 l 543 672 l 628 800 l 621 774 l 586 574 l 678 574 l 751 996 l 665 996 l 564 826 l 519 996 l 435 996 l 361 574 l 451 574 z m 194 567 b 335 676 276 567 321 603 l 338 693 b 269 826 353 775 314 804 b 215 886 231 846 211 857 l 218 899 b 253 931 222 919 233 931 b 275 893 274 931 279 915 l 268 858 l 363 858 b 369 896 364 861 369 896 b 260 1006 381 963 344 1006 b 124 900 178 1006 136 967 l 121 889 b 190 764 108 822 142 788 b 244 703 222 747 250 735 l 240 683 b 206 649 236 660 226 649 b 178 689 179 649 174 664 l 186 732 l 88 732 l 79 685 b 194 567 65 610 101 567 z "},"€":{"ha":700,"x_min":0,"x_max":0,"o":"m 654 297 l 658 326 l 468 326 l 464 301 b 351 151 444 188 414 151 b 272 307 289 151 251 189 l 283 369 l 479 369 l 531 472 l 301 472 l 313 539 l 564 539 l 615 642 l 331 642 l 342 704 b 461 850 361 811 394 850 b 535 711 533 850 553 808 l 532 692 l 722 692 l 724 700 b 475 1010 761 907 657 1010 b 156 692 308 1010 194 928 l 147 642 l 69 642 l 51 539 l 129 539 l 117 472 l 39 472 l 21 369 l 99 369 l 92 331 b 343 -15 54 117 125 -15 b 654 297 535 -15 618 89 z "},"$":{"ha":614,"x_min":0,"x_max":0,"o":"m 300 -147 l 324 -11 b 553 236 461 7 526 86 l 560 283 b 410 561 586 440 496 506 b 282 738 325 617 265 651 l 288 769 b 382 863 299 829 328 863 b 456 760 443 863 468 828 l 438 660 l 615 660 l 632 756 b 507 993 651 869 608 957 l 535 1149 l 364 1149 l 339 1008 b 110 782 218 993 133 921 l 103 742 b 253 458 75 576 168 513 b 379 275 326 411 396 369 l 372 239 b 272 144 363 183 339 144 b 193 258 210 144 179 178 l 213 375 l 28 375 l 10 275 b 154 -4 -18 126 26 29 l 129 -147 z "},"¢":{"ha":625,"x_min":0,"x_max":0,"o":"m 550 226 l 574 354 l 392 354 l 375 260 b 275 143 363 182 338 143 b 203 268 210 143 188 186 l 250 542 b 356 665 265 631 296 665 b 424 538 418 665 440 631 l 411 465 l 594 465 l 603 518 b 478 801 628 663 586 763 l 503 946 l 333 946 l 310 814 b 79 574 186 794 104 708 l 29 290 b 165 -1 4 144 39 33 l 139 -150 l 310 -150 l 335 -8 b 550 226 457 14 528 97 z "},"£":{"ha":694,"x_min":0,"x_max":0,"o":"m 410 -18 b 631 215 540 -18 600 38 l 644 288 l 474 288 l 464 233 b 388 128 450 154 432 128 b 313 154 361 128 336 139 b 339 247 324 182 333 214 b 350 393 347 300 350 347 l 485 393 l 507 517 l 340 517 b 332 761 332 601 317 676 b 418 854 343 825 371 854 b 475 761 468 854 488 824 l 465 701 l 643 703 l 653 760 b 432 1011 679 917 601 1011 b 160 785 268 1011 183 919 b 188 517 142 675 167 593 l 86 517 l 65 393 l 213 393 b 226 232 226 342 236 290 l 222 211 b 110 242 190 229 154 242 b -37 126 36 242 -24 201 b 93 -18 -53 43 -14 -18 b 243 49 149 -18 201 6 b 410 -18 286 14 339 -18 z m 106 85 b 75 114 85 85 72 96 b 111 142 78 131 92 142 b 172 111 131 142 150 129 b 106 85 153 93 131 85 z "},"ƒ":{"ha":443,"x_min":0,"x_max":0,"o":"m 232 -17 l 304 386 l 421 386 l 449 547 l 332 547 l 382 825 b 463 910 393 894 408 910 l 513 910 l 540 1063 l 463 1063 b 210 843 310 1063 239 1004 l 158 547 l 46 547 l 17 386 l 129 386 l 63 4 b -17 -72 51 -60 36 -72 l -71 -72 l -97 -229 l -18 -229 b 232 -17 144 -229 204 -178 z "},"¥":{"ha":599,"x_min":0,"x_max":0,"o":"m 492 189 l 514 315 l 374 315 l 386 383 l 526 383 l 550 511 l 418 511 l 703 996 l 515 996 l 346 693 l 343 688 l 343 694 l 288 996 l 106 996 l 211 511 l 90 511 l 68 383 l 201 383 l 189 315 l 56 315 l 33 189 l 168 189 l 135 0 l 318 0 l 351 189 z "},"₡":{"ha":724,"x_min":0,"x_max":0,"o":"m 182 -158 l 276 -158 l 328 -15 b 669 301 519 -11 632 89 l 690 415 l 506 415 l 488 310 b 333 149 467 192 411 149 b 215 321 253 149 192 192 l 279 683 b 440 850 299 801 360 850 b 554 700 531 850 574 801 l 536 596 l 719 596 l 739 708 b 649 956 760 822 722 906 l 714 1136 l 621 1136 l 569 992 b 526 1001 556 996 542 999 l 574 1136 l 481 1136 l 435 1007 b 101 690 265 1000 139 906 l 36 318 b 115 42 13 192 43 97 l 42 -158 l 136 -158 l 194 1 b 236 -8 207 -3 221 -6 z "},"₢":{"ha":719,"x_min":0,"x_max":0,"o":"m 660 278 l 676 374 l 506 374 l 493 299 b 390 139 476 199 446 154 l 424 328 b 544 442 442 426 453 442 l 629 442 l 658 601 l 610 601 b 442 488 522 601 471 568 l 439 599 l 328 599 l 247 149 b 204 322 203 171 188 224 l 267 676 b 439 854 290 808 346 854 b 557 701 538 854 578 806 l 550 663 l 724 663 l 731 699 b 451 1004 763 879 664 1004 b 99 681 261 1004 138 910 b 39 338 99 679 39 338 b 322 -15 -3 118 96 -15 b 660 278 513 -15 624 74 z "},"₣":{"ha":546,"x_min":0,"x_max":0,"o":"m 461 210 l 488 357 l 233 357 l 249 444 l 503 444 l 529 592 l 275 592 l 317 832 l 583 832 l 613 996 l 169 996 l -6 0 l 171 0 l 208 210 z "},"₤":{"ha":694,"x_min":0,"x_max":0,"o":"m 410 -18 b 631 215 540 -18 600 38 l 644 288 l 474 288 l 464 233 b 388 128 450 154 432 128 b 317 150 363 128 340 138 b 342 238 328 176 336 206 b 351 346 349 275 351 310 l 478 346 l 496 444 l 347 444 b 340 500 344 464 343 482 l 506 500 l 522 599 l 329 599 b 332 761 324 656 322 710 b 418 854 343 825 371 854 b 475 761 468 854 488 824 l 465 701 l 643 703 l 653 760 b 432 1011 679 917 601 1011 b 161 786 268 1011 185 921 b 168 599 149 721 156 658 l 86 599 l 69 500 l 193 500 b 210 444 199 482 204 463 l 58 444 l 42 346 l 232 346 b 232 226 238 307 239 267 b 228 208 231 219 229 214 b 110 242 194 226 157 242 b -37 126 36 242 -24 201 b 93 -18 -53 43 -14 -18 b 247 46 150 -18 203 4 b 410 -18 289 11 342 -18 z m 106 85 b 75 114 85 85 72 96 b 111 142 78 131 92 142 b 175 108 132 142 151 128 b 106 85 154 92 131 85 z "},"₦":{"ha":843,"x_min":0,"x_max":0,"o":"m 314 586 l 331 749 l 342 632 l 481 0 l 654 0 l 718 360 l 825 360 l 844 469 l 736 469 l 747 531 l 854 531 l 875 640 l 767 640 l 829 996 l 664 996 l 564 424 l 542 250 l 532 374 l 399 996 l 221 996 l 158 640 l 54 640 l 35 531 l 139 531 l 128 469 l 24 469 l 4 360 l 110 360 l 46 0 l 211 0 z "},"₧":{"ha":1594,"x_min":0,"x_max":0,"o":"m 394 843 b 482 735 467 843 494 807 l 457 588 b 322 469 443 504 400 469 l 253 469 l 318 843 z m 307 313 b 629 554 507 313 600 393 l 644 636 l 756 636 l 690 265 b 896 0 657 75 713 0 l 1260 0 b 1543 211 1431 0 1518 65 l 1544 219 b 1393 471 1572 372 1478 426 b 1267 610 1321 507 1254 536 l 1268 614 b 1353 679 1275 653 1301 679 b 1424 589 1407 679 1436 651 l 1415 543 l 1585 543 l 1592 581 b 1360 821 1618 736 1536 821 b 1097 626 1211 821 1119 740 l 1096 615 b 1242 364 1067 463 1157 408 b 1367 224 1313 328 1379 297 l 1365 218 b 1254 154 1357 171 1314 154 l 947 154 b 863 292 867 154 846 182 l 924 636 l 1044 636 l 1074 807 l 954 807 l 981 958 l 853 958 b 822 868 843 921 836 896 b 767 811 807 839 792 824 b 665 796 746 800 693 797 b 428 996 661 919 586 996 l 168 996 l -7 0 l 169 0 l 225 313 z "},"₨":{"ha":1210,"x_min":0,"x_max":0,"o":"m 863 -7 b 1156 213 1035 -7 1131 65 l 1157 219 b 1004 471 1183 372 1089 428 b 879 610 932 507 867 536 l 879 614 b 964 679 886 653 914 679 b 1036 589 1018 679 1047 651 l 1026 543 l 1196 543 l 1203 581 b 971 821 1231 736 1147 821 b 710 626 822 821 732 740 l 707 615 b 856 364 678 463 769 407 b 978 224 926 328 992 297 l 978 219 b 863 147 969 172 922 147 l 824 147 b 646 263 739 147 686 171 l 613 336 b 493 458 585 399 553 438 b 636 625 581 482 621 533 l 654 726 b 429 996 685 901 613 996 l 168 996 l -7 0 l 167 0 l 233 381 l 296 381 b 449 268 385 381 421 332 l 481 190 b 792 -7 538 53 613 -7 z m 394 843 b 481 739 467 843 494 813 l 465 647 b 335 539 451 571 422 539 l 261 539 l 315 843 z "},"₩":{"ha":958,"x_min":0,"x_max":0,"o":"m 489 554 l 532 722 l 517 554 l 521 0 l 671 0 l 799 365 l 942 365 l 961 474 l 838 474 l 860 536 l 972 536 l 992 646 l 897 646 l 1021 996 l 863 996 l 679 442 l 631 236 l 643 431 l 640 996 l 521 996 l 313 431 l 257 247 l 283 442 l 304 996 l 150 996 l 143 646 l 51 646 l 32 536 l 142 536 l 140 474 l 21 474 l 1 365 l 139 365 l 132 0 l 283 0 z "},"₪":{"ha":976,"x_min":0,"x_max":0,"o":"m 417 854 b 572 636 546 854 600 797 l 497 217 l 511 217 b 682 376 611 217 658 251 l 728 643 b 444 996 771 874 642 996 l 169 996 l -6 0 l 151 0 l 301 854 z m 529 0 b 908 350 753 0 869 128 l 1022 996 l 864 996 l 756 378 b 518 144 725 207 639 144 l 410 144 b 493 622 425 229 492 614 b 382 785 517 754 492 785 l 365 785 l 228 0 z "},"₮":{"ha":563,"x_min":0,"x_max":0,"o":"m 485 408 l 503 507 l 382 463 l 393 528 l 514 572 l 531 672 l 410 629 l 446 832 l 611 832 l 640 996 l 132 996 l 103 832 l 268 832 l 221 560 l 103 517 l 85 417 l 203 460 l 192 394 l 74 351 l 57 251 l 174 294 l 122 0 l 300 0 l 364 364 z "},"₱":{"ha":694,"x_min":0,"x_max":0,"o":"m 408 851 b 511 743 482 851 515 810 l 313 743 l 332 851 z m 485 589 l 286 589 l 297 653 l 496 653 z m 319 388 l 250 388 l 269 499 l 468 499 b 319 388 450 419 400 388 z m 307 240 b 638 490 504 240 608 319 l 639 499 l 701 499 l 717 589 l 656 589 l 667 653 l 728 653 l 744 743 l 681 743 b 439 996 692 886 618 996 l 189 996 l 144 743 l 74 743 l 57 653 l 129 653 l 118 589 l 46 589 l 31 499 l 101 499 l 14 0 l 182 0 l 224 240 z "},"฿":{"ha":714,"x_min":0,"x_max":0,"o":"m 269 585 l 315 850 l 390 850 l 343 585 z m 550 764 l 535 679 b 443 586 525 618 499 590 l 490 849 b 550 764 539 843 558 813 z m 194 156 l 243 435 l 317 435 l 267 156 z m 482 340 l 465 253 b 368 156 454 186 431 160 l 417 433 b 482 340 476 429 492 401 z m 363 0 b 643 221 546 0 615 64 l 660 318 b 582 511 678 417 654 479 b 710 676 654 535 694 585 l 724 757 b 515 996 747 900 688 989 l 535 1103 l 435 1103 l 415 996 l 168 996 l -7 0 l 240 0 l 219 -115 l 319 -115 l 340 0 z "},"#":{"ha":904,"x_min":0,"x_max":0,"o":"m 511 399 l 369 399 l 433 617 l 575 617 z m 397 0 l 567 0 l 638 247 l 807 247 l 833 399 l 681 399 l 744 617 l 906 617 l 932 768 l 788 768 l 853 996 l 683 996 l 618 768 l 476 768 l 542 996 l 372 996 l 307 768 l 138 768 l 111 617 l 263 617 l 200 399 l 39 399 l 13 247 l 156 247 l 85 0 l 256 0 l 326 247 l 468 247 z "},"⁰":{"ha":378,"x_min":0,"x_max":0,"o":"m 218 489 b 385 651 318 489 365 542 l 417 833 b 283 1004 438 951 371 1004 b 114 843 197 1004 135 960 l 82 667 b 218 489 63 558 106 489 z m 225 593 b 196 663 197 593 188 611 l 226 838 b 274 904 235 886 247 904 b 303 838 301 904 311 888 l 272 660 b 225 593 264 611 251 593 z "},"¹":{"ha":310,"x_min":0,"x_max":0,"o":"m 299 499 l 317 603 l 246 603 l 314 996 l 226 996 b 131 918 210 946 179 921 l 117 833 l 179 833 l 139 603 l 61 603 l 44 499 z "},"²":{"ha":361,"x_min":0,"x_max":0,"o":"m 346 499 l 364 604 l 188 604 b 292 697 206 643 249 668 b 406 844 342 731 393 769 l 410 867 b 275 1004 425 947 382 1004 b 118 881 182 1004 131 953 l 104 801 l 218 801 l 229 869 b 269 908 235 896 246 908 b 299 869 293 908 303 896 l 294 846 b 183 743 286 801 235 776 b 64 579 132 707 78 663 l 50 499 z "},"³":{"ha":361,"x_min":0,"x_max":0,"o":"m 206 489 b 364 614 303 489 350 533 l 371 653 b 333 751 381 701 368 735 b 399 843 374 765 390 797 l 404 871 b 271 1003 421 954 369 1003 b 117 885 179 1003 131 957 b 107 828 117 885 107 832 l 217 828 l 224 872 b 264 907 229 894 238 907 b 293 865 292 907 299 890 l 289 836 b 240 796 283 807 272 796 l 203 796 l 186 706 l 222 706 b 260 667 254 706 265 696 l 254 632 b 213 590 249 604 239 590 b 182 639 183 590 176 606 l 188 676 l 75 676 b 68 638 74 675 69 646 b 206 489 50 540 92 489 z "},"⁴":{"ha":368,"x_min":0,"x_max":0,"o":"m 260 794 l 272 819 l 265 793 l 246 679 l 176 679 z m 382 588 l 399 679 l 346 679 l 400 996 l 301 996 l 67 668 l 51 588 l 231 588 l 215 499 l 314 499 l 329 588 z "},"⁵":{"ha":367,"x_min":0,"x_max":0,"o":"m 207 489 b 372 622 307 489 357 536 l 389 715 b 292 843 406 801 364 843 b 215 810 257 843 235 831 b 242 897 222 835 233 868 l 306 897 b 421 990 389 897 408 918 l 422 996 l 169 996 l 99 744 l 193 717 l 200 728 b 247 754 211 743 225 754 b 276 715 272 754 281 740 l 263 633 b 219 590 258 608 247 590 b 189 635 193 590 185 607 l 197 678 l 82 678 l 75 644 b 207 489 57 543 99 489 z "},"⁶":{"ha":375,"x_min":0,"x_max":0,"o":"m 379 626 l 388 675 b 297 799 401 754 367 799 b 208 756 257 799 228 785 l 224 847 b 275 910 232 890 244 910 b 304 863 299 910 311 897 l 299 831 l 411 831 l 414 851 b 285 1004 431 947 385 1004 b 113 849 193 1004 132 958 l 79 663 b 219 489 60 551 100 489 b 379 626 315 489 363 540 z m 222 588 b 190 654 190 588 181 604 l 199 700 b 243 724 210 715 225 724 b 279 676 272 724 285 710 l 272 636 b 222 588 265 601 253 588 z "},"⁷":{"ha":328,"x_min":0,"x_max":0,"o":"m 193 499 b 393 906 242 654 310 785 l 408 996 l 126 996 l 107 890 l 275 890 b 67 499 204 790 122 657 z "},"⁸":{"ha":376,"x_min":0,"x_max":0,"o":"m 208 489 b 378 617 315 489 361 531 l 385 654 b 347 756 394 707 378 739 b 413 843 381 768 401 793 l 417 871 b 285 1004 435 963 376 1004 b 125 883 197 1004 140 968 l 121 854 b 153 760 113 801 125 774 b 79 669 115 747 89 719 l 72 632 b 208 489 54 538 99 489 z m 256 797 b 226 839 228 797 221 813 l 232 872 b 276 914 236 903 250 914 b 310 865 306 914 318 904 l 306 838 b 260 797 300 810 288 797 z m 222 588 b 186 636 192 588 178 597 l 192 672 b 240 717 197 701 211 717 l 244 717 b 281 674 275 717 285 701 l 272 632 b 222 588 265 596 250 588 z "},"⁹":{"ha":374,"x_min":0,"x_max":0,"o":"m 250 772 b 214 818 221 772 208 785 l 221 857 b 271 908 225 893 242 908 b 304 840 301 908 313 890 l 297 797 b 250 772 285 781 269 772 z m 206 488 b 379 643 306 488 360 533 l 413 831 b 272 1003 432 940 385 1003 b 114 868 179 1003 129 953 l 106 821 b 194 696 92 742 125 696 b 288 744 235 696 267 713 l 269 644 b 218 585 263 603 249 585 b 189 631 196 585 183 596 l 197 668 l 79 668 l 74 639 b 206 488 57 543 100 488 z "},"⁺":{"ha":356,"x_min":0,"x_max":0,"o":"m 360 697 l 376 793 l 293 793 l 308 878 l 211 878 l 196 793 l 114 793 l 96 697 l 179 697 l 164 611 l 261 611 l 276 697 z "},"⁻":{"ha":356,"x_min":0,"x_max":0,"o":"m 97 694 l 358 694 l 376 797 l 115 797 z "},"⁼":{"ha":354,"x_min":0,"x_max":0,"o":"m 115 768 l 365 768 l 381 860 l 131 860 z m 90 629 l 340 629 l 356 721 l 106 721 z "},"⁽":{"ha":269,"x_min":0,"x_max":0,"o":"m 238 378 l 258 499 b 196 633 200 503 179 535 l 235 847 b 344 990 251 949 285 985 l 364 1103 b 126 871 236 1096 157 1043 l 85 642 b 238 378 54 461 110 385 z "},"⁾":{"ha":269,"x_min":0,"x_max":0,"o":"m 22 378 b 260 610 151 383 229 438 l 300 839 b 149 1103 332 1018 276 1096 l 129 983 b 190 847 186 981 207 946 l 151 633 b 42 492 135 532 103 497 z "},"₀":{"ha":378,"x_min":0,"x_max":0,"o":"m 132 -10 b 299 153 232 -10 279 43 l 331 335 b 197 506 351 453 285 506 b 28 344 111 506 49 461 l -4 168 b 132 -10 -24 60 19 -10 z m 139 94 b 110 164 111 94 101 113 l 140 339 b 188 406 149 388 161 406 b 217 339 215 406 225 389 l 186 161 b 139 94 178 113 165 94 z "},"₁":{"ha":310,"x_min":0,"x_max":0,"o":"m 213 0 l 231 104 l 160 104 l 228 497 l 140 497 b 44 419 124 447 93 422 l 31 335 l 93 335 l 53 104 l -25 104 l -42 0 z "},"₂":{"ha":361,"x_min":0,"x_max":0,"o":"m 260 0 l 278 106 l 101 106 b 206 199 119 144 163 169 b 319 346 256 232 307 271 l 324 368 b 189 506 339 449 296 506 b 32 382 96 506 44 454 l 18 303 l 132 303 l 143 371 b 183 410 149 397 160 410 b 213 371 207 410 217 397 l 208 347 b 97 244 200 303 149 278 b -22 81 46 208 -8 164 l -36 0 z "},"₃":{"ha":361,"x_min":0,"x_max":0,"o":"m 119 -10 b 278 115 217 -10 264 35 l 285 154 b 247 253 294 203 282 236 b 313 344 288 267 304 299 l 318 372 b 185 504 335 456 283 504 b 31 386 93 504 44 458 b 21 329 31 386 21 333 l 131 329 l 138 374 b 178 408 143 396 151 408 b 207 367 206 408 213 392 l 203 338 b 154 297 197 308 186 297 l 117 297 l 100 207 l 136 207 b 174 168 168 207 179 197 l 168 133 b 126 92 163 106 153 92 b 96 140 97 92 90 107 l 101 178 l -11 178 b -18 139 -12 176 -17 147 b 119 -10 -36 42 6 -10 z "},"₄":{"ha":368,"x_min":0,"x_max":0,"o":"m 174 296 l 186 321 l 179 294 l 160 181 l 90 181 z m 296 89 l 313 181 l 260 181 l 314 497 l 215 497 l -19 169 l -35 89 l 144 89 l 129 0 l 228 0 l 243 89 z "},"₅":{"ha":367,"x_min":0,"x_max":0,"o":"m 121 -10 b 286 124 221 -10 271 38 l 303 217 b 206 344 319 303 278 344 b 129 311 171 344 149 332 b 156 399 136 336 147 369 l 219 399 b 335 492 303 399 322 419 l 336 497 l 83 497 l 13 246 l 107 218 l 114 229 b 161 256 125 244 139 256 b 190 217 186 256 194 242 l 176 135 b 133 92 172 110 161 92 b 103 136 107 92 99 108 l 111 179 l -4 179 l -11 146 b 121 -10 -29 44 13 -10 z "},"₆":{"ha":375,"x_min":0,"x_max":0,"o":"m 293 128 l 301 176 b 211 300 315 256 281 300 b 122 257 171 300 142 286 l 138 349 b 189 411 146 392 158 411 b 218 364 213 411 225 399 l 213 332 l 325 332 l 328 353 b 199 506 344 449 299 506 b 26 350 107 506 46 460 l -7 164 b 133 -10 -26 53 14 -10 b 293 128 229 -10 276 42 z m 136 89 b 104 156 104 89 94 106 l 113 201 b 157 225 124 217 139 225 b 193 178 186 225 199 211 l 186 138 b 136 89 179 103 167 89 z "},"₇":{"ha":328,"x_min":0,"x_max":0,"o":"m 107 0 b 307 407 156 156 224 286 l 322 497 l 40 497 l 21 392 l 189 392 b -19 0 118 292 36 158 z "},"₈":{"ha":376,"x_min":0,"x_max":0,"o":"m 122 -10 b 292 118 229 -10 275 32 l 299 156 b 261 257 308 208 292 240 b 326 344 294 269 315 294 l 331 372 b 199 506 349 464 290 506 b 39 385 111 506 54 469 l 35 356 b 67 261 26 303 39 275 b -7 171 29 249 3 221 l -14 133 b 122 -10 -32 39 13 -10 z m 169 299 b 140 340 142 299 135 314 l 146 374 b 190 415 150 404 164 415 b 224 367 219 415 232 406 l 219 339 b 174 299 214 311 201 299 z m 136 89 b 100 138 106 89 92 99 l 106 174 b 154 218 111 203 125 218 l 158 218 b 194 175 189 218 199 203 l 186 133 b 136 89 179 97 164 89 z "},"₉":{"ha":374,"x_min":0,"x_max":0,"o":"m 164 274 b 128 319 135 274 122 286 l 135 358 b 185 410 139 394 156 410 b 218 342 215 410 226 392 l 211 299 b 164 274 199 282 183 274 z m 119 -11 b 293 144 219 -11 274 35 l 326 332 b 186 504 346 442 299 504 b 28 369 93 504 43 454 l 19 322 b 108 197 6 243 39 197 b 201 246 149 197 181 214 l 183 146 b 132 86 176 104 163 86 b 103 132 110 86 97 97 l 111 169 l -7 169 l -12 140 b 119 -11 -29 44 14 -11 z "},"₊":{"ha":356,"x_min":0,"x_max":0,"o":"m 274 199 l 290 294 l 207 294 l 222 379 l 125 379 l 110 294 l 28 294 l 10 199 l 93 199 l 78 113 l 175 113 l 190 199 z "},"₋":{"ha":356,"x_min":0,"x_max":0,"o":"m 11 196 l 272 196 l 290 299 l 29 299 z "},"₌":{"ha":354,"x_min":0,"x_max":0,"o":"m 29 269 l 279 269 l 294 361 l 44 361 z m 4 131 l 254 131 l 269 222 l 19 222 z "},"₍":{"ha":269,"x_min":0,"x_max":0,"o":"m 151 -121 l 172 0 b 110 135 114 4 93 36 l 149 349 b 258 492 165 450 199 486 l 278 604 b 40 372 150 597 71 544 l -1 143 b 151 -121 -32 -37 24 -114 z "},"₎":{"ha":269,"x_min":0,"x_max":0,"o":"m -64 -121 b 174 111 65 -115 143 -61 l 214 340 b 63 604 246 519 190 597 l 43 485 b 104 349 100 482 121 447 l 65 135 b -44 -7 49 33 17 -1 z "},"⁄":{"ha":833,"x_min":0,"x_max":0,"o":"m 511 554 l 879 939 l 742 1031 l 472 583 z m 142 -31 l 411 436 l 375 464 l 1 69 z "},"⅟":{"ha":833,"x_min":0,"x_max":0,"o":"m 510 554 l 878 939 l 740 1031 l 471 583 z m 140 -31 l 410 436 l 374 464 l 0 69 z m 346 499 l 364 603 l 293 603 l 361 996 l 274 996 b 178 918 257 946 226 921 l 164 833 l 226 833 l 186 603 l 108 603 l 92 499 z "},"½":{"ha":833,"x_min":0,"x_max":0,"o":"m 510 554 l 878 939 l 740 1031 l 471 583 z m 140 -31 l 410 436 l 374 464 l 0 69 z m 346 499 l 364 603 l 293 603 l 361 996 l 274 996 b 178 918 257 946 226 921 l 164 833 l 226 833 l 186 603 l 108 603 l 92 499 z m 701 0 l 719 106 l 543 106 b 647 199 561 144 604 169 b 761 346 697 232 749 271 l 765 368 b 631 506 781 449 738 506 b 474 382 538 506 486 454 l 460 303 l 574 303 l 585 371 b 625 410 590 397 601 410 b 654 371 649 410 658 397 l 650 347 b 539 244 642 303 590 278 b 419 81 488 208 433 164 l 406 0 z "},"⅓":{"ha":833,"x_min":0,"x_max":0,"o":"m 510 554 l 878 939 l 740 1031 l 471 583 z m 140 -31 l 410 436 l 374 464 l 0 69 z m 346 499 l 364 603 l 293 603 l 361 996 l 274 996 b 178 918 257 946 226 921 l 164 833 l 226 833 l 186 603 l 108 603 l 92 499 z m 554 -10 b 713 115 651 -10 699 35 l 719 154 b 682 253 729 203 717 236 b 747 344 722 267 739 299 l 753 372 b 619 504 769 456 718 504 b 465 386 528 504 479 458 b 456 329 465 386 456 333 l 565 329 l 572 374 b 613 408 578 396 586 408 b 642 367 640 408 647 392 l 638 338 b 589 297 632 308 621 297 l 551 297 l 535 207 l 571 207 b 608 168 603 207 614 197 l 603 133 b 561 92 597 106 588 92 b 531 140 532 92 525 107 l 536 178 l 424 178 b 417 139 422 176 418 147 b 554 -10 399 42 440 -10 z "},"⅔":{"ha":833,"x_min":0,"x_max":0,"o":"m 510 554 l 878 939 l 740 1031 l 471 583 z m 140 -31 l 410 436 l 374 464 l 0 69 z m 369 499 l 388 604 l 211 604 b 315 697 229 643 272 668 b 429 844 365 731 417 769 l 433 867 b 299 1004 449 947 406 1004 b 142 881 206 1004 154 953 l 128 801 l 242 801 l 253 869 b 293 908 258 896 269 908 b 322 869 317 908 326 896 l 318 846 b 207 743 310 801 258 776 b 88 579 156 707 101 663 l 74 499 z m 554 -10 b 713 115 651 -10 699 35 l 719 154 b 682 253 729 203 717 236 b 747 344 722 267 739 299 l 753 372 b 619 504 769 456 718 504 b 465 386 528 504 479 458 b 456 329 465 386 456 333 l 565 329 l 572 374 b 613 408 578 396 586 408 b 642 367 640 408 647 392 l 638 338 b 589 297 632 308 621 297 l 551 297 l 535 207 l 571 207 b 608 168 603 207 614 197 l 603 133 b 561 92 597 106 588 92 b 531 140 532 92 525 107 l 536 178 l 424 178 b 417 139 422 176 418 147 b 554 -10 399 42 440 -10 z "},"¼":{"ha":833,"x_min":0,"x_max":0,"o":"m 510 554 l 878 939 l 740 1031 l 471 583 z m 140 -31 l 410 436 l 374 464 l 0 69 z m 585 296 l 597 321 l 590 294 l 571 181 l 501 181 z m 707 89 l 724 181 l 671 181 l 725 497 l 626 497 l 392 169 l 376 89 l 556 89 l 540 0 l 639 0 l 654 89 z m 346 499 l 364 603 l 293 603 l 361 996 l 274 996 b 178 918 257 946 226 921 l 164 833 l 226 833 l 186 603 l 108 603 l 92 499 z "},"¾":{"ha":833,"x_min":0,"x_max":0,"o":"m 510 554 l 878 939 l 740 1031 l 471 583 z m 140 -31 l 410 436 l 374 464 l 0 69 z m 583 296 l 596 321 l 589 294 l 569 181 l 500 181 z m 706 89 l 722 181 l 669 181 l 724 497 l 625 497 l 390 169 l 375 89 l 554 89 l 539 0 l 638 0 l 653 89 z m 224 489 b 382 614 321 489 368 533 l 389 653 b 351 751 399 701 386 735 b 417 843 392 765 408 797 l 422 871 b 289 1003 439 954 388 1003 b 135 885 197 1003 149 957 b 125 828 135 885 125 832 l 235 828 l 242 872 b 282 907 247 894 256 907 b 311 865 310 907 317 890 l 307 836 b 258 796 301 807 290 796 l 221 796 l 204 706 l 240 706 b 278 667 272 706 283 696 l 272 632 b 231 590 267 604 257 590 b 200 639 201 590 194 606 l 206 676 l 93 676 b 86 638 92 675 88 646 b 224 489 68 540 110 489 z "},"⅕":{"ha":833,"x_min":0,"x_max":0,"o":"m 510 554 l 878 939 l 740 1031 l 471 583 z m 140 -31 l 410 436 l 374 464 l 0 69 z m 556 -10 b 721 124 656 -10 706 38 l 738 217 b 640 344 754 303 713 344 b 564 311 606 344 583 332 b 590 399 571 336 582 369 l 654 399 b 769 492 738 399 757 419 l 771 497 l 518 497 l 447 246 l 542 218 l 549 229 b 596 256 560 244 574 256 b 625 217 621 256 629 242 l 611 135 b 568 92 607 110 596 92 b 538 136 542 92 533 108 l 546 179 l 431 179 l 424 146 b 556 -10 406 44 447 -10 z m 346 499 l 364 603 l 293 603 l 361 996 l 274 996 b 178 918 257 946 226 921 l 164 833 l 226 833 l 186 603 l 108 603 l 92 499 z "},"⅖":{"ha":833,"x_min":0,"x_max":0,"o":"m 510 554 l 878 939 l 740 1031 l 471 583 z m 140 -31 l 410 436 l 374 464 l 0 69 z m 556 -10 b 721 124 656 -10 706 38 l 738 217 b 640 344 754 303 713 344 b 564 311 606 344 583 332 b 590 399 571 336 582 369 l 654 399 b 769 492 738 399 757 419 l 771 497 l 518 497 l 447 246 l 542 218 l 549 229 b 596 256 560 244 574 256 b 625 217 621 256 629 242 l 611 135 b 568 92 607 110 596 92 b 538 136 542 92 533 108 l 546 179 l 431 179 l 424 146 b 556 -10 406 44 447 -10 z m 371 499 l 389 604 l 213 604 b 317 697 231 643 274 668 b 431 844 367 731 418 769 l 435 867 b 300 1004 450 947 407 1004 b 143 881 207 1004 156 953 l 129 801 l 243 801 l 254 869 b 294 908 260 896 271 908 b 324 869 318 908 328 896 l 319 846 b 208 743 311 801 260 776 b 89 579 157 707 103 663 l 75 499 z "},"⅗":{"ha":833,"x_min":0,"x_max":0,"o":"m 510 554 l 878 939 l 740 1031 l 471 583 z m 140 -31 l 410 436 l 374 464 l 0 69 z m 556 -10 b 721 124 656 -10 706 38 l 738 217 b 640 344 754 303 713 344 b 564 311 606 344 583 332 b 590 399 571 336 582 369 l 654 399 b 769 492 738 399 757 419 l 771 497 l 518 497 l 447 246 l 542 218 l 549 229 b 596 256 560 244 574 256 b 625 217 621 256 629 242 l 611 135 b 568 92 607 110 596 92 b 538 136 542 92 533 108 l 546 179 l 431 179 l 424 146 b 556 -10 406 44 447 -10 z m 225 489 b 383 614 322 489 369 533 l 390 653 b 353 751 400 701 388 735 b 418 843 393 765 410 797 l 424 871 b 290 1003 440 954 389 1003 b 136 885 199 1003 150 957 b 126 828 136 885 126 832 l 236 828 l 243 872 b 283 907 249 894 257 907 b 313 865 311 907 318 890 l 308 836 b 260 796 303 807 292 796 l 222 796 l 206 706 l 242 706 b 279 667 274 706 285 696 l 274 632 b 232 590 268 604 258 590 b 201 639 203 590 196 606 l 207 676 l 94 676 b 88 638 93 675 89 646 b 225 489 69 540 111 489 z "},"⅘":{"ha":833,"x_min":0,"x_max":0,"o":"m 510 554 l 878 939 l 740 1031 l 471 583 z m 140 -31 l 410 436 l 374 464 l 0 69 z m 556 -10 b 721 124 656 -10 706 38 l 738 217 b 640 344 754 303 713 344 b 564 311 606 344 583 332 b 590 399 571 336 582 369 l 654 399 b 769 492 738 399 757 419 l 771 497 l 518 497 l 447 246 l 542 218 l 549 229 b 596 256 560 244 574 256 b 625 217 621 256 629 242 l 611 135 b 568 92 607 110 596 92 b 538 136 542 92 533 108 l 546 179 l 431 179 l 424 146 b 556 -10 406 44 447 -10 z m 282 794 l 294 819 l 288 793 l 268 679 l 199 679 z m 404 588 l 421 679 l 368 679 l 422 996 l 324 996 l 89 668 l 74 588 l 253 588 l 238 499 l 336 499 l 351 588 z "},"⅙":{"ha":833,"x_min":0,"x_max":0,"o":"m 510 554 l 878 939 l 740 1031 l 471 583 z m 140 -31 l 410 436 l 374 464 l 0 69 z m 346 499 l 364 603 l 293 603 l 361 996 l 274 996 b 178 918 257 946 226 921 l 164 833 l 226 833 l 186 603 l 108 603 l 92 499 z m 719 128 l 728 176 b 638 300 742 256 707 300 b 549 257 597 300 568 286 l 564 349 b 615 411 572 392 585 411 b 644 364 639 411 651 399 l 639 332 l 751 332 l 754 353 b 625 506 771 449 725 506 b 453 350 533 506 472 460 l 419 164 b 560 -10 400 53 440 -10 b 719 128 656 -10 703 42 z m 563 89 b 531 156 531 89 521 106 l 539 201 b 583 225 550 217 565 225 b 619 178 613 225 625 211 l 613 138 b 563 89 606 103 593 89 z "},"⅚":{"ha":833,"x_min":0,"x_max":0,"o":"m 510 554 l 878 939 l 740 1031 l 471 583 z m 140 -31 l 410 436 l 374 464 l 0 69 z m 222 489 b 388 622 322 489 372 536 l 404 715 b 307 843 421 801 379 843 b 231 810 272 843 250 831 b 257 897 238 835 249 868 l 321 897 b 436 990 404 897 424 918 l 438 996 l 185 996 l 114 744 l 208 717 l 215 728 b 263 754 226 743 240 754 b 292 715 288 754 296 740 l 278 633 b 235 590 274 608 263 590 b 204 635 208 590 200 607 l 213 678 l 97 678 l 90 644 b 222 489 72 543 114 489 z m 719 128 l 728 176 b 638 300 742 256 707 300 b 549 257 597 300 568 286 l 564 349 b 615 411 572 392 585 411 b 644 364 639 411 651 399 l 639 332 l 751 332 l 754 353 b 625 506 771 449 725 506 b 453 350 533 506 472 460 l 419 164 b 560 -10 400 53 440 -10 b 719 128 656 -10 703 42 z m 563 89 b 531 156 531 89 521 106 l 539 201 b 583 225 550 217 565 225 b 619 178 613 225 625 211 l 613 138 b 563 89 606 103 593 89 z "},"⅛":{"ha":833,"x_min":0,"x_max":0,"o":"m 510 554 l 878 939 l 740 1031 l 471 583 z m 140 -31 l 410 436 l 374 464 l 0 69 z m 346 499 l 364 603 l 293 603 l 361 996 l 274 996 b 178 918 257 946 226 921 l 164 833 l 226 833 l 186 603 l 108 603 l 92 499 z m 551 -10 b 721 118 658 -10 704 32 l 728 156 b 690 257 738 208 721 240 b 756 344 724 269 744 294 l 760 372 b 628 506 778 464 719 506 b 468 385 540 506 483 469 l 464 356 b 496 261 456 303 468 275 b 422 171 458 249 432 221 l 415 133 b 551 -10 397 39 442 -10 z m 599 299 b 569 340 571 299 564 314 l 575 374 b 619 415 579 404 593 415 b 653 367 649 415 661 406 l 649 339 b 603 299 643 311 631 299 z m 565 89 b 529 138 535 89 521 99 l 535 174 b 583 218 540 203 554 218 l 588 218 b 624 175 618 218 628 203 l 615 133 b 565 89 608 97 593 89 z "},"⅜":{"ha":833,"x_min":0,"x_max":0,"o":"m 510 554 l 878 939 l 740 1031 l 471 583 z m 140 -31 l 410 436 l 374 464 l 0 69 z m 551 -10 b 721 118 658 -10 704 32 l 728 156 b 690 257 738 208 721 240 b 756 344 724 269 744 294 l 760 372 b 628 506 778 464 719 506 b 468 385 540 506 483 469 l 464 356 b 496 261 456 303 468 275 b 422 171 458 249 432 221 l 415 133 b 551 -10 397 39 442 -10 z m 599 299 b 569 340 571 299 564 314 l 575 374 b 619 415 579 404 593 415 b 653 367 649 415 661 406 l 649 339 b 603 299 643 311 631 299 z m 565 89 b 529 138 535 89 521 99 l 535 174 b 583 218 540 203 554 218 l 588 218 b 624 175 618 218 628 203 l 615 133 b 565 89 608 97 593 89 z m 225 489 b 383 614 322 489 369 533 l 390 653 b 353 751 400 701 388 735 b 418 843 393 765 410 797 l 424 871 b 290 1003 440 954 389 1003 b 136 885 199 1003 150 957 b 126 828 136 885 126 832 l 236 828 l 243 872 b 283 907 249 894 257 907 b 313 865 311 907 318 890 l 308 836 b 260 796 303 807 292 796 l 222 796 l 206 706 l 242 706 b 279 667 274 706 285 696 l 274 632 b 232 590 268 604 258 590 b 201 639 203 590 196 606 l 207 676 l 94 676 b 88 638 93 675 89 646 b 225 489 69 540 111 489 z "},"⅝":{"ha":833,"x_min":0,"x_max":0,"o":"m 510 554 l 878 939 l 740 1031 l 471 583 z m 140 -31 l 410 436 l 374 464 l 0 69 z m 551 -10 b 721 118 658 -10 704 32 l 728 156 b 690 257 738 208 721 240 b 756 344 724 269 744 294 l 760 372 b 628 506 778 464 719 506 b 468 385 540 506 483 469 l 464 356 b 496 261 456 303 468 275 b 422 171 458 249 432 221 l 415 133 b 551 -10 397 39 442 -10 z m 599 299 b 569 340 571 299 564 314 l 575 374 b 619 415 579 404 593 415 b 653 367 649 415 661 406 l 649 339 b 603 299 643 311 631 299 z m 565 89 b 529 138 535 89 521 99 l 535 174 b 583 218 540 203 554 218 l 588 218 b 624 175 618 218 628 203 l 615 133 b 565 89 608 97 593 89 z m 222 489 b 388 622 322 489 372 536 l 404 715 b 307 843 421 801 379 843 b 231 810 272 843 250 831 b 257 897 238 835 249 868 l 321 897 b 436 990 404 897 424 918 l 438 996 l 185 996 l 114 744 l 208 717 l 215 728 b 263 754 226 743 240 754 b 292 715 288 754 296 740 l 278 633 b 235 590 274 608 263 590 b 204 635 208 590 200 607 l 213 678 l 97 678 l 90 644 b 222 489 72 543 114 489 z "},"⅞":{"ha":833,"x_min":0,"x_max":0,"o":"m 510 554 l 878 939 l 740 1031 l 471 583 z m 140 -31 l 410 436 l 374 464 l 0 69 z m 551 -10 b 721 118 658 -10 704 32 l 728 156 b 690 257 738 208 721 240 b 756 344 724 269 744 294 l 760 372 b 628 506 778 464 719 506 b 468 385 540 506 483 469 l 464 356 b 496 261 456 303 468 275 b 422 171 458 249 432 221 l 415 133 b 551 -10 397 39 442 -10 z m 599 299 b 569 340 571 299 564 314 l 575 374 b 619 415 579 404 593 415 b 653 367 649 415 661 406 l 649 339 b 603 299 643 311 631 299 z m 565 89 b 529 138 535 89 521 99 l 535 174 b 583 218 540 203 554 218 l 588 218 b 624 175 618 218 628 203 l 615 133 b 565 89 608 97 593 89 z m 275 499 b 475 906 324 654 392 785 l 490 996 l 208 996 l 189 890 l 357 890 b 149 499 286 790 204 657 z "},"%":{"ha":858,"x_min":0,"x_max":0,"o":"m 240 546 b 417 679 336 546 403 594 l 446 839 b 296 1006 464 940 404 1006 b 122 871 204 1006 138 954 l 93 714 b 240 546 76 617 125 546 z m -10 0 l 176 0 b 899 996 251 82 817 910 l 718 996 b -10 0 642 913 74 85 z m 253 658 b 215 715 222 658 208 674 l 238 846 b 288 897 243 881 260 897 b 325 840 318 897 332 881 l 303 713 b 253 658 297 674 281 658 z m 592 -14 b 768 121 688 -14 754 35 l 797 281 b 647 447 815 381 756 447 b 474 311 556 447 489 396 l 444 154 b 592 -14 428 57 476 -14 z m 604 99 b 567 157 574 99 560 114 l 589 288 b 639 338 594 321 611 338 b 676 281 669 338 683 321 l 654 154 b 604 99 649 115 632 99 z "},"‰":{"ha":1243,"x_min":0,"x_max":0,"o":"m 240 546 b 417 679 336 546 403 594 l 446 839 b 296 1006 464 940 404 1006 b 122 871 204 1006 138 954 l 93 714 b 240 546 76 617 125 546 z m -10 0 l 176 0 b 899 996 251 82 817 910 l 718 996 b -10 0 642 913 74 85 z m 253 658 b 215 715 222 658 208 674 l 238 846 b 288 897 243 881 260 897 b 325 840 318 897 332 881 l 303 713 b 253 658 297 674 281 658 z m 976 -14 b 1153 121 1072 -14 1139 35 l 1182 281 b 1032 447 1200 381 1140 447 b 858 311 940 447 874 396 l 829 154 b 976 -14 813 57 861 -14 z m 592 -14 b 768 121 688 -14 754 35 l 797 281 b 647 447 815 381 756 447 b 474 311 556 447 489 396 l 444 154 b 592 -14 428 57 476 -14 z m 989 99 b 951 157 958 99 944 114 l 974 288 b 1024 338 979 321 996 338 b 1061 281 1054 338 1068 321 l 1039 154 b 989 99 1033 115 1017 99 z m 604 99 b 567 157 574 99 560 114 l 589 288 b 639 338 594 321 611 338 b 676 281 669 338 683 321 l 654 154 b 604 99 649 115 632 99 z "},"№":{"ha":1167,"x_min":0,"x_max":0,"o":"m 943 439 b 1153 604 1057 439 1135 499 l 1188 801 b 1010 1008 1210 926 1140 1008 b 803 840 903 1008 821 946 l 768 647 b 943 439 747 526 806 439 z m 956 567 b 908 643 918 567 900 593 l 938 818 b 1003 886 946 865 967 886 b 1050 808 1040 886 1060 863 l 1021 639 b 956 567 1013 590 993 567 z m 250 536 l 265 690 l 278 581 l 413 0 l 569 0 l 744 996 l 581 996 l 486 457 l 472 314 l 458 421 l 328 996 l 168 996 l -7 0 l 156 0 z m 706 225 l 1078 225 l 1104 372 l 731 372 z "},"¤":{"ha":731,"x_min":0,"x_max":0,"o":"m 331 381 b 253 482 268 381 242 425 l 261 535 b 374 635 272 594 314 635 b 450 535 433 635 460 592 l 442 482 b 331 381 431 424 388 381 z m 317 247 b 424 268 356 247 392 254 l 503 161 l 621 258 l 540 365 b 582 472 561 396 575 432 l 592 531 b 582 651 600 575 596 617 l 708 768 l 619 863 l 494 747 b 383 771 464 763 426 771 b 285 753 347 771 314 765 l 203 861 l 86 763 l 167 658 b 122 544 144 626 129 588 l 111 486 b 117 369 103 442 106 403 l -14 250 l 79 153 l 206 269 b 317 247 236 256 274 247 z "},"←":{"ha":1036,"x_min":0,"x_max":0,"o":"m 940 418 l 940 582 l 332 582 b 499 806 399 638 465 721 l 310 806 b 78 539 278 714 178 601 l 78 457 b 314 192 178 396 281 283 l 508 192 b 329 418 472 279 399 364 z "},"→":{"ha":1036,"x_min":0,"x_max":0,"o":"m 722 192 b 958 457 756 283 858 396 l 958 539 b 726 806 858 601 760 714 l 538 806 b 704 582 571 721 638 638 l 96 582 l 96 418 l 708 418 b 528 192 638 364 564 279 z "},"↑":{"ha":1036,"x_min":0,"x_max":0,"o":"m 824 511 l 824 701 b 558 933 732 735 621 833 l 479 933 b 211 701 415 833 303 735 l 211 513 b 438 685 300 547 383 615 l 438 74 l 600 74 l 600 683 b 824 511 654 615 735 547 z "},"↓":{"ha":1036,"x_min":0,"x_max":0,"o":"m 556 64 b 825 296 618 164 732 264 l 825 486 b 597 313 735 450 651 382 l 597 925 l 435 925 l 435 314 b 211 486 382 383 301 450 l 211 296 b 476 64 303 263 414 164 z "},"↖":{"ha":1036,"x_min":0,"x_max":0,"o":"m 879 258 l 449 689 b 726 726 535 678 639 689 l 592 861 b 240 838 504 819 357 810 l 185 781 b 160 426 211 665 201 515 l 293 293 b 332 575 332 382 342 489 l 764 143 z "},"↗":{"ha":1036,"x_min":0,"x_max":0,"o":"m 743 293 l 878 428 b 854 779 836 517 828 664 l 799 835 b 444 861 683 810 532 818 l 310 728 b 592 689 399 689 506 678 l 160 256 l 275 142 l 707 574 b 743 293 696 488 706 382 z "},"↘":{"ha":1036,"x_min":0,"x_max":0,"o":"m 797 167 l 853 222 b 878 576 826 338 836 488 l 744 710 b 706 428 706 621 696 515 l 274 860 l 158 744 l 590 314 b 311 276 504 325 400 315 l 446 142 b 797 167 533 185 682 193 z "},"↙":{"ha":1036,"x_min":0,"x_max":0,"o":"m 593 142 l 728 275 b 446 314 639 314 533 324 l 878 746 l 763 861 l 331 429 b 294 708 342 515 332 619 l 160 574 b 183 222 201 486 210 338 l 240 167 b 593 142 356 193 504 183 z "},"○":{"ha":1221,"x_min":0,"x_max":0,"o":"m 610 -15 b 1118 492 908 -15 1118 200 b 610 1000 1118 788 904 1000 b 104 492 313 1000 104 783 b 610 -15 104 196 313 -15 z m 610 229 b 353 492 461 229 353 343 b 610 758 353 643 461 758 b 868 492 761 758 868 640 b 610 229 868 343 761 229 z "},"●":{"ha":1221,"x_min":0,"x_max":0,"o":"m 610 -15 b 1118 492 908 -15 1118 200 b 610 1000 1118 788 904 1000 b 104 492 313 1000 104 783 b 610 -15 104 196 313 -15 z "},"■":{"ha":1193,"x_min":0,"x_max":0,"o":"m 101 0 l 1092 0 l 1092 996 l 101 996 z "},"□":{"ha":1193,"x_min":0,"x_max":0,"o":"m 101 0 l 1092 0 l 1092 996 l 101 996 z m 356 246 l 356 750 l 838 750 l 838 246 z "},"⊠":{"ha":1193,"x_min":0,"x_max":0,"o":"m 101 0 l 1092 0 l 1092 996 l 101 996 z m 356 246 l 356 750 l 838 750 l 838 246 z m 715 296 l 796 376 l 675 500 l 797 626 l 717 704 l 597 581 l 478 703 l 396 625 l 518 500 l 397 376 l 478 297 l 596 419 z "},"▪":{"ha":997,"x_min":0,"x_max":0,"o":"m 100 0 l 897 0 l 897 797 l 100 797 z "},"▫":{"ha":997,"x_min":0,"x_max":0,"o":"m 100 0 l 897 0 l 897 797 l 100 797 z m 329 221 l 329 578 l 669 578 l 669 221 z "},"▲":{"ha":1239,"x_min":0,"x_max":0,"o":"m 1208 0 l 621 1021 l 31 0 z "},"▼":{"ha":1239,"x_min":0,"x_max":0,"o":"m 621 -17 l 1208 1004 l 31 1004 z "},"◄":{"ha":1239,"x_min":0,"x_max":0,"o":"m 1099 1100 l 78 511 l 1099 -78 z "},"►":{"ha":1239,"x_min":0,"x_max":0,"o":"m 140 -78 l 1161 511 l 140 1100 z "},"◤":{"ha":1239,"x_min":0,"x_max":0,"o":"m 1182 -74 l 876 1064 l 43 231 z "},"◥":{"ha":1239,"x_min":0,"x_max":0,"o":"m 1201 224 l 369 1058 l 64 -79 z "},"◢":{"ha":1239,"x_min":0,"x_max":0,"o":"m 1203 733 l 65 1039 l 369 -100 z "},"◣":{"ha":1239,"x_min":0,"x_max":0,"o":"m 872 -100 l 1178 1039 l 39 733 z "},"◎":{"ha":1261,"x_min":0,"x_max":0,"o":"m 629 -14 b 1135 492 926 -14 1135 200 b 629 999 1135 788 922 999 b 126 492 335 999 126 783 b 629 -14 126 196 335 -14 z m 629 165 b 307 492 447 165 307 306 b 629 822 307 679 447 822 b 954 492 817 822 954 675 b 629 165 954 306 817 165 z m 631 257 b 867 490 767 257 867 358 b 631 725 867 625 765 725 b 396 490 499 725 396 625 b 631 257 396 356 494 257 z m 631 411 b 557 490 588 411 557 446 b 631 571 557 538 588 571 b 706 490 675 571 706 538 b 631 411 706 446 675 411 z "},"★":{"ha":1243,"x_min":0,"x_max":0,"o":"m 361 117 l 618 303 l 875 117 l 775 417 l 1033 601 l 717 603 l 619 903 l 519 603 l 206 604 l 461 418 z "},"☼":{"ha":1282,"x_min":0,"x_max":0,"o":"m 624 781 l 650 781 l 674 976 l 600 976 z m 771 750 l 792 736 l 911 894 l 847 932 z m 482 736 l 501 750 l 426 932 l 361 894 z m 882 647 l 896 625 l 1078 703 l 1038 765 z m 378 625 l 392 646 l 233 765 l 196 701 z m 397 489 b 636 250 397 358 506 250 b 876 489 767 250 876 358 b 636 729 876 621 767 729 b 397 489 506 729 397 621 z m 926 504 l 926 478 l 1122 454 l 1122 528 z m 347 478 l 347 504 l 151 528 l 151 454 z m 392 335 l 378 356 l 196 279 l 236 215 z m 896 356 l 882 336 l 1040 215 l 1078 281 z m 501 232 l 482 246 l 361 88 l 426 50 z m 792 246 l 771 232 l 847 50 l 911 88 z m 650 201 l 624 201 l 600 6 l 674 6 z "},"☾":{"ha":1088,"x_min":0,"x_max":0,"o":"m 738 832 b 835 815 769 832 803 824 b 590 894 765 865 679 894 b 183 486 365 894 183 711 b 590 79 183 263 365 79 b 835 158 679 79 765 108 b 738 142 803 149 769 142 b 408 486 556 142 408 297 b 738 832 408 676 556 832 z "},"♻":{"ha":1146,"x_min":0,"x_max":0,"o":"m 485 935 b 590 869 485 935 554 931 l 674 724 l 628 696 l 826 658 l 900 854 l 849 825 l 815 882 b 710 936 786 933 753 935 l 485 936 z m 246 725 l 421 625 l 556 858 b 364 900 532 903 433 940 b 325 864 346 890 331 874 z m 951 642 l 778 543 l 913 310 b 1044 456 961 310 1044 374 b 1033 506 1044 476 1039 496 z m 231 172 b 235 297 231 172 201 238 b 319 443 238 303 319 443 l 367 414 l 299 608 l 94 572 l 144 543 l 111 486 b 117 367 81 435 96 404 l 228 172 z m 1019 339 b 907 278 1019 339 976 278 l 739 278 l 739 336 l 608 178 l 739 19 l 739 76 l 806 76 b 907 142 867 76 885 106 l 1021 338 z m 533 76 l 533 278 l 264 278 b 325 92 238 235 254 133 b 376 76 343 81 363 76 z "},"♼":{"ha":1146,"x_min":0,"x_max":0,"o":"m 1039 486 b 575 954 1039 746 831 954 b 107 486 317 954 107 746 b 575 24 107 229 317 24 b 1039 486 831 24 1039 229 z m 496 842 l 671 842 b 754 799 706 842 731 839 l 779 756 l 818 776 l 764 625 l 608 654 l 644 676 l 579 789 b 496 840 553 835 496 840 z m 379 783 b 408 813 382 793 394 804 b 557 781 463 844 539 815 l 454 600 l 318 678 z m 925 508 b 936 469 931 499 936 486 b 835 353 936 406 874 353 l 729 535 l 865 614 z m 304 249 l 217 399 b 213 492 203 429 189 451 l 239 536 l 201 560 l 357 586 l 411 436 l 374 460 l 308 347 b 306 249 282 300 306 249 z m 917 375 l 829 225 b 751 176 813 199 799 176 l 700 176 l 700 131 l 597 253 l 700 374 l 700 332 l 829 332 b 915 376 885 332 915 376 z m 414 176 b 374 188 404 176 388 179 b 326 332 319 218 306 297 l 536 332 l 536 176 z "},"♽":{"ha":1146,"x_min":0,"x_max":0,"o":"m 1039 486 b 575 954 1039 746 831 954 b 107 486 317 954 107 746 b 575 24 107 229 317 24 b 1039 486 831 24 1039 229 z m 1015 486 b 575 46 1015 242 818 46 b 131 486 329 46 131 242 b 575 931 131 733 329 931 b 1015 486 818 931 1015 733 z m 496 840 b 579 789 496 840 553 835 l 644 676 l 608 654 l 764 625 l 818 776 l 779 756 l 754 799 b 671 842 731 839 706 842 l 496 842 z m 318 678 l 454 600 l 557 781 b 408 813 539 815 463 844 b 379 783 394 804 382 793 z m 865 614 l 729 535 l 835 353 b 936 469 874 353 936 406 b 925 508 936 486 931 499 z m 306 249 b 308 347 306 249 282 300 l 374 460 l 411 436 l 357 586 l 201 560 l 239 536 l 213 492 b 217 399 189 451 203 429 l 304 249 z m 915 376 b 829 332 915 376 885 332 l 700 332 l 700 374 l 597 253 l 700 131 l 700 176 l 751 176 b 829 225 799 176 813 199 l 917 375 z m 536 176 l 536 332 l 326 332 b 374 188 306 297 319 218 b 414 176 388 179 404 176 z "},"⌂":{"ha":1178,"x_min":0,"x_max":0,"o":"m 140 0 l 1038 0 l 1038 558 l 589 989 l 140 558 z "},"♠":{"ha":1246,"x_min":0,"x_max":0,"o":"m 667 390 b 911 208 703 297 779 208 b 1124 421 1029 208 1124 304 b 817 856 1124 575 1040 678 l 628 1006 l 439 856 b 121 421 215 678 121 575 b 351 208 121 304 226 208 b 581 390 475 208 547 297 b 453 0 581 228 490 69 l 801 0 b 667 390 767 69 667 228 z "},"♣":{"ha":1246,"x_min":0,"x_max":0,"o":"m 893 176 b 1131 417 1025 176 1131 285 b 894 654 1131 549 1026 654 b 831 643 872 654 850 650 b 857 764 847 681 857 722 b 621 999 857 894 751 999 b 382 764 489 999 382 894 b 410 646 382 724 393 682 b 353 654 392 650 374 654 b 114 417 221 654 114 549 b 353 176 114 285 221 176 b 579 338 458 176 542 244 b 454 0 563 196 488 61 l 803 0 b 672 338 772 61 690 194 b 893 176 708 244 789 176 z "},"♥":{"ha":1246,"x_min":0,"x_max":0,"o":"m 619 -24 l 808 189 b 1122 744 1035 438 1122 588 b 867 999 1122 883 1006 999 b 619 782 729 999 635 906 b 369 999 604 906 506 999 b 122 744 231 999 122 883 b 429 189 122 588 206 438 z "},"♦":{"ha":1246,"x_min":0,"x_max":0,"o":"m 624 -14 l 1063 500 l 624 1010 l 182 500 z "},"+":{"ha":615,"x_min":0,"x_max":0,"o":"m 554 415 l 581 568 l 414 568 l 443 736 l 292 736 l 263 568 l 94 568 l 68 415 l 235 415 l 206 247 l 357 247 l 386 415 z "},"−":{"ha":615,"x_min":0,"x_max":0,"o":"m 558 414 l 586 571 l 90 571 l 63 414 z "},"±":{"ha":615,"x_min":0,"x_max":0,"o":"m 553 556 l 581 707 l 438 707 l 463 849 l 313 849 l 288 707 l 144 707 l 118 556 l 260 556 l 235 413 l 385 413 l 410 556 z m 489 192 l 517 346 l 81 346 l 53 192 z "},"×":{"ha":611,"x_min":0,"x_max":0,"o":"m 426 257 l 538 354 l 421 496 l 575 628 l 492 731 l 336 597 l 228 729 l 117 632 l 224 501 l 60 361 l 143 260 l 308 400 z "},"÷":{"ha":615,"x_min":0,"x_max":0,"o":"m 346 619 b 450 697 411 619 440 638 b 374 775 461 758 440 775 b 269 697 308 775 279 758 b 346 619 258 636 276 619 z m 67 411 l 553 411 l 581 568 l 94 568 z m 272 206 b 378 283 339 206 367 222 b 300 360 389 344 367 360 b 196 283 235 360 207 344 b 272 206 185 221 203 206 z "},"=":{"ha":624,"x_min":0,"x_max":0,"o":"m 567 556 l 593 708 l 138 708 l 111 556 z m 519 289 l 547 442 l 90 442 l 64 289 z "},"≠":{"ha":624,"x_min":0,"x_max":0,"o":"m 521 292 l 547 442 l 350 442 l 404 557 l 567 557 l 593 707 l 474 707 l 518 801 l 415 801 l 371 707 l 138 707 l 111 557 l 301 557 l 247 442 l 90 442 l 64 292 l 178 292 l 126 182 l 228 182 l 279 292 z "},"≈":{"ha":614,"x_min":0,"x_max":0,"o":"m 199 474 b 86 426 156 474 107 453 l 57 265 b 172 321 85 299 133 321 b 407 261 240 321 317 261 b 517 308 453 261 497 285 l 544 469 b 433 414 513 432 474 414 b 199 474 364 414 279 474 z m 246 735 b 132 686 201 735 151 713 l 104 525 b 218 582 132 561 181 582 b 453 522 286 582 361 522 b 563 569 494 522 543 544 l 592 731 b 479 675 561 693 519 675 b 246 735 411 675 326 735 z "},"<":{"ha":614,"x_min":0,"x_max":0,"o":"m 503 239 l 533 407 l 289 504 l 567 601 l 597 776 l 108 582 l 82 433 z "},">":{"ha":614,"x_min":0,"x_max":0,"o":"m 54 239 l 544 433 l 569 582 l 149 776 l 119 608 l 361 511 l 85 415 z "},"≤":{"ha":614,"x_min":0,"x_max":0,"o":"m 526 374 l 554 531 l 306 619 l 586 707 l 614 867 l 128 689 l 104 554 z m 493 172 l 518 318 l 64 318 l 39 172 z "},"≥":{"ha":614,"x_min":0,"x_max":0,"o":"m 78 374 l 565 550 l 589 685 l 165 867 l 139 710 l 388 621 l 107 533 z m 43 172 l 496 172 l 522 318 l 68 318 z "},"¬":{"ha":654,"x_min":0,"x_max":0,"o":"m 565 263 l 633 647 l 88 647 l 60 489 l 436 489 l 397 263 z "},"≡":{"ha":624,"x_min":0,"x_max":0,"o":"m 586 660 l 611 801 l 154 801 l 129 660 z m 544 432 l 571 575 l 114 575 l 89 432 z m 504 204 l 531 346 l 74 346 l 49 204 z "},"′":{"ha":278,"x_min":0,"x_max":0,"o":"m 207 699 l 357 996 l 189 996 l 82 699 z "},"″":{"ha":489,"x_min":0,"x_max":0,"o":"m 411 699 l 568 996 l 401 996 l 288 699 z m 206 699 l 354 996 l 189 996 l 82 699 z "},"℅":{"ha":858,"x_min":0,"x_max":0,"o":"m -10 0 l 176 0 b 900 996 253 82 817 910 l 718 996 b -10 0 642 913 75 85 z m 242 546 b 418 679 338 546 403 594 l 429 747 l 307 747 l 301 713 b 253 660 296 676 279 660 b 215 715 222 660 210 675 l 238 846 b 288 896 243 881 261 896 b 322 840 317 896 331 881 l 318 814 l 442 814 l 446 839 b 296 1006 464 940 406 1006 b 122 871 204 1006 138 954 l 94 714 b 242 546 78 617 126 546 z m 593 -14 b 769 121 689 -14 754 35 l 797 281 b 647 447 815 381 757 447 b 474 311 556 447 489 396 l 446 154 b 593 -14 429 57 478 -14 z m 606 99 b 567 157 575 99 561 114 l 589 288 b 640 338 594 321 611 338 b 676 281 669 338 685 321 l 656 154 b 606 99 650 115 633 99 z "},"‗":{"ha":628,"x_min":0,"x_max":0,"o":"m 546 142 l -10 142 l -35 0 l 522 0 z m 511 -61 l -46 -61 l -69 -201 l 486 -201 z "},"‼":{"ha":656,"x_min":0,"x_max":0,"o":"m 392 264 b 458 271 406 268 431 271 b 521 264 486 271 507 268 b 635 731 535 288 600 532 l 681 996 l 490 996 l 444 731 b 392 264 410 531 388 288 z m 88 264 b 153 271 100 268 125 271 b 217 264 181 271 203 268 b 329 731 229 288 294 532 l 375 996 l 185 996 l 139 731 b 88 264 104 531 82 288 z m 408 -12 b 535 103 488 -12 519 13 b 446 221 551 193 525 221 b 319 106 367 221 336 196 b 408 -12 303 14 328 -12 z m 104 -12 b 229 103 183 -12 214 13 b 142 221 246 193 221 221 b 15 106 61 221 31 196 b 104 -12 -3 14 22 -12 z "},"∞":{"ha":975,"x_min":0,"x_max":0,"o":"m 276 433 b 219 506 236 433 213 468 b 301 572 226 543 263 572 b 411 504 342 572 378 544 b 276 433 363 461 319 433 z m 713 433 b 606 500 669 433 639 461 b 735 571 653 543 692 571 b 793 500 776 571 799 539 b 713 433 786 461 753 433 z m 253 290 b 494 407 351 290 417 342 b 707 292 551 344 607 292 b 939 488 838 292 918 367 b 760 713 961 617 883 713 b 518 596 658 713 593 661 b 308 711 463 660 413 711 b 71 514 189 711 92 633 b 253 290 47 382 111 290 z "},"∂":{"ha":632,"x_min":0,"x_max":0,"o":"m 265 -14 b 556 229 428 -14 528 74 l 611 542 b 421 1058 660 769 572 943 l 178 1058 b 467 711 363 929 449 833 b 332 793 447 764 403 793 b 69 539 190 793 99 703 l 26 290 b 265 -14 -6 114 68 -14 z m 278 143 b 199 265 215 143 185 185 l 244 528 b 350 639 257 606 293 639 b 429 518 411 639 444 603 l 385 258 b 278 143 372 182 339 143 z "},"π":{"ha":778,"x_min":0,"x_max":0,"o":"m 419 207 b 592 0 390 44 431 0 l 669 0 l 696 160 l 653 160 b 600 236 600 160 589 174 l 706 832 l 822 832 l 851 996 l 135 996 l 107 832 l 221 832 l 75 0 l 249 0 l 396 832 l 531 832 z "},"μ":{"ha":635,"x_min":0,"x_max":0,"o":"m 240 -12 b 363 88 303 -12 339 21 l 363 0 l 504 0 l 646 807 l 465 807 l 372 278 b 268 149 358 197 328 149 b 214 263 211 149 201 190 l 310 807 l 132 807 l -56 -258 l 119 -258 l 169 25 b 240 -12 181 0 203 -12 z "},"∫":{"ha":442,"x_min":0,"x_max":0,"o":"m -99 -229 l -19 -229 b 232 -17 143 -229 203 -178 l 381 825 b 463 910 393 894 408 910 l 513 910 l 539 1063 l 463 1063 b 210 843 310 1063 238 1004 l 61 4 b -18 -72 50 -60 35 -72 l -72 -72 z "},"√":{"ha":788,"x_min":0,"x_max":0,"o":"m 371 0 l 879 996 l 692 996 l 340 301 l 304 689 l 92 689 l 61 515 l 144 515 l 197 0 z "},"∆":{"ha":801,"x_min":0,"x_max":0,"o":"m -67 0 l 726 0 l 510 1015 z m 518 154 l 207 154 l 439 582 z "},"Ω":{"ha":863,"x_min":0,"x_max":0,"o":"m 350 151 b 293 572 290 297 265 415 b 504 844 329 782 410 844 b 622 571 603 844 660 776 b 418 151 594 415 538 297 l 467 0 l 758 0 l 788 169 l 615 169 b 808 557 706 274 779 393 b 521 1011 864 865 735 1011 b 110 592 303 1011 160 875 b 164 169 76 406 111 278 l -11 169 l -40 0 l 251 0 z "},"∏":{"ha":778,"x_min":0,"x_max":0,"o":"m 388 0 l 561 0 l 708 832 l 824 832 l 851 996 l 135 996 l 107 832 l 221 832 l 75 0 l 249 0 l 396 832 l 533 832 z "},"∑":{"ha":547,"x_min":0,"x_max":0,"o":"m 467 165 l 193 165 l 472 506 l 304 836 l 571 836 l 599 996 l 149 996 l 121 835 l 279 519 l -7 171 l -36 0 l 438 0 z "},"◊":{"ha":783,"x_min":0,"x_max":0,"o":"m 346 129 l 778 497 l 474 867 l 40 499 z m 382 350 l 261 497 l 436 646 l 557 499 z "},"°":{"ha":425,"x_min":0,"x_max":0,"o":"m 265 658 b 467 821 369 658 447 713 l 467 825 b 313 1006 486 933 424 1006 b 110 840 211 1006 129 947 l 110 836 b 265 658 90 726 146 658 z m 281 782 b 244 833 254 782 238 803 l 244 835 b 296 883 250 869 268 883 b 333 829 325 883 339 864 b 281 782 328 796 308 782 z "}}}
